<svg width="250" height="100" viewBox="0 0 250 100" fill="none" xmlns="http://www.w3.org/2000/svg">
<path d="M53.5563 50.42H46.0323L44.3043 56H39.3723L47.5083 30.8H52.4403L60.5403 56H55.3563L53.5563 50.42ZM47.1843 46.46H52.5843L50.0283 38.036H49.7043L47.1843 46.46ZM62.1462 52.04H66.6102V41.96H62.1462V38H70.2462L70.7862 40.376H70.9302C71.6022 39.584 72.3702 38.924 73.2342 38.396C74.0982 37.868 75.1062 37.604 76.2582 37.604C77.6982 37.604 78.8262 38.132 79.6422 39.188C80.4822 40.244 80.9022 42.008 80.9022 44.48H76.6902C76.6902 43.616 76.5582 42.992 76.2942 42.608C76.0542 42.2 75.6582 41.996 75.1062 41.996C74.1462 41.996 73.3662 42.236 72.7662 42.716C72.1902 43.196 71.6982 43.748 71.2902 44.372V52.04H79.1022V56H62.1462V52.04ZM93.3441 49.268H93.5241L98.4921 30.8H103.604L96.0441 56H90.4281L82.6521 30.8H88.1601L93.3441 49.268ZM123.138 54.092C122.826 54.38 122.418 54.668 121.914 54.956C121.434 55.22 120.858 55.472 120.186 55.712C119.538 55.952 118.818 56.144 118.026 56.288C117.234 56.432 116.394 56.504 115.506 56.504C113.97 56.504 112.59 56.288 111.366 55.856C110.166 55.424 109.146 54.8 108.306 53.984C107.466 53.144 106.818 52.148 106.362 50.996C105.93 49.82 105.714 48.488 105.714 47C105.714 45.416 105.966 44.036 106.47 42.86C106.974 41.66 107.658 40.664 108.522 39.872C109.41 39.08 110.442 38.492 111.618 38.108C112.794 37.7 114.066 37.496 115.434 37.496C116.346 37.496 117.282 37.616 118.242 37.856C119.226 38.096 120.126 38.516 120.942 39.116C121.758 39.692 122.418 40.472 122.922 41.456C123.45 42.44 123.714 43.688 123.714 45.2C123.714 46.232 123.594 47.348 123.354 48.548H110.394C110.418 49.316 110.574 49.964 110.862 50.492C111.174 51.02 111.57 51.452 112.05 51.788C112.554 52.124 113.118 52.376 113.742 52.544C114.39 52.688 115.074 52.76 115.794 52.76C117.234 52.76 118.41 52.592 119.322 52.256C120.258 51.92 121.014 51.512 121.59 51.032L123.138 54.092ZM115.362 41.24C114.738 41.24 114.15 41.324 113.598 41.492C113.046 41.66 112.542 41.912 112.086 42.248C111.654 42.56 111.294 42.956 111.006 43.436C110.718 43.916 110.55 44.456 110.502 45.056H119.358C119.358 43.88 119.022 42.956 118.35 42.284C117.702 41.588 116.706 41.24 115.362 41.24ZM126.904 52.04H131.368V41.96H126.904V38H135.004L135.544 40.376H135.688C136.36 39.584 137.128 38.924 137.992 38.396C138.856 37.868 139.864 37.604 141.016 37.604C142.456 37.604 143.584 38.132 144.4 39.188C145.24 40.244 145.66 42.008 145.66 44.48H141.448C141.448 43.616 141.316 42.992 141.052 42.608C140.812 42.2 140.416 41.996 139.864 41.996C138.904 41.996 138.124 42.236 137.524 42.716C136.948 43.196 136.456 43.748 136.048 44.372V52.04H143.86V56H126.904V52.04ZM149.21 52.04H155.546V41.96H149.21V38H160.226V52.04H166.886V56H149.21V52.04ZM154.682 33.104C154.682 32.36 154.958 31.724 155.51 31.196C156.062 30.668 156.83 30.404 157.814 30.404C158.822 30.404 159.626 30.668 160.226 31.196C160.826 31.724 161.126 32.36 161.126 33.104C161.126 33.872 160.826 34.508 160.226 35.012C159.626 35.492 158.822 35.732 157.814 35.732C156.83 35.732 156.062 35.492 155.51 35.012C154.958 34.508 154.682 33.872 154.682 33.104ZM171.228 56V52.04H175.476V41.96H171.192V38H175.476V36.992C175.476 35.864 175.668 34.892 176.052 34.076C176.46 33.26 176.988 32.588 177.636 32.06C178.284 31.532 179.028 31.148 179.868 30.908C180.732 30.644 181.62 30.512 182.532 30.512C184.188 30.512 185.544 30.656 186.6 30.944C187.68 31.208 188.568 31.544 189.264 31.952L187.896 35.516C187.344 35.252 186.744 35.012 186.096 34.796C185.472 34.58 184.656 34.472 183.648 34.472C182.352 34.472 181.44 34.772 180.912 35.372C180.408 35.948 180.156 36.824 180.156 38H187.716V41.96H180.156V52.04H187.752V56H171.228ZM201.094 50.924H202.462L205.954 38H210.778L205.666 54.236C205.21 55.58 204.766 56.804 204.334 57.908C203.902 59.036 203.398 60.008 202.822 60.824C202.246 61.64 201.562 62.264 200.77 62.696C200.002 63.152 199.054 63.38 197.926 63.38C197.374 63.38 196.846 63.308 196.342 63.164C195.862 63.02 195.418 62.84 195.01 62.624C194.602 62.432 194.242 62.216 193.93 61.976C193.618 61.76 193.366 61.556 193.174 61.364L195.586 58.16C195.898 58.424 196.27 58.664 196.702 58.88C197.134 59.12 197.542 59.24 197.926 59.24C198.646 59.24 199.21 58.988 199.618 58.484C200.05 57.98 200.458 57.152 200.842 56H198.286L190.798 38H195.874L201.094 50.924ZM33.7566 73L34.6344 70.5284H38.1628L39.0407 73H40.1486L36.9441 64.2727H35.8532L32.6486 73H33.7566ZM34.9668 69.5909L36.3645 65.6534H36.4327L37.8304 69.5909H34.9668ZM42.3773 69.0625C42.3773 67.9205 43.0847 67.2727 44.0478 67.2727C44.981 67.2727 45.5478 67.8821 45.5478 68.9091V73H46.5534V68.8409C46.5534 67.1705 45.6628 66.3693 44.3375 66.3693C43.3489 66.3693 42.7353 66.8125 42.4284 67.4773H42.3432V66.4545H41.3716V73H42.3773V69.0625ZM51.0502 73.1364C52.823 73.1364 54.0162 71.7898 54.0162 69.7614C54.0162 67.7159 52.823 66.3693 51.0502 66.3693C49.2775 66.3693 48.0843 67.7159 48.0843 69.7614C48.0843 71.7898 49.2775 73.1364 51.0502 73.1364ZM51.0502 72.233C49.7037 72.233 49.09 71.0739 49.09 69.7614C49.09 68.4489 49.7037 67.2727 51.0502 67.2727C52.3968 67.2727 53.0105 68.4489 53.0105 69.7614C53.0105 71.0739 52.3968 72.233 51.0502 72.233ZM56.557 69.0625C56.557 67.9205 57.2644 67.2727 58.2275 67.2727C59.1607 67.2727 59.7275 67.8821 59.7275 68.9091V73H60.7331V68.8409C60.7331 67.1705 59.8425 66.3693 58.5172 66.3693C57.5286 66.3693 56.915 66.8125 56.6081 67.4773H56.5229V66.4545H55.5513V73H56.557V69.0625ZM62.9842 75.4545C63.8919 75.4545 64.5311 74.973 64.9103 73.9545L67.6973 66.4716L66.5978 66.4545L64.791 71.6705H64.7228L62.916 66.4545H61.8251L64.2456 73.0341L64.0581 73.5455C63.6916 74.5426 63.2399 74.6364 62.5069 74.4489L62.2512 75.3352C62.3535 75.3864 62.6433 75.4545 62.9842 75.4545ZM69.0279 73H70.0336V68.9091C70.0336 67.9503 70.7324 67.2727 71.5165 67.2727C72.2793 67.2727 72.812 67.7713 72.812 68.517V73H73.8347V68.7386C73.8347 67.8949 74.3631 67.2727 75.2836 67.2727C75.9995 67.2727 76.6131 67.652 76.6131 68.6193V73H77.6188V68.6193C77.6188 67.081 76.7921 66.3693 75.6245 66.3693C74.687 66.3693 74.0009 66.7997 73.6642 67.4773H73.5961C73.2722 66.7784 72.7012 66.3693 71.8404 66.3693C70.9881 66.3693 70.3574 66.7784 70.0847 67.4773H69.9995V66.4545H69.0279V73ZM82.1167 73.1364C83.8894 73.1364 85.0826 71.7898 85.0826 69.7614C85.0826 67.7159 83.8894 66.3693 82.1167 66.3693C80.3439 66.3693 79.1507 67.7159 79.1507 69.7614C79.1507 71.7898 80.3439 73.1364 82.1167 73.1364ZM82.1167 72.233C80.7701 72.233 80.1564 71.0739 80.1564 69.7614C80.1564 68.4489 80.7701 67.2727 82.1167 67.2727C83.4632 67.2727 84.0769 68.4489 84.0769 69.7614C84.0769 71.0739 83.4632 72.233 82.1167 72.233ZM90.7427 70.3239C90.7427 71.5511 89.8052 72.1136 89.0552 72.1136C88.22 72.1136 87.6234 71.5 87.6234 70.5455V66.4545H86.6177V70.6136C86.6177 72.2841 87.5041 73.0852 88.7314 73.0852C89.72 73.0852 90.3677 72.5568 90.6745 71.892H90.7427V73H91.7484V66.4545H90.7427V70.3239ZM98.2267 67.9205C97.9114 66.9915 97.204 66.3693 95.9086 66.3693C94.5279 66.3693 93.5051 67.1534 93.5051 68.2614C93.5051 69.1648 94.0421 69.7699 95.2438 70.0511L96.3347 70.3068C96.9952 70.4602 97.3063 70.7756 97.3063 71.2273C97.3063 71.7898 96.7097 72.25 95.7722 72.25C94.9498 72.25 94.4341 71.8963 94.2551 71.1932L93.3006 71.4318C93.535 72.544 94.4512 73.1364 95.7892 73.1364C97.3105 73.1364 98.3461 72.3054 98.3461 71.1761C98.3461 70.2642 97.775 69.6889 96.6074 69.4034L95.6358 69.1648C94.8603 68.973 94.5108 68.7131 94.5108 68.2102C94.5108 67.6477 95.1074 67.2386 95.9086 67.2386C96.7864 67.2386 97.1486 67.7244 97.3233 68.1761L98.2267 67.9205ZM156.253 64.2727H155.145L158.349 73H159.44L162.645 64.2727H161.537L158.946 71.6193H158.844L156.253 64.2727ZM166.003 73.1364C167.332 73.1364 168.304 72.4716 168.611 71.483L167.639 71.2102C167.383 71.892 166.791 72.233 166.003 72.233C164.822 72.233 164.008 71.4702 163.961 70.0682H168.713V69.642C168.713 67.2045 167.264 66.3693 165.9 66.3693C164.128 66.3693 162.952 67.767 162.952 69.7784C162.952 71.7898 164.111 73.1364 166.003 73.1364ZM163.961 69.1989C164.03 68.1804 164.75 67.2727 165.9 67.2727C166.991 67.2727 167.69 68.0909 167.69 69.1989H163.961ZM170.243 73H171.248V68.858C171.248 67.9716 171.947 67.3239 172.902 67.3239C173.17 67.3239 173.447 67.375 173.515 67.392V66.3693C173.4 66.3608 173.136 66.3523 172.987 66.3523C172.203 66.3523 171.521 66.7955 171.282 67.4432H171.214V66.4545H170.243V73ZM174.708 73H175.713V66.4545H174.708V73ZM175.219 65.3636C175.611 65.3636 175.935 65.0568 175.935 64.6818C175.935 64.3068 175.611 64 175.219 64C174.827 64 174.503 64.3068 174.503 64.6818C174.503 65.0568 174.827 65.3636 175.219 65.3636ZM180.47 66.4545H179.004V65.7898C179.004 65.142 179.277 64.8011 179.942 64.8011C180.231 64.8011 180.402 64.8693 180.504 64.9034L180.794 64.0341C180.64 63.9659 180.334 63.8636 179.839 63.8636C178.902 63.8636 177.998 64.4261 177.998 65.5511V66.4545H176.942V67.3068H177.998V73H179.004V67.3068H180.47V66.4545ZM181.879 73H182.885V66.4545H181.879V73ZM182.391 65.3636C182.783 65.3636 183.107 65.0568 183.107 64.6818C183.107 64.3068 182.783 64 182.391 64C181.999 64 181.675 64.3068 181.675 64.6818C181.675 65.0568 181.999 65.3636 182.391 65.3636ZM187.386 73.1364C188.835 73.1364 189.79 72.25 189.96 71.0909H188.954C188.767 71.8068 188.17 72.233 187.386 72.233C186.193 72.233 185.426 71.2443 185.426 69.7273C185.426 68.2443 186.21 67.2727 187.386 67.2727C188.273 67.2727 188.801 67.8182 188.954 68.4148H189.96C189.79 67.1875 188.75 66.3693 187.369 66.3693C185.596 66.3693 184.42 67.767 184.42 69.7614C184.42 71.7216 185.545 73.1364 187.386 73.1364ZM193.356 73.1534C194.498 73.1534 195.095 72.5398 195.3 72.1136H195.351V73H196.356V68.6875C196.356 66.608 194.771 66.3693 193.936 66.3693C192.947 66.3693 191.822 66.7102 191.311 67.9034L192.265 68.2443C192.487 67.767 193.011 67.2557 193.97 67.2557C194.895 67.2557 195.351 67.7457 195.351 68.5852V68.6193C195.351 69.1051 194.856 69.0625 193.663 69.2159C192.449 69.3736 191.123 69.642 191.123 71.142C191.123 72.4205 192.112 73.1534 193.356 73.1534ZM193.51 72.25C192.709 72.25 192.129 71.892 192.129 71.1932C192.129 70.4261 192.828 70.1875 193.612 70.0852C194.038 70.0341 195.18 69.9148 195.351 69.7102V70.6307C195.351 71.4489 194.703 72.25 193.51 72.25ZM201.039 66.4545H199.641V64.8864H198.635V66.4545H197.646V67.3068H198.635V71.3977C198.635 72.5398 199.556 73.0852 200.408 73.0852C200.783 73.0852 201.021 73.017 201.158 72.9659L200.953 72.0625C200.868 72.0795 200.732 72.1136 200.51 72.1136C200.067 72.1136 199.641 71.9773 199.641 71.125V67.3068H201.039V66.4545ZM202.551 73H203.557V66.4545H202.551V73ZM203.063 65.3636C203.455 65.3636 203.779 65.0568 203.779 64.6818C203.779 64.3068 203.455 64 203.063 64C202.671 64 202.347 64.3068 202.347 64.6818C202.347 65.0568 202.671 65.3636 203.063 65.3636ZM208.058 73.1364C209.831 73.1364 211.024 71.7898 211.024 69.7614C211.024 67.7159 209.831 66.3693 208.058 66.3693C206.285 66.3693 205.092 67.7159 205.092 69.7614C205.092 71.7898 206.285 73.1364 208.058 73.1364ZM208.058 72.233C206.711 72.233 206.098 71.0739 206.098 69.7614C206.098 68.4489 206.711 67.2727 208.058 67.2727C209.405 67.2727 210.018 68.4489 210.018 69.7614C210.018 71.0739 209.405 72.233 208.058 72.233ZM213.565 69.0625C213.565 67.9205 214.272 67.2727 215.235 67.2727C216.169 67.2727 216.735 67.8821 216.735 68.9091V73H217.741V68.8409C217.741 67.1705 216.85 66.3693 215.525 66.3693C214.536 66.3693 213.923 66.8125 213.616 67.4773H213.531V66.4545H212.559V73H213.565V69.0625Z" fill="black"/>
<path d="M103.729 73L104.607 70.5284H108.135L109.013 73H110.121L106.917 64.2727H105.826L102.621 73H103.729ZM104.939 69.5909L106.337 65.6534H106.405L107.803 69.5909H104.939ZM111.344 73H112.35V68.858C112.35 67.9716 113.049 67.3239 114.003 67.3239C114.272 67.3239 114.549 67.375 114.617 67.392V66.3693C114.502 66.3608 114.238 66.3523 114.089 66.3523C113.305 66.3523 112.623 66.7955 112.384 67.4432H112.316V66.4545H111.344V73ZM117.398 73H118.386L119.818 67.9716H119.92L121.352 73H122.341L124.335 66.4545H123.278L121.863 71.4489H121.795L120.415 66.4545H119.341L117.943 71.4659H117.875L116.46 66.4545H115.403L117.398 73ZM128.186 73.1364C129.516 73.1364 130.487 72.4716 130.794 71.483L129.823 71.2102C129.567 71.892 128.975 72.233 128.186 72.233C127.006 72.233 126.192 71.4702 126.145 70.0682H130.896V69.642C130.896 67.2045 129.448 66.3693 128.084 66.3693C126.311 66.3693 125.135 67.767 125.135 69.7784C125.135 71.7898 126.294 73.1364 128.186 73.1364ZM126.145 69.1989C126.213 68.1804 126.933 67.2727 128.084 67.2727C129.175 67.2727 129.874 68.0909 129.874 69.1989H126.145ZM134.352 73.1534C135.494 73.1534 136.091 72.5398 136.296 72.1136H136.347V73H137.352V68.6875C137.352 66.608 135.767 66.3693 134.932 66.3693C133.943 66.3693 132.818 66.7102 132.307 67.9034L133.262 68.2443C133.483 67.767 134.007 67.2557 134.966 67.2557C135.891 67.2557 136.347 67.7457 136.347 68.5852V68.6193C136.347 69.1051 135.852 69.0625 134.659 69.2159C133.445 69.3736 132.119 69.642 132.119 71.142C132.119 72.4205 133.108 73.1534 134.352 73.1534ZM134.506 72.25C133.705 72.25 133.125 71.892 133.125 71.1932C133.125 70.4261 133.824 70.1875 134.608 70.0852C135.034 70.0341 136.176 69.9148 136.347 69.7102V70.6307C136.347 71.4489 135.699 72.25 134.506 72.25ZM144.306 66.4545H143.215L141.408 71.6705H141.34L139.533 66.4545H138.442L140.863 73H141.885L144.306 66.4545ZM148.143 73.1364C149.473 73.1364 150.444 72.4716 150.751 71.483L149.78 71.2102C149.524 71.892 148.932 72.233 148.143 72.233C146.963 72.233 146.149 71.4702 146.102 70.0682H150.854V69.642C150.854 67.2045 149.405 66.3693 148.041 66.3693C146.268 66.3693 145.092 67.767 145.092 69.7784C145.092 71.7898 146.251 73.1364 148.143 73.1364ZM146.102 69.1989C146.17 68.1804 146.89 67.2727 148.041 67.2727C149.132 67.2727 149.831 68.0909 149.831 69.1989H146.102Z" fill="#828282"/>
<path d="M102.314 75.3864H151.467V76.2045H102.314V75.3864Z" fill="#828282"/>
</svg>
