<svg width="409" height="193" viewBox="0 0 409 193" fill="none" xmlns="http://www.w3.org/2000/svg">
<rect width="409" height="193" rx="10" fill="#1A1A1A"/>
<path fill-rule="evenodd" clip-rule="evenodd" d="M329.533 89.133C329.186 89.0221 328.814 89.0221 328.467 89.133L323.217 90.813C322.864 90.926 322.555 91.1484 322.337 91.448C322.118 91.7476 322 92.109 322 92.48V96C322 97.566 322.32 99.182 323.303 100.682C324.286 102.18 325.888 103.495 328.335 104.537C328.545 104.626 328.771 104.672 329 104.672C329.229 104.672 329.455 104.626 329.665 104.537C332.112 103.495 333.714 102.18 334.697 100.682C335.68 99.182 336 97.566 336 96V92.48C336 92.109 335.882 91.7476 335.663 91.448C335.445 91.1484 335.136 90.926 334.783 90.813L329.533 89.133ZM328.923 90.562C328.973 90.546 329.026 90.546 329.076 90.562L334.326 92.242C334.376 92.2581 334.421 92.2898 334.452 92.3326C334.483 92.3754 334.5 92.427 334.5 92.48V96C334.5 97.358 334.225 98.666 333.443 99.86C332.659 101.054 331.322 102.2 329.077 103.157C329.053 103.167 329.026 103.172 329 103.172C328.974 103.172 328.947 103.167 328.923 103.157C326.678 102.201 325.341 101.053 324.557 99.859C323.775 98.666 323.5 97.36 323.5 96V92.48C323.5 92.4272 323.517 92.3758 323.548 92.3332C323.58 92.2906 323.624 92.2591 323.674 92.243L328.924 90.563L328.923 90.562ZM332.28 95.28C332.412 95.1378 332.485 94.9498 332.481 94.7555C332.478 94.5612 332.399 94.3758 332.262 94.2384C332.124 94.101 331.939 94.0223 331.745 94.0188C331.55 94.0154 331.362 94.0875 331.22 94.22L328.25 97.19L327.28 96.22C327.211 96.1463 327.129 96.0872 327.037 96.0462C326.945 96.0052 326.845 95.9832 326.745 95.9814C326.644 95.9796 326.544 95.9982 326.45 96.0359C326.357 96.0736 326.272 96.1297 326.201 96.201C326.13 96.2722 326.074 96.357 326.036 96.4504C325.998 96.5438 325.98 96.6438 325.981 96.7445C325.983 96.8452 326.005 96.9445 326.046 97.0365C326.087 97.1285 326.146 97.2113 326.22 97.28L327.72 98.78C327.861 98.9205 328.051 98.9993 328.25 98.9993C328.449 98.9993 328.639 98.9205 328.78 98.78L332.28 95.28V95.28Z" fill="#999999"/>
<path fill-rule="evenodd" clip-rule="evenodd" d="M189.533 89.133C189.186 89.0221 188.814 89.0221 188.467 89.133L183.217 90.813C182.864 90.926 182.555 91.1484 182.337 91.448C182.118 91.7476 182 92.109 182 92.48V96C182 97.566 182.32 99.182 183.303 100.682C184.286 102.18 185.888 103.495 188.335 104.537C188.545 104.626 188.771 104.672 189 104.672C189.229 104.672 189.455 104.626 189.665 104.537C192.112 103.495 193.714 102.18 194.697 100.682C195.68 99.182 196 97.566 196 96V92.48C196 92.109 195.882 91.7476 195.663 91.448C195.445 91.1484 195.136 90.926 194.783 90.813L189.533 89.133ZM188.923 90.562C188.973 90.546 189.026 90.546 189.076 90.562L194.326 92.242C194.376 92.2581 194.421 92.2898 194.452 92.3326C194.483 92.3754 194.5 92.427 194.5 92.48V96C194.5 97.358 194.225 98.666 193.443 99.86C192.659 101.054 191.322 102.2 189.077 103.157C189.053 103.167 189.026 103.172 189 103.172C188.974 103.172 188.947 103.167 188.923 103.157C186.678 102.201 185.341 101.053 184.557 99.859C183.775 98.666 183.5 97.36 183.5 96V92.48C183.5 92.4272 183.517 92.3758 183.548 92.3332C183.58 92.2906 183.624 92.2591 183.674 92.243L188.924 90.563L188.923 90.562ZM187.78 94.22C187.711 94.1463 187.629 94.0872 187.537 94.0462C187.445 94.0052 187.345 93.9832 187.245 93.9814C187.144 93.9796 187.044 93.9982 186.95 94.0359C186.857 94.0736 186.772 94.1297 186.701 94.201C186.63 94.2722 186.574 94.357 186.536 94.4504C186.498 94.5438 186.48 94.6438 186.481 94.7445C186.483 94.8452 186.505 94.9445 186.546 95.0365C186.587 95.1285 186.646 95.2113 186.72 95.28L187.94 96.5L186.72 97.72C186.588 97.8622 186.515 98.0502 186.519 98.2445C186.522 98.4388 186.601 98.6242 186.738 98.7616C186.876 98.899 187.061 98.9777 187.255 98.9812C187.45 98.9846 187.638 98.9125 187.78 98.78L189 97.56L190.22 98.78C190.289 98.8537 190.371 98.9128 190.463 98.9538C190.555 98.9948 190.655 99.0168 190.755 99.0186C190.856 99.0204 190.956 99.0018 191.05 98.9641C191.143 98.9264 191.228 98.8703 191.299 98.799C191.37 98.7278 191.426 98.643 191.464 98.5496C191.502 98.4562 191.52 98.3562 191.519 98.2555C191.517 98.1548 191.495 98.0555 191.454 97.9635C191.413 97.8715 191.354 97.7887 191.28 97.72L190.06 96.5L191.28 95.28C191.354 95.2113 191.413 95.1285 191.454 95.0365C191.495 94.9445 191.517 94.8452 191.519 94.7445C191.52 94.6438 191.502 94.5438 191.464 94.4504C191.426 94.357 191.37 94.2722 191.299 94.201C191.228 94.1297 191.143 94.0736 191.05 94.0359C190.956 93.9982 190.856 93.9796 190.755 93.9814C190.655 93.9832 190.555 94.0052 190.463 94.0462C190.371 94.0872 190.289 94.1463 190.22 94.22L189 95.44L187.78 94.22Z" fill="#999999"/>
<path d="M33.6 35.5538C33.8769 35.5538 34.1231 35.6154 34.3385 35.7385C34.5538 35.8564 34.7231 36.0205 34.8462 36.2308C34.9692 36.4359 35.0308 36.6667 35.0308 36.9231C35.0308 37.1795 34.9692 37.4128 34.8462 37.6231C34.7231 37.8333 34.5513 38 34.3308 38.1231C34.1154 38.241 33.8718 38.3 33.6 38.3C33.3231 38.3 33.0744 38.241 32.8538 38.1231C32.6333 38 32.4615 37.8333 32.3385 37.6231C32.2154 37.4128 32.1538 37.1795 32.1538 36.9231C32.1538 36.6667 32.2154 36.4359 32.3385 36.2308C32.4615 36.0205 32.6333 35.8564 32.8538 35.7385C33.0744 35.6154 33.3231 35.5538 33.6 35.5538ZM30.4 39.8308H35.0692V46.3385H37.1462V48H30.3231V46.3385H32.6385V41.4923H30.4V39.8308ZM45.3439 39.5615C45.9285 39.5615 46.3593 39.7513 46.6362 40.1308C46.9131 40.5103 47.0516 41.1179 47.0516 41.9538V48H44.967V42.2308C44.967 41.9385 44.9388 41.7359 44.8824 41.6231C44.826 41.5051 44.7183 41.4462 44.5593 41.4462C44.4208 41.4462 44.2824 41.4872 44.1439 41.5692C44.0106 41.6462 43.867 41.7821 43.7131 41.9769V48H42.0054V42.2308C42.0054 41.9385 41.9772 41.7359 41.9208 41.6231C41.8644 41.5051 41.7567 41.4462 41.5977 41.4462C41.4593 41.4462 41.3208 41.4872 41.1824 41.5692C41.049 41.6462 40.9054 41.7821 40.7516 41.9769V48H38.6362V39.8308H40.4208L40.5824 40.6231C40.849 40.259 41.1131 39.9923 41.3747 39.8231C41.6362 39.6487 41.9413 39.5615 42.2901 39.5615C42.608 39.5615 42.8721 39.641 43.0824 39.8C43.2977 39.959 43.4516 40.2026 43.5439 40.5308C44.1029 39.8846 44.7029 39.5615 45.3439 39.5615ZM53.057 39.5615C54.0878 39.5615 54.8416 39.9385 55.3186 40.6923C55.8006 41.441 56.0416 42.5077 56.0416 43.8923C56.0416 44.7385 55.916 45.4923 55.6647 46.1538C55.4186 46.8103 55.0596 47.3256 54.5878 47.7C54.116 48.0744 53.5545 48.2615 52.9032 48.2615C52.1083 48.2615 51.4622 47.9769 50.9647 47.4077V51.1538L48.534 51.4077V39.8308H50.6878L50.7955 40.7462C51.1134 40.341 51.4673 40.0436 51.857 39.8538C52.2468 39.659 52.6468 39.5615 53.057 39.5615ZM52.3032 41.3538C52.0314 41.3538 51.7852 41.4359 51.5647 41.6C51.3493 41.759 51.1493 41.9923 50.9647 42.3V45.7462C51.1391 46.0026 51.3186 46.1897 51.5032 46.3077C51.6929 46.4205 51.9134 46.4769 52.1647 46.4769C52.6109 46.4769 52.9493 46.2744 53.1801 45.8692C53.416 45.4641 53.534 44.8154 53.534 43.9231C53.534 43.2667 53.4852 42.7513 53.3878 42.3769C53.2955 41.9974 53.1596 41.7333 52.9801 41.5846C52.8006 41.4308 52.575 41.3538 52.3032 41.3538ZM61.3009 39.5615C62.1266 39.5615 62.8368 39.741 63.4317 40.1C64.0317 40.4538 64.4881 40.9564 64.8009 41.6077C65.1138 42.259 65.2702 43.0205 65.2702 43.8923C65.2702 44.8 65.1112 45.5821 64.7932 46.2385C64.4804 46.8897 64.0266 47.3897 63.4317 47.7385C62.8368 48.0872 62.1266 48.2615 61.3009 48.2615C60.4702 48.2615 59.7573 48.0897 59.1625 47.7462C58.5676 47.4026 58.1138 46.9051 57.8009 46.2538C57.4881 45.5974 57.3317 44.8154 57.3317 43.9077C57.3317 43.041 57.4881 42.2821 57.8009 41.6308C58.1189 40.9744 58.5753 40.4667 59.1702 40.1077C59.7702 39.7436 60.4804 39.5615 61.3009 39.5615ZM61.3009 41.3538C60.8035 41.3538 60.4343 41.559 60.1932 41.9692C59.9573 42.3795 59.8394 43.0256 59.8394 43.9077C59.8394 44.8051 59.9573 45.459 60.1932 45.8692C60.4291 46.2744 60.7984 46.4769 61.3009 46.4769C61.8035 46.4769 62.1727 46.2718 62.4086 45.8615C62.6445 45.4513 62.7625 44.7949 62.7625 43.8923C62.7625 43.0154 62.642 42.3744 62.4009 41.9692C62.165 41.559 61.7984 41.3538 61.3009 41.3538ZM73.2294 39.5846C73.7166 39.5846 74.1653 39.6667 74.5756 39.8308L74.1218 43.2462H72.5987V41.7385C72.1474 41.8205 71.7474 42.0667 71.3987 42.4769C71.05 42.8872 70.7756 43.4051 70.5756 44.0308V46.3692H72.191V48H67.0679V46.3692H68.1448V41.4462H67.0679V39.8308H69.9987L70.4448 41.6692C70.7371 40.9667 71.1089 40.4436 71.5602 40.1C72.0166 39.7564 72.573 39.5846 73.2294 39.5846ZM83.5733 47.5231C83.2298 47.7487 82.8298 47.9282 82.3733 48.0615C81.9221 48.1949 81.4298 48.2615 80.8964 48.2615C79.8503 48.2615 79.0631 47.9949 78.5349 47.4615C78.0067 46.9282 77.7426 46.1795 77.7426 45.2154V41.5077H76.0272V39.8308H77.7426V38.0615L80.1733 37.7692V39.8308H82.8041L82.5657 41.5077H80.1733V45.2154C80.1733 45.6205 80.2631 45.9103 80.4426 46.0846C80.6272 46.259 80.9246 46.3462 81.3349 46.3462C81.8477 46.3462 82.3246 46.2231 82.7657 45.9769L83.5733 47.5231ZM116.672 36.1077C116.954 36.1077 117.182 36.1949 117.357 36.3692C117.531 36.5385 117.618 36.7513 117.618 37.0077C117.618 37.2744 117.531 37.4949 117.357 37.6692C117.182 37.8436 116.954 37.9308 116.672 37.9308C116.4 37.9308 116.177 37.8436 116.003 37.6692C115.828 37.4897 115.741 37.2692 115.741 37.0077C115.741 36.7513 115.828 36.5385 116.003 36.3692C116.177 36.1949 116.4 36.1077 116.672 36.1077ZM113.987 39.9H117.703V46.9769H119.987V48H113.91V46.9769H116.41V40.9231H113.987V39.9ZM126.493 47.0615C127.216 47.0615 127.918 46.8256 128.601 46.3538L129.231 47.2C128.877 47.4974 128.452 47.7359 127.954 47.9154C127.457 48.0897 126.97 48.1769 126.493 48.1769C125.698 48.1769 125.013 48.0051 124.439 47.6615C123.87 47.3179 123.436 46.8308 123.139 46.2C122.842 45.5692 122.693 44.8308 122.693 43.9846C122.693 43.1692 122.844 42.441 123.147 41.8C123.449 41.1538 123.888 40.6487 124.462 40.2846C125.036 39.9154 125.718 39.7308 126.508 39.7308C127.539 39.7308 128.442 40.0436 129.216 40.6692L128.585 41.5308C127.888 41.0487 127.19 40.8077 126.493 40.8077C126.016 40.8077 125.598 40.9256 125.239 41.1615C124.88 41.3974 124.598 41.7538 124.393 42.2308C124.193 42.7077 124.093 43.2923 124.093 43.9846C124.093 45.0205 124.308 45.7923 124.739 46.3C125.175 46.8077 125.76 47.0615 126.493 47.0615ZM135.144 39.7308C135.893 39.7308 136.526 39.9026 137.044 40.2462C137.562 40.5846 137.952 41.0718 138.214 41.7077C138.48 42.3385 138.614 43.0846 138.614 43.9462C138.614 44.7821 138.478 45.5179 138.206 46.1538C137.939 46.7897 137.544 47.2872 137.021 47.6462C136.498 48 135.868 48.1769 135.129 48.1769C134.38 48.1769 133.744 48.0051 133.221 47.6615C132.703 47.3128 132.311 46.8231 132.044 46.1923C131.778 45.5615 131.644 44.8179 131.644 43.9615C131.644 43.1205 131.778 42.3821 132.044 41.7462C132.316 41.1103 132.714 40.6154 133.237 40.2615C133.765 39.9077 134.401 39.7308 135.144 39.7308ZM135.144 40.7846C134.442 40.7846 133.914 41.0462 133.56 41.5692C133.206 42.0872 133.029 42.8846 133.029 43.9615C133.029 45.0231 133.203 45.8154 133.552 46.3385C133.901 46.8564 134.426 47.1154 135.129 47.1154C135.832 47.1154 136.357 46.8564 136.706 46.3385C137.055 45.8154 137.229 45.0179 137.229 43.9462C137.229 42.8795 137.055 42.0872 136.706 41.5692C136.357 41.0462 135.837 40.7846 135.144 40.7846ZM141.288 48V39.9H142.388L142.488 41.0231C142.811 40.6179 143.217 40.3026 143.704 40.0769C144.196 39.8462 144.683 39.7308 145.165 39.7308C145.94 39.7308 146.511 39.9359 146.881 40.3462C147.255 40.7564 147.442 41.3462 147.442 42.1154V48H146.15V43.0692C146.15 42.4641 146.117 42.0026 146.05 41.6846C145.988 41.3667 145.858 41.1308 145.658 40.9769C145.463 40.8231 145.165 40.7462 144.765 40.7462C144.329 40.7462 143.917 40.8821 143.527 41.1538C143.142 41.4205 142.827 41.7359 142.581 42.1V48H141.288ZM182.933 36.3308C183.995 36.3308 184.928 36.5026 185.733 36.8462L185.064 38.4308C184.52 38.2256 183.936 38.1231 183.31 38.1231C182.828 38.1231 182.482 38.2103 182.272 38.3846C182.067 38.559 181.964 38.8487 181.964 39.2538V40.3462H184.625L184.356 42.0308H181.964V48H179.549V42.0308H177.833V40.3462H179.549V39.1615C179.549 38.6179 179.677 38.1333 179.933 37.7077C180.195 37.2769 180.579 36.941 181.087 36.7C181.6 36.4538 182.215 36.3308 182.933 36.3308ZM193.2 39.5846C193.687 39.5846 194.136 39.6667 194.546 39.8308L194.092 43.2462H192.569V41.7385C192.118 41.8205 191.718 42.0667 191.369 42.4769C191.021 42.8872 190.746 43.4051 190.546 44.0308V46.3692H192.162V48H187.039V46.3692H188.116V41.4462H187.039V39.8308H189.969L190.416 41.6692C190.708 40.9667 191.08 40.4436 191.531 40.1C191.987 39.7564 192.544 39.5846 193.2 39.5846ZM199.729 39.5615C200.554 39.5615 201.265 39.741 201.859 40.1C202.459 40.4538 202.916 40.9564 203.229 41.6077C203.541 42.259 203.698 43.0205 203.698 43.8923C203.698 44.8 203.539 45.5821 203.221 46.2385C202.908 46.8897 202.454 47.3897 201.859 47.7385C201.265 48.0872 200.554 48.2615 199.729 48.2615C198.898 48.2615 198.185 48.0897 197.59 47.7462C196.995 47.4026 196.541 46.9051 196.229 46.2538C195.916 45.5974 195.759 44.8154 195.759 43.9077C195.759 43.041 195.916 42.2821 196.229 41.6308C196.547 40.9744 197.003 40.4667 197.598 40.1077C198.198 39.7436 198.908 39.5615 199.729 39.5615ZM199.729 41.3538C199.231 41.3538 198.862 41.559 198.621 41.9692C198.385 42.3795 198.267 43.0256 198.267 43.9077C198.267 44.8051 198.385 45.459 198.621 45.8692C198.857 46.2744 199.226 46.4769 199.729 46.4769C200.231 46.4769 200.6 46.2718 200.836 45.8615C201.072 45.4513 201.19 44.7949 201.19 43.8923C201.19 43.0154 201.07 42.3744 200.829 41.9692C200.593 41.559 200.226 41.3538 199.729 41.3538ZM211.457 39.5615C212.042 39.5615 212.473 39.7513 212.749 40.1308C213.026 40.5103 213.165 41.1179 213.165 41.9538V48H211.08V42.2308C211.08 41.9385 211.052 41.7359 210.996 41.6231C210.939 41.5051 210.832 41.4462 210.673 41.4462C210.534 41.4462 210.396 41.4872 210.257 41.5692C210.124 41.6462 209.98 41.7821 209.826 41.9769V48H208.119V42.2308C208.119 41.9385 208.091 41.7359 208.034 41.6231C207.978 41.5051 207.87 41.4462 207.711 41.4462C207.573 41.4462 207.434 41.4872 207.296 41.5692C207.162 41.6462 207.019 41.7821 206.865 41.9769V48H204.749V39.8308H206.534L206.696 40.6231C206.962 40.259 207.226 39.9923 207.488 39.8231C207.749 39.6487 208.055 39.5615 208.403 39.5615C208.721 39.5615 208.985 39.641 209.196 39.8C209.411 39.959 209.565 40.2026 209.657 40.5308C210.216 39.8846 210.816 39.5615 211.457 39.5615ZM34.4077 118.346C34.7205 118.346 35.0205 118.287 35.3077 118.169C35.6 118.046 35.9077 117.872 36.2308 117.646L37.3154 119.185C36.9308 119.513 36.4795 119.774 35.9615 119.969C35.4436 120.164 34.8821 120.262 34.2769 120.262C33.4103 120.262 32.659 120.082 32.0231 119.723C31.3872 119.364 30.9 118.862 30.5615 118.215C30.2231 117.569 30.0538 116.821 30.0538 115.969C30.0538 115.118 30.2282 114.359 30.5769 113.692C30.9256 113.026 31.4205 112.505 32.0615 112.131C32.7077 111.751 33.4615 111.562 34.3231 111.562C34.9333 111.562 35.4795 111.646 35.9615 111.815C36.4487 111.985 36.9 112.241 37.3154 112.585L36.2615 114.046C35.6718 113.636 35.059 113.431 34.4231 113.431C33.8436 113.431 33.3923 113.633 33.0692 114.038C32.7513 114.444 32.5923 115.087 32.5923 115.969C32.5923 116.821 32.7538 117.431 33.0769 117.8C33.4 118.164 33.8436 118.346 34.4077 118.346ZM42.8439 111.562C43.6695 111.562 44.3798 111.741 44.9747 112.1C45.5747 112.454 46.0311 112.956 46.3439 113.608C46.6567 114.259 46.8131 115.021 46.8131 115.892C46.8131 116.8 46.6542 117.582 46.3362 118.238C46.0234 118.89 45.5695 119.39 44.9747 119.738C44.3798 120.087 43.6695 120.262 42.8439 120.262C42.0131 120.262 41.3003 120.09 40.7054 119.746C40.1106 119.403 39.6567 118.905 39.3439 118.254C39.0311 117.597 38.8747 116.815 38.8747 115.908C38.8747 115.041 39.0311 114.282 39.3439 113.631C39.6618 112.974 40.1183 112.467 40.7131 112.108C41.3131 111.744 42.0234 111.562 42.8439 111.562ZM42.8439 113.354C42.3465 113.354 41.9772 113.559 41.7362 113.969C41.5003 114.379 41.3824 115.026 41.3824 115.908C41.3824 116.805 41.5003 117.459 41.7362 117.869C41.9721 118.274 42.3413 118.477 42.8439 118.477C43.3465 118.477 43.7157 118.272 43.9516 117.862C44.1875 117.451 44.3054 116.795 44.3054 115.892C44.3054 115.015 44.1849 114.374 43.9439 113.969C43.708 113.559 43.3413 113.354 42.8439 113.354ZM48.534 120V111.831H50.657L50.8263 112.777C51.1955 112.362 51.5827 112.056 51.9878 111.862C52.3929 111.662 52.8519 111.562 53.3647 111.562C54.0673 111.562 54.616 111.777 55.0109 112.208C55.4109 112.633 55.6109 113.231 55.6109 114V120H53.1801V114.7C53.1801 114.362 53.1545 114.095 53.1032 113.9C53.057 113.705 52.9775 113.567 52.8647 113.485C52.7519 113.397 52.5955 113.354 52.3955 113.354C52.1493 113.354 51.9083 113.433 51.6724 113.592C51.4416 113.746 51.2057 113.977 50.9647 114.285V120H48.534ZM61.0394 118.523C61.4548 118.523 61.783 118.459 62.024 118.331C62.2702 118.197 62.3932 118.005 62.3932 117.754C62.3932 117.574 62.3445 117.428 62.2471 117.315C62.1496 117.197 61.9676 117.087 61.7009 116.985C61.4343 116.877 61.0189 116.746 60.4548 116.592C59.6343 116.372 59.0061 116.069 58.5702 115.685C58.1394 115.3 57.924 114.767 57.924 114.085C57.924 113.592 58.0599 113.156 58.3317 112.777C58.6086 112.397 59.0138 112.1 59.5471 111.885C60.0804 111.669 60.7214 111.562 61.4702 111.562C62.7676 111.562 63.8702 111.892 64.7779 112.554L63.8086 113.985C63.4548 113.769 63.083 113.6 62.6932 113.477C62.3086 113.354 61.924 113.292 61.5394 113.292C61.1445 113.292 60.8496 113.346 60.6548 113.454C60.465 113.556 60.3702 113.713 60.3702 113.923C60.3702 114.067 60.4189 114.187 60.5163 114.285C60.6189 114.382 60.8009 114.482 61.0625 114.585C61.3291 114.687 61.742 114.818 62.3009 114.977C62.8907 115.141 63.3702 115.323 63.7394 115.523C64.1086 115.718 64.3958 115.979 64.6009 116.308C64.8112 116.631 64.9163 117.049 64.9163 117.562C64.9163 118.136 64.742 118.628 64.3932 119.038C64.0496 119.444 63.5855 119.749 63.0009 119.954C62.4163 120.159 61.7676 120.262 61.0548 120.262C60.2907 120.262 59.6035 120.154 58.9932 119.938C58.383 119.718 57.8573 119.415 57.4163 119.031L58.6394 117.662C58.9779 117.928 59.3496 118.138 59.7548 118.292C60.1599 118.446 60.5881 118.523 61.0394 118.523ZM74.3448 119.523C74.0012 119.749 73.6012 119.928 73.1448 120.062C72.6935 120.195 72.2012 120.262 71.6679 120.262C70.6218 120.262 69.8346 119.995 69.3064 119.462C68.7782 118.928 68.5141 118.179 68.5141 117.215V113.508H66.7987V111.831H68.5141V110.062L70.9448 109.769V111.831H73.5756L73.3371 113.508H70.9448V117.215C70.9448 117.621 71.0346 117.91 71.2141 118.085C71.3987 118.259 71.6961 118.346 72.1064 118.346C72.6192 118.346 73.0961 118.223 73.5371 117.977L74.3448 119.523ZM91.3326 111.9H92.6711L89.7249 120H88.2249L85.3019 111.9H86.6711L89.0172 118.823L91.3326 111.9ZM96.1611 116.408C96.1817 117.013 96.2996 117.518 96.515 117.923C96.7304 118.323 97.0124 118.621 97.3611 118.815C97.7099 119.005 98.0996 119.1 98.5304 119.1C98.9304 119.1 99.297 119.041 99.6304 118.923C99.9688 118.805 100.323 118.621 100.692 118.369L101.3 119.223C100.92 119.521 100.484 119.754 99.9919 119.923C99.5047 120.092 99.0124 120.177 98.515 120.177C97.7406 120.177 97.074 120.003 96.515 119.654C95.956 119.305 95.5304 118.813 95.2381 118.177C94.9509 117.541 94.8073 116.803 94.8073 115.962C94.8073 115.146 94.9535 114.418 95.2458 113.777C95.5381 113.136 95.9509 112.636 96.4842 112.277C97.0176 111.913 97.6381 111.731 98.3458 111.731C99.0227 111.731 99.6073 111.89 100.1 112.208C100.597 112.526 100.977 112.985 101.238 113.585C101.505 114.179 101.638 114.885 101.638 115.7C101.638 115.936 101.628 116.172 101.607 116.408H96.1611ZM98.3611 112.792C97.7355 112.792 97.2253 113.013 96.8304 113.454C96.4406 113.89 96.2201 114.541 96.1688 115.408H100.392C100.377 114.556 100.189 113.908 99.8304 113.462C99.4714 113.015 98.9817 112.792 98.3611 112.792ZM109.844 111.723C110.054 111.723 110.246 111.738 110.42 111.769C110.595 111.795 110.785 111.838 110.99 111.9L110.805 114.638H109.744V112.915H109.674C109.049 112.915 108.515 113.136 108.074 113.577C107.633 114.018 107.277 114.685 107.005 115.577V119.008H108.651V120H104.451V119.008H105.713V112.892H104.451V111.9H106.697L106.936 113.815C107.264 113.113 107.654 112.59 108.105 112.246C108.561 111.897 109.141 111.723 109.844 111.723ZM116.672 108.108C116.954 108.108 117.182 108.195 117.357 108.369C117.531 108.538 117.618 108.751 117.618 109.008C117.618 109.274 117.531 109.495 117.357 109.669C117.182 109.844 116.954 109.931 116.672 109.931C116.4 109.931 116.177 109.844 116.003 109.669C115.828 109.49 115.741 109.269 115.741 109.008C115.741 108.751 115.828 108.538 116.003 108.369C116.177 108.195 116.4 108.108 116.672 108.108ZM113.987 111.9H117.703V118.977H119.987V120H113.91V118.977H116.41V112.923H113.987V111.9ZM127.616 108.477C128.036 108.477 128.424 108.515 128.777 108.592C129.131 108.664 129.475 108.772 129.808 108.915L129.393 109.877C128.89 109.651 128.311 109.538 127.654 109.538C126.521 109.538 125.954 109.987 125.954 110.885V112.531H128.701L128.562 113.546H125.954V120H124.662V113.546H122.731V112.531H124.662V110.915C124.662 110.428 124.79 110 125.047 109.631C125.303 109.262 125.654 108.977 126.101 108.777C126.547 108.577 127.052 108.477 127.616 108.477ZM135.129 108.669C135.411 108.669 135.639 108.756 135.814 108.931C135.988 109.1 136.075 109.313 136.075 109.569C136.075 109.836 135.988 110.056 135.814 110.231C135.644 110.405 135.416 110.492 135.129 110.492C134.857 110.492 134.634 110.405 134.46 110.231C134.285 110.056 134.198 109.836 134.198 109.569C134.198 109.313 134.285 109.1 134.46 108.931C134.634 108.756 134.857 108.669 135.129 108.669ZM132.444 112.531H136.16V118.977H138.444V120H132.368V118.977H134.868V113.546H132.444V112.531ZM144.95 119.062C145.673 119.062 146.376 118.826 147.058 118.354L147.688 119.2C147.334 119.497 146.909 119.736 146.411 119.915C145.914 120.09 145.427 120.177 144.95 120.177C144.155 120.177 143.47 120.005 142.896 119.662C142.327 119.318 141.893 118.831 141.596 118.2C141.299 117.569 141.15 116.831 141.15 115.985C141.15 115.169 141.301 114.441 141.604 113.8C141.906 113.154 142.345 112.649 142.919 112.285C143.493 111.915 144.176 111.731 144.965 111.731C145.996 111.731 146.899 112.044 147.673 112.669L147.042 113.531C146.345 113.049 145.647 112.808 144.95 112.808C144.473 112.808 144.055 112.926 143.696 113.162C143.337 113.397 143.055 113.754 142.85 114.231C142.65 114.708 142.55 115.292 142.55 115.985C142.55 117.021 142.765 117.792 143.196 118.3C143.632 118.808 144.217 119.062 144.95 119.062ZM156.317 118.231C156.317 118.549 156.368 118.785 156.471 118.938C156.573 119.087 156.742 119.197 156.978 119.269L156.663 120.177C155.884 120.074 155.389 119.695 155.178 119.038C154.891 119.413 154.527 119.697 154.086 119.892C153.65 120.082 153.168 120.177 152.64 120.177C152.107 120.177 151.642 120.074 151.248 119.869C150.853 119.664 150.55 119.374 150.34 119C150.13 118.621 150.025 118.179 150.025 117.677C150.025 116.841 150.35 116.2 151.001 115.754C151.653 115.308 152.594 115.085 153.825 115.085H155.017V114.408C155.017 113.844 154.853 113.436 154.525 113.185C154.196 112.928 153.717 112.8 153.086 112.8C152.476 112.8 151.773 112.938 150.978 113.215L150.64 112.238C151.542 111.9 152.425 111.731 153.286 111.731C154.276 111.731 155.027 111.964 155.54 112.431C156.058 112.892 156.317 113.531 156.317 114.346V118.231ZM152.971 119.192C153.371 119.192 153.75 119.092 154.109 118.892C154.473 118.687 154.776 118.405 155.017 118.046V115.962H153.848C152.991 115.962 152.371 116.108 151.986 116.4C151.601 116.692 151.409 117.113 151.409 117.662C151.409 118.682 151.93 119.192 152.971 119.192ZM166.176 119.592C165.904 119.772 165.568 119.913 165.168 120.015C164.774 120.123 164.386 120.177 164.007 120.177C163.438 120.177 162.948 120.074 162.538 119.869C162.133 119.659 161.822 119.369 161.607 119C161.392 118.631 161.284 118.208 161.284 117.731V112.9H159.422V111.9H161.284V110.062L162.576 109.908V111.9H165.376L165.222 112.9H162.576V117.715C162.576 118.177 162.697 118.523 162.938 118.754C163.184 118.985 163.579 119.1 164.122 119.1C164.671 119.1 165.189 118.972 165.676 118.715L166.176 119.592ZM172.043 108.108C172.325 108.108 172.553 108.195 172.728 108.369C172.902 108.538 172.989 108.751 172.989 109.008C172.989 109.274 172.902 109.495 172.728 109.669C172.553 109.844 172.325 109.931 172.043 109.931C171.771 109.931 171.548 109.844 171.374 109.669C171.2 109.49 171.112 109.269 171.112 109.008C171.112 108.751 171.2 108.538 171.374 108.369C171.548 108.195 171.771 108.108 172.043 108.108ZM169.359 111.9H173.074V118.977H175.359V120H169.282V118.977H171.782V112.923H169.359V111.9ZM181.287 111.731C182.036 111.731 182.669 111.903 183.187 112.246C183.705 112.585 184.095 113.072 184.356 113.708C184.623 114.338 184.756 115.085 184.756 115.946C184.756 116.782 184.62 117.518 184.349 118.154C184.082 118.79 183.687 119.287 183.164 119.646C182.641 120 182.01 120.177 181.272 120.177C180.523 120.177 179.887 120.005 179.364 119.662C178.846 119.313 178.454 118.823 178.187 118.192C177.92 117.562 177.787 116.818 177.787 115.962C177.787 115.121 177.92 114.382 178.187 113.746C178.459 113.11 178.856 112.615 179.379 112.262C179.908 111.908 180.543 111.731 181.287 111.731ZM181.287 112.785C180.584 112.785 180.056 113.046 179.702 113.569C179.349 114.087 179.172 114.885 179.172 115.962C179.172 117.023 179.346 117.815 179.695 118.338C180.043 118.856 180.569 119.115 181.272 119.115C181.974 119.115 182.5 118.856 182.849 118.338C183.197 117.815 183.372 117.018 183.372 115.946C183.372 114.879 183.197 114.087 182.849 113.569C182.5 113.046 181.979 112.785 181.287 112.785ZM187.431 120V111.9H188.531L188.631 113.023C188.954 112.618 189.359 112.303 189.846 112.077C190.339 111.846 190.826 111.731 191.308 111.731C192.082 111.731 192.654 111.936 193.023 112.346C193.398 112.756 193.585 113.346 193.585 114.115V120H192.292V115.069C192.292 114.464 192.259 114.003 192.192 113.685C192.131 113.367 192 113.131 191.8 112.977C191.605 112.823 191.308 112.746 190.908 112.746C190.472 112.746 190.059 112.882 189.669 113.154C189.285 113.421 188.969 113.736 188.723 114.1V120H187.431ZM196.698 109.408H202.759V110.477H200.406V118.931H202.759V120H196.698V118.931H199.052V110.477H196.698V109.408ZM209.549 119.062C210.273 119.062 210.975 118.826 211.657 118.354L212.288 119.2C211.934 119.497 211.508 119.736 211.011 119.915C210.514 120.09 210.026 120.177 209.549 120.177C208.755 120.177 208.07 120.005 207.496 119.662C206.926 119.318 206.493 118.831 206.196 118.2C205.898 117.569 205.749 116.831 205.749 115.985C205.749 115.169 205.901 114.441 206.203 113.8C206.506 113.154 206.944 112.649 207.519 112.285C208.093 111.915 208.775 111.731 209.565 111.731C210.596 111.731 211.498 112.044 212.273 112.669L211.642 113.531C210.944 113.049 210.247 112.808 209.549 112.808C209.073 112.808 208.655 112.926 208.296 113.162C207.937 113.397 207.655 113.754 207.449 114.231C207.249 114.708 207.149 115.292 207.149 115.985C207.149 117.021 207.365 117.792 207.796 118.3C208.232 118.808 208.816 119.062 209.549 119.062ZM218.201 111.731C218.95 111.731 219.583 111.903 220.101 112.246C220.619 112.585 221.009 113.072 221.27 113.708C221.537 114.338 221.67 115.085 221.67 115.946C221.67 116.782 221.534 117.518 221.263 118.154C220.996 118.79 220.601 119.287 220.078 119.646C219.555 120 218.924 120.177 218.186 120.177C217.437 120.177 216.801 120.005 216.278 119.662C215.76 119.313 215.368 118.823 215.101 118.192C214.834 117.562 214.701 116.818 214.701 115.962C214.701 115.121 214.834 114.382 215.101 113.746C215.373 113.11 215.77 112.615 216.293 112.262C216.822 111.908 217.457 111.731 218.201 111.731ZM218.201 112.785C217.499 112.785 216.97 113.046 216.616 113.569C216.263 114.087 216.086 114.885 216.086 115.962C216.086 117.023 216.26 117.815 216.609 118.338C216.957 118.856 217.483 119.115 218.186 119.115C218.888 119.115 219.414 118.856 219.763 118.338C220.111 117.815 220.286 117.018 220.286 115.946C220.286 114.879 220.111 114.087 219.763 113.569C219.414 113.046 218.893 112.785 218.201 112.785ZM224.345 120V111.9H225.445L225.545 113.023C225.868 112.618 226.273 112.303 226.76 112.077C227.253 111.846 227.74 111.731 228.222 111.731C228.996 111.731 229.568 111.936 229.937 112.346C230.312 112.756 230.499 113.346 230.499 114.115V120H229.207V115.069C229.207 114.464 229.173 114.003 229.107 113.685C229.045 113.367 228.914 113.131 228.714 112.977C228.519 112.823 228.222 112.746 227.822 112.746C227.386 112.746 226.973 112.882 226.583 113.154C226.199 113.421 225.883 113.736 225.637 114.1V120H224.345ZM267.667 117.646C267.667 117.949 267.708 118.172 267.79 118.315C267.872 118.454 268.01 118.559 268.205 118.631L267.705 120.231C267.208 120.185 266.795 120.077 266.467 119.908C266.144 119.733 265.89 119.482 265.705 119.154C265.403 119.518 265.01 119.795 264.528 119.985C264.051 120.169 263.546 120.262 263.013 120.262C262.459 120.262 261.972 120.154 261.551 119.938C261.136 119.718 260.815 119.415 260.59 119.031C260.364 118.641 260.251 118.195 260.251 117.692C260.251 117.108 260.408 116.608 260.721 116.192C261.033 115.777 261.487 115.462 262.082 115.246C262.677 115.026 263.392 114.915 264.228 114.915H265.328V114.608C265.328 113.772 264.79 113.354 263.713 113.354C263.441 113.354 263.098 113.392 262.682 113.469C262.272 113.546 261.869 113.651 261.474 113.785L260.913 112.169C261.426 111.974 261.967 111.826 262.536 111.723C263.105 111.615 263.626 111.562 264.098 111.562C265.298 111.562 266.192 111.805 266.782 112.292C267.372 112.779 267.667 113.497 267.667 114.446V117.646ZM263.851 118.523C264.128 118.523 264.408 118.444 264.69 118.285C264.972 118.121 265.185 117.9 265.328 117.623V116.3H264.728C264.062 116.3 263.567 116.403 263.244 116.608C262.921 116.813 262.759 117.118 262.759 117.523C262.759 117.841 262.854 118.087 263.044 118.262C263.239 118.436 263.508 118.523 263.851 118.523ZM278.118 111.831L276.957 120H274.272L273.572 114.508L272.841 120H270.203L268.995 111.831H271.218L271.749 118.485L272.611 112.862H274.657L275.426 118.485L275.972 111.831H278.118ZM286.124 117.646C286.124 117.949 286.165 118.172 286.247 118.315C286.329 118.454 286.467 118.559 286.662 118.631L286.162 120.231C285.665 120.185 285.252 120.077 284.924 119.908C284.601 119.733 284.347 119.482 284.162 119.154C283.86 119.518 283.467 119.795 282.985 119.985C282.508 120.169 282.003 120.262 281.47 120.262C280.916 120.262 280.429 120.154 280.008 119.938C279.593 119.718 279.272 119.415 279.047 119.031C278.821 118.641 278.708 118.195 278.708 117.692C278.708 117.108 278.865 116.608 279.178 116.192C279.49 115.777 279.944 115.462 280.539 115.246C281.134 115.026 281.849 114.915 282.685 114.915H283.785V114.608C283.785 113.772 283.247 113.354 282.17 113.354C281.898 113.354 281.555 113.392 281.139 113.469C280.729 113.546 280.326 113.651 279.931 113.785L279.37 112.169C279.883 111.974 280.424 111.826 280.993 111.723C281.562 111.615 282.083 111.562 282.555 111.562C283.755 111.562 284.649 111.805 285.239 112.292C285.829 112.779 286.124 113.497 286.124 114.446V117.646ZM282.308 118.523C282.585 118.523 282.865 118.444 283.147 118.285C283.429 118.121 283.642 117.9 283.785 117.623V116.3H283.185C282.519 116.3 282.024 116.403 281.701 116.608C281.378 116.813 281.216 117.118 281.216 117.523C281.216 117.841 281.311 118.087 281.501 118.262C281.696 118.436 281.965 118.523 282.308 118.523ZM291.998 107.554C292.275 107.554 292.522 107.615 292.737 107.738C292.952 107.856 293.122 108.021 293.245 108.231C293.368 108.436 293.429 108.667 293.429 108.923C293.429 109.179 293.368 109.413 293.245 109.623C293.122 109.833 292.95 110 292.729 110.123C292.514 110.241 292.27 110.3 291.998 110.3C291.722 110.3 291.473 110.241 291.252 110.123C291.032 110 290.86 109.833 290.737 109.623C290.614 109.413 290.552 109.179 290.552 108.923C290.552 108.667 290.614 108.436 290.737 108.231C290.86 108.021 291.032 107.856 291.252 107.738C291.473 107.615 291.722 107.554 291.998 107.554ZM288.798 111.831H293.468V118.338H295.545V120H288.722V118.338H291.037V113.492H288.798V111.831ZM305.058 119.523C304.714 119.749 304.314 119.928 303.858 120.062C303.406 120.195 302.914 120.262 302.381 120.262C301.335 120.262 300.547 119.995 300.019 119.462C299.491 118.928 299.227 118.179 299.227 117.215V113.508H297.512V111.831H299.227V110.062L301.658 109.769V111.831H304.288L304.05 113.508H301.658V117.215C301.658 117.621 301.747 117.91 301.927 118.085C302.112 118.259 302.409 118.346 302.819 118.346C303.332 118.346 303.809 118.223 304.25 117.977L305.058 119.523ZM319.699 108.108C319.981 108.108 320.21 108.195 320.384 108.369C320.558 108.538 320.646 108.751 320.646 109.008C320.646 109.274 320.558 109.495 320.384 109.669C320.21 109.844 319.981 109.931 319.699 109.931C319.428 109.931 319.204 109.844 319.03 109.669C318.856 109.49 318.769 109.269 318.769 109.008C318.769 108.751 318.856 108.538 319.03 108.369C319.204 108.195 319.428 108.108 319.699 108.108ZM317.015 111.9H320.73V118.977H323.015V120H316.938V118.977H319.438V112.923H317.015V111.9ZM329.52 119.062C330.243 119.062 330.946 118.826 331.628 118.354L332.259 119.2C331.905 119.497 331.479 119.736 330.982 119.915C330.484 120.09 329.997 120.177 329.52 120.177C328.725 120.177 328.041 120.005 327.466 119.662C326.897 119.318 326.464 118.831 326.166 118.2C325.869 117.569 325.72 116.831 325.72 115.985C325.72 115.169 325.871 114.441 326.174 113.8C326.477 113.154 326.915 112.649 327.489 112.285C328.064 111.915 328.746 111.731 329.536 111.731C330.566 111.731 331.469 112.044 332.243 112.669L331.612 113.531C330.915 113.049 330.218 112.808 329.52 112.808C329.043 112.808 328.625 112.926 328.266 113.162C327.907 113.397 327.625 113.754 327.42 114.231C327.22 114.708 327.12 115.292 327.12 115.985C327.12 117.021 327.336 117.792 327.766 118.3C328.202 118.808 328.787 119.062 329.52 119.062ZM338.172 111.731C338.921 111.731 339.554 111.903 340.072 112.246C340.59 112.585 340.979 113.072 341.241 113.708C341.508 114.338 341.641 115.085 341.641 115.946C341.641 116.782 341.505 117.518 341.233 118.154C340.967 118.79 340.572 119.287 340.049 119.646C339.526 120 338.895 120.177 338.156 120.177C337.408 120.177 336.772 120.005 336.249 119.662C335.731 119.313 335.338 118.823 335.072 118.192C334.805 117.562 334.672 116.818 334.672 115.962C334.672 115.121 334.805 114.382 335.072 113.746C335.344 113.11 335.741 112.615 336.264 112.262C336.792 111.908 337.428 111.731 338.172 111.731ZM338.172 112.785C337.469 112.785 336.941 113.046 336.587 113.569C336.233 114.087 336.056 114.885 336.056 115.962C336.056 117.023 336.231 117.815 336.579 118.338C336.928 118.856 337.454 119.115 338.156 119.115C338.859 119.115 339.385 118.856 339.733 118.338C340.082 117.815 340.256 117.018 340.256 115.946C340.256 114.879 340.082 114.087 339.733 113.569C339.385 113.046 338.864 112.785 338.172 112.785ZM344.316 120V111.9H345.416L345.516 113.023C345.839 112.618 346.244 112.303 346.731 112.077C347.223 111.846 347.711 111.731 348.193 111.731C348.967 111.731 349.539 111.936 349.908 112.346C350.282 112.756 350.47 113.346 350.47 114.115V120H349.177V115.069C349.177 114.464 349.144 114.003 349.077 113.685C349.016 113.367 348.885 113.131 348.685 112.977C348.49 112.823 348.193 112.746 347.793 112.746C347.357 112.746 346.944 112.882 346.554 113.154C346.17 113.421 345.854 113.736 345.608 114.1V120H344.316ZM56.4186 129.9L55.0032 138H53.1724L52.1263 132.054L50.9878 138H49.2032L47.7263 129.9H49.0493L50.0801 137.2L51.3724 130.931H52.9032L54.1263 137.2L55.157 129.9H56.4186ZM64.0317 136.231C64.0317 136.549 64.083 136.785 64.1855 136.938C64.2881 137.087 64.4573 137.197 64.6932 137.269L64.3779 138.177C63.5984 138.074 63.1035 137.695 62.8932 137.038C62.6061 137.413 62.242 137.697 61.8009 137.892C61.365 138.082 60.883 138.177 60.3548 138.177C59.8214 138.177 59.3573 138.074 58.9625 137.869C58.5676 137.664 58.265 137.374 58.0548 137C57.8445 136.621 57.7394 136.179 57.7394 135.677C57.7394 134.841 58.065 134.2 58.7163 133.754C59.3676 133.308 60.3086 133.085 61.5394 133.085H62.7317V132.408C62.7317 131.844 62.5676 131.436 62.2394 131.185C61.9112 130.928 61.4317 130.8 60.8009 130.8C60.1907 130.8 59.4881 130.938 58.6932 131.215L58.3548 130.238C59.2573 129.9 60.1394 129.731 61.0009 129.731C61.9907 129.731 62.742 129.964 63.2548 130.431C63.7727 130.892 64.0317 131.531 64.0317 132.346V136.231ZM60.6855 137.192C61.0855 137.192 61.465 137.092 61.824 136.892C62.1881 136.687 62.4907 136.405 62.7317 136.046V133.962H61.5625C60.7061 133.962 60.0855 134.108 59.7009 134.4C59.3163 134.692 59.124 135.113 59.124 135.662C59.124 136.682 59.6445 137.192 60.6855 137.192ZM70.6141 136C70.6141 136.379 70.732 136.659 70.9679 136.838C71.2089 137.013 71.5371 137.1 71.9525 137.1C72.3884 137.1 72.8423 137.005 73.3141 136.815L73.6602 137.762C73.4141 137.885 73.1269 137.985 72.7987 138.062C72.4705 138.138 72.1166 138.177 71.7371 138.177C71.2602 138.177 70.8371 138.087 70.4679 137.908C70.1038 137.728 69.8218 137.469 69.6218 137.131C69.4218 136.792 69.3218 136.392 69.3218 135.931V127.662H66.8371V126.638H70.6141V136ZM79.8426 136C79.8426 136.379 79.9605 136.659 80.1964 136.838C80.4374 137.013 80.7657 137.1 81.181 137.1C81.6169 137.1 82.0708 137.005 82.5426 136.815L82.8887 137.762C82.6426 137.885 82.3554 137.985 82.0272 138.062C81.699 138.138 81.3451 138.177 80.9657 138.177C80.4887 138.177 80.0657 138.087 79.6964 137.908C79.3323 137.728 79.0503 137.469 78.8503 137.131C78.6503 136.792 78.5503 136.392 78.5503 135.931V127.662H76.0657V126.638H79.8426V136ZM86.9326 134.408C86.9531 135.013 87.0711 135.518 87.2865 135.923C87.5019 136.323 87.7839 136.621 88.1326 136.815C88.4814 137.005 88.8711 137.1 89.3019 137.1C89.7019 137.1 90.0685 137.041 90.4019 136.923C90.7403 136.805 91.0942 136.621 91.4634 136.369L92.0711 137.223C91.6916 137.521 91.2557 137.754 90.7634 137.923C90.2762 138.092 89.7839 138.177 89.2865 138.177C88.5121 138.177 87.8455 138.003 87.2865 137.654C86.7275 137.305 86.3019 136.813 86.0096 136.177C85.7224 135.541 85.5788 134.803 85.5788 133.962C85.5788 133.146 85.7249 132.418 86.0172 131.777C86.3096 131.136 86.7224 130.636 87.2557 130.277C87.789 129.913 88.4096 129.731 89.1172 129.731C89.7942 129.731 90.3788 129.89 90.8711 130.208C91.3685 130.526 91.748 130.985 92.0096 131.585C92.2762 132.179 92.4096 132.885 92.4096 133.7C92.4096 133.936 92.3993 134.172 92.3788 134.408H86.9326ZM89.1326 130.792C88.507 130.792 87.9967 131.013 87.6019 131.454C87.2121 131.89 86.9916 132.541 86.9403 133.408H91.1634C91.148 132.556 90.9608 131.908 90.6019 131.462C90.2429 131.015 89.7531 130.792 89.1326 130.792ZM101.577 137.592C101.305 137.772 100.969 137.913 100.569 138.015C100.174 138.123 99.7868 138.177 99.4073 138.177C98.8381 138.177 98.3483 138.074 97.9381 137.869C97.5329 137.659 97.2227 137.369 97.0073 137C96.7919 136.631 96.6842 136.208 96.6842 135.731V130.9H94.8227V129.9H96.6842V128.062L97.9765 127.908V129.9H100.777L100.623 130.9H97.9765V135.715C97.9765 136.177 98.097 136.523 98.3381 136.754C98.5842 136.985 98.9791 137.1 99.5227 137.1C100.071 137.1 100.589 136.972 101.077 136.715L101.577 137.592ZM110.344 138L109.497 135.3H105.305L104.459 138H103.144L106.59 127.408H108.297L111.744 138H110.344ZM107.413 128.531L105.651 134.192H109.151L107.413 128.531ZM118.449 126.477L119.741 126.638V138H118.61L118.487 136.931C118.19 137.351 117.846 137.664 117.457 137.869C117.067 138.074 116.644 138.177 116.187 138.177C115.162 138.177 114.39 137.8 113.872 137.046C113.359 136.292 113.103 135.264 113.103 133.962C113.103 133.146 113.228 132.418 113.48 131.777C113.736 131.136 114.103 130.636 114.58 130.277C115.062 129.913 115.628 129.731 116.28 129.731C116.741 129.731 117.149 129.81 117.503 129.969C117.862 130.128 118.177 130.367 118.449 130.685V126.477ZM116.618 130.769C115.936 130.769 115.413 131.038 115.049 131.577C114.69 132.11 114.51 132.905 114.51 133.962C114.51 135.008 114.675 135.797 115.003 136.331C115.336 136.864 115.821 137.131 116.457 137.131C117.221 137.131 117.885 136.705 118.449 135.854V131.808C118.228 131.479 117.959 131.226 117.641 131.046C117.328 130.862 116.987 130.769 116.618 130.769ZM127.677 126.477L128.97 126.638V138H127.839L127.716 136.931C127.418 137.351 127.075 137.664 126.685 137.869C126.295 138.074 125.872 138.177 125.416 138.177C124.39 138.177 123.618 137.8 123.101 137.046C122.588 136.292 122.331 135.264 122.331 133.962C122.331 133.146 122.457 132.418 122.708 131.777C122.965 131.136 123.331 130.636 123.808 130.277C124.29 129.913 124.857 129.731 125.508 129.731C125.97 129.731 126.377 129.81 126.731 129.969C127.09 130.128 127.406 130.367 127.677 130.685V126.477ZM125.847 130.769C125.165 130.769 124.642 131.038 124.277 131.577C123.918 132.11 123.739 132.905 123.739 133.962C123.739 135.008 123.903 135.797 124.231 136.331C124.565 136.864 125.049 137.131 125.685 137.131C126.449 137.131 127.113 136.705 127.677 135.854V131.808C127.457 131.479 127.188 131.226 126.87 131.046C126.557 130.862 126.216 130.769 125.847 130.769ZM137.529 129.723C137.739 129.723 137.932 129.738 138.106 129.769C138.28 129.795 138.47 129.838 138.675 129.9L138.491 132.638H137.429V130.915H137.36C136.734 130.915 136.201 131.136 135.76 131.577C135.319 132.018 134.962 132.685 134.691 133.577V137.008H136.337V138H132.137V137.008H133.398V130.892H132.137V129.9H134.383L134.621 131.815C134.95 131.113 135.339 130.59 135.791 130.246C136.247 129.897 136.826 129.723 137.529 129.723ZM142.304 134.408C142.324 135.013 142.442 135.518 142.658 135.923C142.873 136.323 143.155 136.621 143.504 136.815C143.852 137.005 144.242 137.1 144.673 137.1C145.073 137.1 145.44 137.041 145.773 136.923C146.111 136.805 146.465 136.621 146.834 136.369L147.442 137.223C147.063 137.521 146.627 137.754 146.134 137.923C145.647 138.092 145.155 138.177 144.658 138.177C143.883 138.177 143.217 138.003 142.658 137.654C142.099 137.305 141.673 136.813 141.381 136.177C141.093 135.541 140.95 134.803 140.95 133.962C140.95 133.146 141.096 132.418 141.388 131.777C141.681 131.136 142.093 130.636 142.627 130.277C143.16 129.913 143.781 129.731 144.488 129.731C145.165 129.731 145.75 129.89 146.242 130.208C146.74 130.526 147.119 130.985 147.381 131.585C147.647 132.179 147.781 132.885 147.781 133.7C147.781 133.936 147.77 134.172 147.75 134.408H142.304ZM144.504 130.792C143.878 130.792 143.368 131.013 142.973 131.454C142.583 131.89 142.363 132.541 142.311 133.408H146.534C146.519 132.556 146.332 131.908 145.973 131.462C145.614 131.015 145.124 130.792 144.504 130.792ZM153.271 137.108C153.891 137.108 154.381 136.992 154.74 136.762C155.104 136.531 155.286 136.218 155.286 135.823C155.286 135.556 155.237 135.338 155.14 135.169C155.048 134.995 154.86 134.836 154.578 134.692C154.301 134.549 153.884 134.408 153.325 134.269C152.704 134.115 152.196 133.949 151.801 133.769C151.412 133.585 151.107 133.346 150.886 133.054C150.671 132.762 150.563 132.39 150.563 131.938C150.563 131.492 150.691 131.103 150.948 130.769C151.204 130.436 151.563 130.179 152.025 130C152.491 129.821 153.03 129.731 153.64 129.731C154.25 129.731 154.799 129.813 155.286 129.977C155.778 130.136 156.209 130.351 156.578 130.623L156.009 131.5C155.671 131.269 155.314 131.092 154.94 130.969C154.571 130.841 154.142 130.777 153.655 130.777C153.045 130.777 152.599 130.872 152.317 131.062C152.04 131.246 151.901 131.505 151.901 131.838C151.901 132.079 151.966 132.277 152.094 132.431C152.227 132.585 152.44 132.723 152.732 132.846C153.03 132.964 153.471 133.103 154.055 133.262C154.64 133.421 155.119 133.597 155.494 133.792C155.868 133.987 156.16 134.244 156.371 134.562C156.581 134.874 156.686 135.274 156.686 135.762C156.686 136.31 156.527 136.767 156.209 137.131C155.891 137.49 155.473 137.754 154.955 137.923C154.442 138.092 153.881 138.177 153.271 138.177C151.999 138.177 150.942 137.813 150.101 137.085L150.84 136.231C151.168 136.508 151.54 136.723 151.955 136.877C152.371 137.031 152.809 137.108 153.271 137.108ZM162.499 137.108C163.12 137.108 163.609 136.992 163.968 136.762C164.333 136.531 164.515 136.218 164.515 135.823C164.515 135.556 164.466 135.338 164.368 135.169C164.276 134.995 164.089 134.836 163.807 134.692C163.53 134.549 163.112 134.408 162.553 134.269C161.933 134.115 161.425 133.949 161.03 133.769C160.64 133.585 160.335 133.346 160.115 133.054C159.899 132.762 159.792 132.39 159.792 131.938C159.792 131.492 159.92 131.103 160.176 130.769C160.433 130.436 160.792 130.179 161.253 130C161.72 129.821 162.258 129.731 162.868 129.731C163.479 129.731 164.027 129.813 164.515 129.977C165.007 130.136 165.438 130.351 165.807 130.623L165.238 131.5C164.899 131.269 164.543 131.092 164.168 130.969C163.799 130.841 163.371 130.777 162.884 130.777C162.274 130.777 161.827 130.872 161.545 131.062C161.268 131.246 161.13 131.505 161.13 131.838C161.13 132.079 161.194 132.277 161.322 132.431C161.456 132.585 161.668 132.723 161.961 132.846C162.258 132.964 162.699 133.103 163.284 133.262C163.868 133.421 164.348 133.597 164.722 133.792C165.097 133.987 165.389 134.244 165.599 134.562C165.809 134.874 165.915 135.274 165.915 135.762C165.915 136.31 165.756 136.767 165.438 137.131C165.12 137.49 164.702 137.754 164.184 137.923C163.671 138.092 163.109 138.177 162.499 138.177C161.227 138.177 160.171 137.813 159.33 137.085L160.068 136.231C160.397 136.508 160.768 136.723 161.184 136.877C161.599 137.031 162.038 137.108 162.499 137.108Z" fill="white"/>
<path d="M100.546 36.1615C99.9201 36.1615 99.4304 36.2564 99.0765 36.4462C98.7227 36.6359 98.5663 36.9513 98.6073 37.3923L98.9304 40.5462C98.9458 40.6744 98.9535 40.8 98.9535 40.9231C98.9535 41.4256 98.8304 41.8128 98.5842 42.0846C98.3432 42.3513 97.9791 42.5282 97.4919 42.6154C97.9894 42.7026 98.356 42.8744 98.5919 43.1308C98.8329 43.3821 98.9535 43.7615 98.9535 44.2692C98.9535 44.3974 98.9458 44.5359 98.9304 44.6846L98.6073 47.8385C98.6022 47.8692 98.5996 47.9128 98.5996 47.9692C98.5996 48.7026 99.2483 49.0692 100.546 49.0692V50.0846C99.6176 50.0846 98.8611 49.9256 98.2765 49.6077C97.697 49.2949 97.4073 48.7615 97.4073 48.0077C97.4073 47.8692 97.4124 47.7615 97.4227 47.6846L97.7304 44.7615C97.7406 44.6897 97.7458 44.5872 97.7458 44.4538C97.7458 44.1513 97.6765 43.9051 97.5381 43.7154C97.3996 43.5256 97.1586 43.3821 96.815 43.2846C96.4765 43.1821 96.0073 43.1308 95.4073 43.1308V42.1C96.0073 42.1 96.4765 42.0513 96.815 41.9538C97.1586 41.8564 97.3996 41.7128 97.5381 41.5231C97.6765 41.3333 97.7458 41.0897 97.7458 40.7923C97.7458 40.659 97.7406 40.5564 97.7304 40.4846L97.4227 37.5462C97.4124 37.4692 97.4073 37.3615 97.4073 37.2231C97.4073 36.4692 97.697 35.9359 98.2765 35.6231C98.8611 35.3051 99.6176 35.1462 100.546 35.1462V36.1615ZM160.484 35.1462C161.412 35.1462 162.166 35.3051 162.745 35.6231C163.33 35.9359 163.622 36.4692 163.622 37.2231C163.622 37.3615 163.617 37.4692 163.607 37.5462L163.299 40.4846C163.289 40.5974 163.284 40.6821 163.284 40.7385C163.284 41.1949 163.463 41.5359 163.822 41.7615C164.181 41.9872 164.781 42.1 165.622 42.1V43.1308C164.786 43.1308 164.186 43.2462 163.822 43.4769C163.463 43.7026 163.284 44.0462 163.284 44.5077C163.284 44.5641 163.289 44.6487 163.299 44.7615L163.607 47.6846C163.617 47.7615 163.622 47.8692 163.622 48.0077C163.622 48.7615 163.33 49.2949 162.745 49.6077C162.166 49.9256 161.412 50.0846 160.484 50.0846V49.0692C161.853 49.0692 162.499 48.659 162.422 47.8385L162.099 44.6846C162.084 44.5359 162.076 44.3974 162.076 44.2692C162.076 43.7513 162.204 43.3692 162.461 43.1231C162.717 42.8769 163.133 42.7128 163.707 42.6308C163.148 42.5385 162.735 42.3564 162.468 42.0846C162.207 41.8128 162.076 41.4231 162.076 40.9154C162.076 40.7974 162.084 40.6744 162.099 40.5462L162.422 37.3923C162.427 37.3615 162.43 37.3179 162.43 37.2615C162.43 36.8667 162.253 36.5846 161.899 36.4154C161.551 36.2462 161.079 36.1615 160.484 36.1615V35.1462ZM226.699 40.6385H225.56L225.314 36.6385H226.937L226.699 40.6385ZM229.268 40.6385H228.13L227.899 36.6385H229.514L229.268 40.6385ZM239.373 46.2308C239.373 46.5487 239.425 46.7846 239.527 46.9385C239.63 47.0872 239.799 47.1974 240.035 47.2692L239.72 48.1769C238.94 48.0744 238.445 47.6949 238.235 47.0385C237.948 47.4128 237.584 47.6974 237.143 47.8923C236.707 48.0821 236.225 48.1769 235.697 48.1769C235.163 48.1769 234.699 48.0744 234.304 47.8692C233.909 47.6641 233.607 47.3744 233.397 47C233.186 46.6205 233.081 46.1795 233.081 45.6769C233.081 44.841 233.407 44.2 234.058 43.7538C234.709 43.3077 235.65 43.0846 236.881 43.0846H238.073V42.4077C238.073 41.8436 237.909 41.4359 237.581 41.1846C237.253 40.9282 236.773 40.8 236.143 40.8C235.532 40.8 234.83 40.9385 234.035 41.2154L233.697 40.2385C234.599 39.9 235.481 39.7308 236.343 39.7308C237.332 39.7308 238.084 39.9641 238.597 40.4308C239.115 40.8923 239.373 41.5308 239.373 42.3462V46.2308ZM236.027 47.1923C236.427 47.1923 236.807 47.0923 237.166 46.8923C237.53 46.6872 237.832 46.4051 238.073 46.0462V43.9615H236.904C236.048 43.9615 235.427 44.1077 235.043 44.4C234.658 44.6923 234.466 45.1128 234.466 45.6615C234.466 46.6821 234.986 47.1923 236.027 47.1923ZM248.271 39.7231C248.482 39.7231 248.674 39.7385 248.848 39.7692C249.023 39.7949 249.212 39.8385 249.417 39.9L249.233 42.6385H248.171V40.9154H248.102C247.476 40.9154 246.943 41.1359 246.502 41.5769C246.061 42.0179 245.705 42.6846 245.433 43.5769V47.0077H247.079V48H242.879V47.0077H244.14V40.8923H242.879V39.9H245.125L245.364 41.8154C245.692 41.1128 246.082 40.5897 246.533 40.2462C246.989 39.8974 247.569 39.7231 248.271 39.7231ZM257.446 39.9H258.784L255.838 48H254.338L251.415 39.9H252.784L255.131 46.8231L257.446 39.9ZM262.274 44.4077C262.295 45.0128 262.413 45.5179 262.628 45.9231C262.844 46.3231 263.126 46.6205 263.474 46.8154C263.823 47.0051 264.213 47.1 264.644 47.1C265.044 47.1 265.41 47.041 265.744 46.9231C266.082 46.8051 266.436 46.6205 266.805 46.3692L267.413 47.2231C267.033 47.5205 266.598 47.7538 266.105 47.9231C265.618 48.0923 265.126 48.1769 264.628 48.1769C263.854 48.1769 263.187 48.0026 262.628 47.6538C262.069 47.3051 261.644 46.8128 261.351 46.1769C261.064 45.541 260.921 44.8026 260.921 43.9615C260.921 43.1462 261.067 42.4179 261.359 41.7769C261.651 41.1359 262.064 40.6359 262.598 40.2769C263.131 39.9128 263.751 39.7308 264.459 39.7308C265.136 39.7308 265.721 39.8897 266.213 40.2077C266.71 40.5256 267.09 40.9846 267.351 41.5846C267.618 42.1795 267.751 42.8846 267.751 43.7C267.751 43.9359 267.741 44.1718 267.721 44.4077H262.274ZM264.474 40.7923C263.849 40.7923 263.339 41.0128 262.944 41.4538C262.554 41.8897 262.333 42.541 262.282 43.4077H266.505C266.49 42.5564 266.303 41.9077 265.944 41.4615C265.585 41.0154 265.095 40.7923 264.474 40.7923ZM275.957 39.7231C276.167 39.7231 276.359 39.7385 276.534 39.7692C276.708 39.7949 276.898 39.8385 277.103 39.9L276.918 42.6385H275.857V40.9154H275.788C275.162 40.9154 274.629 41.1359 274.188 41.5769C273.747 42.0179 273.39 42.6846 273.118 43.5769V47.0077H274.764V48H270.564V47.0077H271.826V40.8923H270.564V39.9H272.811L273.049 41.8154C273.377 41.1128 273.767 40.5897 274.218 40.2462C274.675 39.8974 275.254 39.7231 275.957 39.7231ZM282.785 36.1077C283.067 36.1077 283.296 36.1949 283.47 36.3692C283.644 36.5385 283.731 36.7513 283.731 37.0077C283.731 37.2744 283.644 37.4949 283.47 37.6692C283.296 37.8436 283.067 37.9308 282.785 37.9308C282.514 37.9308 282.29 37.8436 282.116 37.6692C281.942 37.4897 281.855 37.2692 281.855 37.0077C281.855 36.7513 281.942 36.5385 282.116 36.3692C282.29 36.1949 282.514 36.1077 282.785 36.1077ZM280.101 39.9H283.816V46.9769H286.101V48H280.024V46.9769H282.524V40.9231H280.101V39.9ZM293.729 36.4769C294.15 36.4769 294.537 36.5154 294.891 36.5923C295.245 36.6641 295.588 36.7718 295.922 36.9154L295.506 37.8769C295.004 37.6513 294.424 37.5385 293.768 37.5385C292.634 37.5385 292.068 37.9872 292.068 38.8846V40.5308H294.814L294.675 41.5462H292.068V48H290.775V41.5462H288.845V40.5308H290.775V38.9154C290.775 38.4282 290.904 38 291.16 37.6308C291.416 37.2615 291.768 36.9769 292.214 36.7769C292.66 36.5769 293.165 36.4769 293.729 36.4769ZM302.065 48.0538C301.855 48.659 301.604 49.1821 301.312 49.6231C301.024 50.0641 300.645 50.4282 300.173 50.7154C299.706 51.0077 299.132 51.1872 298.45 51.2538L298.25 50.2231C298.794 50.1308 299.227 49.9923 299.55 49.8077C299.878 49.6231 300.135 49.3897 300.319 49.1077C300.504 48.8256 300.676 48.4564 300.835 48H300.404L297.573 39.9H298.958L301.281 47.0154L303.573 39.9H304.912L302.065 48.0538ZM309.755 40.6385H308.617L308.371 36.6385H309.994L309.755 40.6385ZM312.325 40.6385H311.186L310.955 36.6385H312.571L312.325 40.6385ZM319.684 40.1385C319.92 40.1385 320.133 40.1949 320.322 40.3077C320.512 40.4154 320.661 40.5641 320.769 40.7538C320.881 40.9436 320.938 41.1513 320.938 41.3769C320.938 41.6026 320.881 41.8128 320.769 42.0077C320.661 42.1974 320.512 42.3487 320.322 42.4615C320.133 42.5744 319.92 42.6308 319.684 42.6308C319.453 42.6308 319.243 42.5744 319.053 42.4615C318.869 42.3487 318.72 42.1974 318.607 42.0077C318.499 41.8128 318.446 41.6026 318.446 41.3769C318.446 41.1513 318.499 40.9436 318.607 40.7538C318.72 40.5641 318.869 40.4154 319.053 40.3077C319.243 40.1949 319.453 40.1385 319.684 40.1385ZM319.684 45.4538C319.92 45.4538 320.133 45.5103 320.322 45.6231C320.512 45.7308 320.661 45.8795 320.769 46.0692C320.881 46.2538 320.938 46.459 320.938 46.6846C320.938 46.8846 320.915 47.0795 320.869 47.2692C320.822 47.459 320.743 47.6718 320.63 47.9077L319.384 50.7692H318.215L318.953 47.7154C318.794 47.6077 318.669 47.4641 318.576 47.2846C318.489 47.1 318.446 46.9026 318.446 46.6923C318.446 46.4667 318.499 46.259 318.607 46.0692C318.72 45.8795 318.869 45.7308 319.053 45.6231C319.243 45.5103 319.453 45.4538 319.684 45.4538ZM38.1901 72.0538L31.6208 85.5846L30.5747 85.1231L37.1593 71.5462L38.1901 72.0538ZM45.8824 72.0538L39.3131 85.5846L38.267 85.1231L44.8516 71.5462L45.8824 72.0538ZM63.7009 75.7231C63.9112 75.7231 64.1035 75.7385 64.2779 75.7692C64.4522 75.7949 64.642 75.8385 64.8471 75.9L64.6625 78.6385H63.6009V76.9154H63.5317C62.9061 76.9154 62.3727 77.1359 61.9317 77.5769C61.4907 78.0179 61.1343 78.6846 60.8625 79.5769V83.0077H62.5086V84H58.3086V83.0077H59.5702V76.8923H58.3086V75.9H60.5548L60.7932 77.8154C61.1214 77.1128 61.5112 76.5897 61.9625 76.2462C62.4189 75.8974 62.9984 75.7231 63.7009 75.7231ZM68.4756 80.4077C68.4961 81.0128 68.6141 81.5179 68.8294 81.9231C69.0448 82.3231 69.3269 82.6205 69.6756 82.8154C70.0243 83.0051 70.4141 83.1 70.8448 83.1C71.2448 83.1 71.6115 83.041 71.9448 82.9231C72.2833 82.8051 72.6371 82.6205 73.0064 82.3692L73.6141 83.2231C73.2346 83.5205 72.7987 83.7538 72.3064 83.9231C71.8192 84.0923 71.3269 84.1769 70.8294 84.1769C70.0551 84.1769 69.3884 84.0026 68.8294 83.6538C68.2705 83.3051 67.8448 82.8128 67.5525 82.1769C67.2653 81.541 67.1218 80.8026 67.1218 79.9615C67.1218 79.1462 67.2679 78.4179 67.5602 77.7769C67.8525 77.1359 68.2653 76.6359 68.7987 76.2769C69.332 75.9128 69.9525 75.7308 70.6602 75.7308C71.3371 75.7308 71.9218 75.8897 72.4141 76.2077C72.9115 76.5256 73.291 76.9846 73.5525 77.5846C73.8192 78.1795 73.9525 78.8846 73.9525 79.7C73.9525 79.9359 73.9423 80.1718 73.9218 80.4077H68.4756ZM70.6756 76.7923C70.05 76.7923 69.5397 77.0128 69.1448 77.4538C68.7551 77.8897 68.5346 78.541 68.4833 79.4077H72.7064C72.691 78.5564 72.5038 77.9077 72.1448 77.4615C71.7859 77.0154 71.2961 76.7923 70.6756 76.7923ZM83.1195 83.5923C82.8477 83.7718 82.5118 83.9128 82.1118 84.0154C81.7169 84.1231 81.3298 84.1769 80.9503 84.1769C80.381 84.1769 79.8913 84.0744 79.481 83.8692C79.0759 83.659 78.7657 83.3692 78.5503 83C78.3349 82.6308 78.2272 82.2077 78.2272 81.7308V76.9H76.3657V75.9H78.2272V74.0615L79.5195 73.9077V75.9H82.3195L82.1657 76.9H79.5195V81.7154C79.5195 82.1769 79.64 82.5231 79.881 82.7538C80.1272 82.9846 80.5221 83.1 81.0657 83.1C81.6144 83.1 82.1323 82.9718 82.6195 82.7154L83.1195 83.5923ZM87.2096 81.6385C87.2096 82.1667 87.3172 82.5513 87.5326 82.7923C87.7531 83.0282 88.0993 83.1462 88.5711 83.1462C88.9967 83.1462 89.4096 83.0231 89.8096 82.7769C90.2147 82.5308 90.5326 82.2256 90.7634 81.8615V75.9H92.0557V84H90.9557L90.848 82.9077C90.5352 83.3077 90.1455 83.6205 89.6788 83.8462C89.2172 84.0667 88.7429 84.1769 88.2557 84.1769C87.4813 84.1769 86.8967 83.9718 86.5019 83.5615C86.1121 83.1462 85.9172 82.5564 85.9172 81.7923V75.9H87.2096V81.6385ZM100.615 75.7231C100.825 75.7231 101.018 75.7385 101.192 75.7692C101.366 75.7949 101.556 75.8385 101.761 75.9L101.577 78.6385H100.515V76.9154H100.446C99.8201 76.9154 99.2868 77.1359 98.8458 77.5769C98.4047 78.0179 98.0483 78.6846 97.7765 79.5769V83.0077H99.4227V84H95.2227V83.0077H96.4842V76.8923H95.2227V75.9H97.4688L97.7073 77.8154C98.0355 77.1128 98.4253 76.5897 98.8765 76.2462C99.3329 75.8974 99.9124 75.7231 100.615 75.7231ZM104.374 84V75.9H105.474L105.574 77.0231C105.897 76.6179 106.302 76.3026 106.79 76.0769C107.282 75.8462 107.769 75.7308 108.251 75.7308C109.026 75.7308 109.597 75.9359 109.967 76.3462C110.341 76.7564 110.528 77.3462 110.528 78.1154V84H109.236V79.0692C109.236 78.4641 109.202 78.0026 109.136 77.6846C109.074 77.3667 108.944 77.1308 108.744 76.9769C108.549 76.8231 108.251 76.7462 107.851 76.7462C107.415 76.7462 107.002 76.8821 106.613 77.1538C106.228 77.4205 105.913 77.7359 105.667 78.1V84H104.374ZM129.262 83.5923C128.99 83.7718 128.654 83.9128 128.254 84.0154C127.86 84.1231 127.472 84.1769 127.093 84.1769C126.524 84.1769 126.034 84.0744 125.624 83.8692C125.218 83.659 124.908 83.3692 124.693 83C124.477 82.6308 124.37 82.2077 124.37 81.7308V76.9H122.508V75.9H124.37V74.0615L125.662 73.9077V75.9H128.462L128.308 76.9H125.662V81.7154C125.662 82.1769 125.783 82.5231 126.024 82.7538C126.27 82.9846 126.665 83.1 127.208 83.1C127.757 83.1 128.275 82.9718 128.762 82.7154L129.262 83.5923ZM135.952 84.0538C135.742 84.659 135.491 85.1821 135.198 85.6231C134.911 86.0641 134.532 86.4282 134.06 86.7154C133.593 87.0077 133.019 87.1872 132.337 87.2538L132.137 86.2231C132.68 86.1308 133.114 85.9923 133.437 85.8077C133.765 85.6231 134.021 85.3897 134.206 85.1077C134.391 84.8256 134.562 84.4564 134.721 84H134.291L131.46 75.9H132.844L135.168 83.0154L137.46 75.9H138.798L135.952 84.0538ZM144.911 75.7308C145.947 75.7308 146.693 76.0974 147.15 76.8308C147.611 77.5641 147.842 78.6026 147.842 79.9462C147.842 80.7821 147.727 81.5179 147.496 82.1538C147.265 82.7846 146.914 83.2795 146.442 83.6385C145.976 83.9974 145.401 84.1769 144.719 84.1769C143.827 84.1769 143.114 83.8641 142.581 83.2385V87.1L141.288 87.2615V75.9H142.388L142.496 77.0308C142.793 76.6103 143.147 76.2897 143.558 76.0692C143.973 75.8436 144.424 75.7308 144.911 75.7308ZM144.604 76.7692C144.188 76.7692 143.809 76.8923 143.465 77.1385C143.127 77.3846 142.832 77.6949 142.581 78.0692V82.0846C142.796 82.4026 143.063 82.6513 143.381 82.8308C143.704 83.0103 144.055 83.1 144.434 83.1C145.111 83.1 145.617 82.841 145.95 82.3231C146.288 81.8051 146.458 81.0103 146.458 79.9385C146.458 78.8718 146.306 78.0769 146.004 77.5538C145.701 77.0308 145.234 76.7692 144.604 76.7692ZM151.532 80.4077C151.553 81.0128 151.671 81.5179 151.886 81.9231C152.101 82.3231 152.384 82.6205 152.732 82.8154C153.081 83.0051 153.471 83.1 153.901 83.1C154.301 83.1 154.668 83.041 155.001 82.9231C155.34 82.8051 155.694 82.6205 156.063 82.3692L156.671 83.2231C156.291 83.5205 155.855 83.7538 155.363 83.9231C154.876 84.0923 154.384 84.1769 153.886 84.1769C153.112 84.1769 152.445 84.0026 151.886 83.6538C151.327 83.3051 150.901 82.8128 150.609 82.1769C150.322 81.541 150.178 80.8026 150.178 79.9615C150.178 79.1462 150.325 78.4179 150.617 77.7769C150.909 77.1359 151.322 76.6359 151.855 76.2769C152.389 75.9128 153.009 75.7308 153.717 75.7308C154.394 75.7308 154.978 75.8897 155.471 76.2077C155.968 76.5256 156.348 76.9846 156.609 77.5846C156.876 78.1795 157.009 78.8846 157.009 79.7C157.009 79.9359 156.999 80.1718 156.978 80.4077H151.532ZM153.732 76.7923C153.107 76.7923 152.596 77.0128 152.201 77.4538C151.812 77.8897 151.591 78.541 151.54 79.4077H155.763C155.748 78.5564 155.56 77.9077 155.201 77.4615C154.842 77.0154 154.353 76.7923 153.732 76.7923ZM172.043 72.1077C172.325 72.1077 172.553 72.1949 172.728 72.3692C172.902 72.5385 172.989 72.7513 172.989 73.0077C172.989 73.2744 172.902 73.4949 172.728 73.6692C172.553 73.8436 172.325 73.9308 172.043 73.9308C171.771 73.9308 171.548 73.8436 171.374 73.6692C171.2 73.4897 171.112 73.2692 171.112 73.0077C171.112 72.7513 171.2 72.5385 171.374 72.3692C171.548 72.1949 171.771 72.1077 172.043 72.1077ZM169.359 75.9H173.074V82.9769H175.359V84H169.282V82.9769H171.782V76.9231H169.359V75.9ZM180.956 83.1077C181.577 83.1077 182.067 82.9923 182.425 82.7615C182.79 82.5308 182.972 82.2179 182.972 81.8231C182.972 81.5564 182.923 81.3385 182.825 81.1692C182.733 80.9949 182.546 80.8359 182.264 80.6923C181.987 80.5487 181.569 80.4077 181.01 80.2692C180.39 80.1154 179.882 79.9487 179.487 79.7692C179.097 79.5846 178.792 79.3462 178.572 79.0538C178.356 78.7615 178.249 78.3897 178.249 77.9385C178.249 77.4923 178.377 77.1026 178.633 76.7692C178.89 76.4359 179.249 76.1795 179.71 76C180.177 75.8205 180.715 75.7308 181.325 75.7308C181.936 75.7308 182.484 75.8128 182.972 75.9769C183.464 76.1359 183.895 76.3513 184.264 76.6231L183.695 77.5C183.356 77.2692 183 77.0923 182.625 76.9692C182.256 76.841 181.828 76.7769 181.341 76.7769C180.731 76.7769 180.284 76.8718 180.002 77.0615C179.725 77.2462 179.587 77.5051 179.587 77.8385C179.587 78.0795 179.651 78.2769 179.779 78.4308C179.913 78.5846 180.125 78.7231 180.418 78.8462C180.715 78.9641 181.156 79.1026 181.741 79.2615C182.325 79.4205 182.805 79.5974 183.179 79.7923C183.554 79.9872 183.846 80.2436 184.056 80.5615C184.267 80.8744 184.372 81.2744 184.372 81.7615C184.372 82.3103 184.213 82.7667 183.895 83.1308C183.577 83.4897 183.159 83.7538 182.641 83.9231C182.128 84.0923 181.567 84.1769 180.956 84.1769C179.684 84.1769 178.628 83.8128 177.787 83.0846L178.525 82.2308C178.854 82.5077 179.225 82.7231 179.641 82.8769C180.056 83.0308 180.495 83.1077 180.956 83.1077ZM202.459 82.2308C202.459 82.5487 202.511 82.7846 202.613 82.9385C202.716 83.0872 202.885 83.1974 203.121 83.2692L202.806 84.1769C202.026 84.0744 201.531 83.6949 201.321 83.0385C201.034 83.4128 200.67 83.6974 200.229 83.8923C199.793 84.0821 199.311 84.1769 198.783 84.1769C198.249 84.1769 197.785 84.0744 197.39 83.8692C196.995 83.6641 196.693 83.3744 196.483 83C196.272 82.6205 196.167 82.1795 196.167 81.6769C196.167 80.841 196.493 80.2 197.144 79.7538C197.795 79.3077 198.736 79.0846 199.967 79.0846H201.159V78.4077C201.159 77.8436 200.995 77.4359 200.667 77.1846C200.339 76.9282 199.859 76.8 199.229 76.8C198.618 76.8 197.916 76.9385 197.121 77.2154L196.783 76.2385C197.685 75.9 198.567 75.7308 199.429 75.7308C200.418 75.7308 201.17 75.9641 201.683 76.4308C202.2 76.8923 202.459 77.5308 202.459 78.3462V82.2308ZM199.113 83.1923C199.513 83.1923 199.893 83.0923 200.252 82.8923C200.616 82.6872 200.918 82.4051 201.159 82.0462V79.9615H199.99C199.134 79.9615 198.513 80.1077 198.129 80.4C197.744 80.6923 197.552 81.1128 197.552 81.6615C197.552 82.6821 198.072 83.1923 199.113 83.1923ZM221.824 81.0692C221.824 81.6795 221.67 82.2205 221.363 82.6923C221.06 83.159 220.616 83.5231 220.032 83.7846C219.452 84.0462 218.76 84.1769 217.955 84.1769C217.191 84.1769 216.493 84.0615 215.863 83.8308C215.232 83.5949 214.691 83.259 214.24 82.8231L215.032 81.9308C215.416 82.2949 215.847 82.5744 216.324 82.7692C216.806 82.959 217.357 83.0538 217.978 83.0538C218.419 83.0538 218.827 82.9821 219.201 82.8385C219.575 82.6897 219.875 82.4692 220.101 82.1769C220.327 81.8795 220.44 81.5179 220.44 81.0923C220.44 80.7385 220.37 80.4436 220.232 80.2077C220.099 79.9718 219.865 79.7615 219.532 79.5769C219.199 79.3872 218.727 79.2026 218.116 79.0231C217.363 78.8026 216.74 78.5641 216.247 78.3077C215.755 78.0462 215.373 77.7256 215.101 77.3462C214.834 76.9667 214.701 76.5051 214.701 75.9615C214.701 75.4385 214.845 74.9718 215.132 74.5615C215.424 74.1462 215.829 73.8231 216.347 73.5923C216.87 73.3564 217.465 73.2385 218.132 73.2385C218.84 73.2385 219.465 73.341 220.009 73.5462C220.557 73.7462 221.06 74.0462 221.516 74.4462L220.732 75.3154C220.368 74.9923 219.968 74.7513 219.532 74.5923C219.096 74.4333 218.645 74.3538 218.178 74.3538C217.783 74.3538 217.424 74.4128 217.101 74.5308C216.783 74.6436 216.529 74.8179 216.34 75.0538C216.155 75.2897 216.063 75.5769 216.063 75.9154C216.063 76.2282 216.145 76.4923 216.309 76.7077C216.473 76.9231 216.745 77.1205 217.124 77.3C217.504 77.4795 218.04 77.6718 218.732 77.8769C219.368 78.0615 219.906 78.2744 220.347 78.5154C220.788 78.7513 221.145 79.0769 221.416 79.4923C221.688 79.9026 221.824 80.4282 221.824 81.0692ZM224.614 73.4077L227.445 82.4846L230.307 73.4077H231.653L228.107 84H226.722L223.176 73.4077H224.614ZM236.85 84.1769C236.004 84.1769 235.273 83.9744 234.658 83.5692C234.043 83.159 233.566 82.5462 233.227 81.7308C232.894 80.9103 232.727 79.9 232.727 78.7C232.727 77.5359 232.932 76.5436 233.343 75.7231C233.753 74.8974 234.294 74.2769 234.966 73.8615C235.643 73.4462 236.373 73.2385 237.158 73.2385C237.82 73.2385 238.381 73.3333 238.843 73.5231C239.304 73.7077 239.753 74 240.189 74.4L239.381 75.2385C239.058 74.9359 238.717 74.7128 238.358 74.5692C237.999 74.4256 237.602 74.3538 237.166 74.3538C236.617 74.3538 236.117 74.4974 235.666 74.7846C235.215 75.0667 234.85 75.5308 234.573 76.1769C234.297 76.8231 234.158 77.6641 234.158 78.7C234.158 80.2128 234.391 81.3179 234.858 82.0154C235.325 82.7077 236.03 83.0538 236.973 83.0538C237.686 83.0538 238.358 82.8846 238.989 82.5462V79.3154H236.904L236.743 78.2077H240.312V83.2538C239.768 83.5513 239.227 83.7795 238.689 83.9385C238.156 84.0974 237.543 84.1769 236.85 84.1769ZM255.1 72.1077C255.382 72.1077 255.61 72.1949 255.784 72.3692C255.959 72.5385 256.046 72.7513 256.046 73.0077C256.046 73.2744 255.959 73.4949 255.784 73.6692C255.61 73.8436 255.382 73.9308 255.1 73.9308C254.828 73.9308 254.605 73.8436 254.431 73.6692C254.256 73.4897 254.169 73.2692 254.169 73.0077C254.169 72.7513 254.256 72.5385 254.431 72.3692C254.605 72.1949 254.828 72.1077 255.1 72.1077ZM252.415 75.9H256.131V82.9769H258.415V84H252.338V82.9769H254.838V76.9231H252.415V75.9ZM261.259 84V75.9H262.359L262.459 77.0231C262.782 76.6179 263.187 76.3026 263.674 76.0769C264.167 75.8462 264.654 75.7308 265.136 75.7308C265.91 75.7308 266.482 75.9359 266.851 76.3462C267.226 76.7564 267.413 77.3462 267.413 78.1154V84H266.121V79.0692C266.121 78.4641 266.087 78.0026 266.021 77.6846C265.959 77.3667 265.828 77.1308 265.628 76.9769C265.433 76.8231 265.136 76.7462 264.736 76.7462C264.3 76.7462 263.887 76.8821 263.498 77.1538C263.113 77.4205 262.798 77.7359 262.551 78.1V84H261.259ZM282.47 83.1077C283.09 83.1077 283.58 82.9923 283.939 82.7615C284.303 82.5308 284.485 82.2179 284.485 81.8231C284.485 81.5564 284.437 81.3385 284.339 81.1692C284.247 80.9949 284.06 80.8359 283.778 80.6923C283.501 80.5487 283.083 80.4077 282.524 80.2692C281.903 80.1154 281.396 79.9487 281.001 79.7692C280.611 79.5846 280.306 79.3462 280.085 79.0538C279.87 78.7615 279.762 78.3897 279.762 77.9385C279.762 77.4923 279.89 77.1026 280.147 76.7692C280.403 76.4359 280.762 76.1795 281.224 76C281.69 75.8205 282.229 75.7308 282.839 75.7308C283.449 75.7308 283.998 75.8128 284.485 75.9769C284.978 76.1359 285.408 76.3513 285.778 76.6231L285.208 77.5C284.87 77.2692 284.514 77.0923 284.139 76.9692C283.77 76.841 283.342 76.7769 282.855 76.7769C282.244 76.7769 281.798 76.8718 281.516 77.0615C281.239 77.2462 281.101 77.5051 281.101 77.8385C281.101 78.0795 281.165 78.2769 281.293 78.4308C281.426 78.5846 281.639 78.7231 281.931 78.8462C282.229 78.9641 282.67 79.1026 283.255 79.2615C283.839 79.4205 284.319 79.5974 284.693 79.7923C285.067 79.9872 285.36 80.2436 285.57 80.5615C285.78 80.8744 285.885 81.2744 285.885 81.7615C285.885 82.3103 285.726 82.7667 285.408 83.1308C285.09 83.4897 284.672 83.7538 284.155 83.9231C283.642 84.0923 283.08 84.1769 282.47 84.1769C281.198 84.1769 280.142 83.8128 279.301 83.0846L280.039 82.2308C280.367 82.5077 280.739 82.7231 281.155 82.8769C281.57 83.0308 282.008 83.1077 282.47 83.1077ZM295.375 83.5923C295.104 83.7718 294.768 83.9128 294.368 84.0154C293.973 84.1231 293.586 84.1769 293.206 84.1769C292.637 84.1769 292.147 84.0744 291.737 83.8692C291.332 83.659 291.022 83.3692 290.806 83C290.591 82.6308 290.483 82.2077 290.483 81.7308V76.9H288.622V75.9H290.483V74.0615L291.775 73.9077V75.9H294.575L294.422 76.9H291.775V81.7154C291.775 82.1769 291.896 82.5231 292.137 82.7538C292.383 82.9846 292.778 83.1 293.322 83.1C293.87 83.1 294.388 82.9718 294.875 82.7154L295.375 83.5923ZM303.642 75.7231C303.853 75.7231 304.045 75.7385 304.219 75.7692C304.394 75.7949 304.583 75.8385 304.788 75.9L304.604 78.6385H303.542V76.9154H303.473C302.847 76.9154 302.314 77.1359 301.873 77.5769C301.432 78.0179 301.076 78.6846 300.804 79.5769V83.0077H302.45V84H298.25V83.0077H299.512V76.8923H298.25V75.9H300.496L300.735 77.8154C301.063 77.1128 301.453 76.5897 301.904 76.2462C302.36 75.8974 302.94 75.7231 303.642 75.7231ZM310.471 72.1077C310.753 72.1077 310.981 72.1949 311.155 72.3692C311.33 72.5385 311.417 72.7513 311.417 73.0077C311.417 73.2744 311.33 73.4949 311.155 73.6692C310.981 73.8436 310.753 73.9308 310.471 73.9308C310.199 73.9308 309.976 73.8436 309.802 73.6692C309.627 73.4897 309.54 73.2692 309.54 73.0077C309.54 72.7513 309.627 72.5385 309.802 72.3692C309.976 72.1949 310.199 72.1077 310.471 72.1077ZM307.786 75.9H311.502V82.9769H313.786V84H307.709V82.9769H310.209V76.9231H307.786V75.9ZM316.63 84V75.9H317.73L317.83 77.0231C318.153 76.6179 318.558 76.3026 319.046 76.0769C319.538 75.8462 320.025 75.7308 320.507 75.7308C321.281 75.7308 321.853 75.9359 322.222 76.3462C322.597 76.7564 322.784 77.3462 322.784 78.1154V84H321.492V79.0692C321.492 78.4641 321.458 78.0026 321.392 77.6846C321.33 77.3667 321.199 77.1308 320.999 76.9769C320.804 76.8231 320.507 76.7462 320.107 76.7462C319.671 76.7462 319.258 76.8821 318.869 77.1538C318.484 77.4205 318.169 77.7359 317.922 78.1V84H316.63ZM332.843 76.2538C332.525 76.3513 332.184 76.4154 331.82 76.4462C331.461 76.4769 331.012 76.4923 330.474 76.4923C331.412 76.9231 331.882 77.6026 331.882 78.5308C331.882 79.0641 331.759 79.541 331.512 79.9615C331.271 80.3769 330.92 80.7026 330.459 80.9385C330.002 81.1692 329.461 81.2846 328.836 81.2846C328.569 81.2846 328.343 81.2744 328.159 81.2538C327.979 81.2282 327.802 81.1872 327.628 81.1308C327.505 81.2179 327.402 81.3333 327.32 81.4769C327.243 81.6154 327.205 81.7615 327.205 81.9154C327.205 82.1256 327.287 82.2923 327.451 82.4154C327.615 82.5333 327.895 82.5923 328.289 82.5923H329.751C330.284 82.5923 330.769 82.6897 331.205 82.8846C331.646 83.0744 331.989 83.3385 332.236 83.6769C332.487 84.0103 332.613 84.3821 332.613 84.7923C332.613 85.5872 332.277 86.1974 331.605 86.6231C330.933 87.0487 329.979 87.2615 328.743 87.2615C327.892 87.2615 327.215 87.1744 326.712 87C326.215 86.8256 325.859 86.559 325.643 86.2C325.428 85.8462 325.32 85.3872 325.32 84.8231H326.489C326.489 85.1564 326.551 85.4205 326.674 85.6154C326.802 85.8154 327.028 85.9641 327.351 86.0615C327.679 86.159 328.141 86.2077 328.736 86.2077C329.618 86.2077 330.266 86.0974 330.682 85.8769C331.097 85.6564 331.305 85.3231 331.305 84.8769C331.305 84.5026 331.136 84.2154 330.797 84.0154C330.459 83.8154 330.018 83.7154 329.474 83.7154H328.028C327.582 83.7154 327.205 83.6462 326.897 83.5077C326.589 83.3692 326.361 83.1846 326.212 82.9538C326.064 82.7231 325.989 82.4692 325.989 82.1923C325.989 81.9308 326.066 81.6769 326.22 81.4308C326.374 81.1846 326.595 80.9667 326.882 80.7769C326.415 80.5308 326.071 80.2256 325.851 79.8615C325.63 79.4974 325.52 79.0564 325.52 78.5385C325.52 78 325.656 77.5179 325.928 77.0923C326.205 76.6615 326.587 76.3256 327.074 76.0846C327.566 75.8436 328.125 75.7231 328.751 75.7231C329.402 75.7231 329.941 75.6974 330.366 75.6462C330.792 75.5897 331.148 75.5154 331.436 75.4231C331.728 75.3308 332.064 75.2026 332.443 75.0385L332.843 76.2538ZM328.751 76.6692C328.12 76.6692 327.643 76.8385 327.32 77.1769C327.002 77.5154 326.843 77.9692 326.843 78.5385C326.843 79.1128 327.005 79.5718 327.328 79.9154C327.656 80.2538 328.141 80.4231 328.782 80.4231C329.346 80.4231 329.779 80.259 330.082 79.9308C330.389 79.5974 330.543 79.1308 330.543 78.5308C330.543 77.9205 330.392 77.459 330.089 77.1462C329.787 76.8282 329.341 76.6692 328.751 76.6692ZM349.1 72.4769C349.521 72.4769 349.908 72.5154 350.262 72.5923C350.616 72.6641 350.959 72.7718 351.293 72.9154L350.877 73.8769C350.375 73.6513 349.795 73.5385 349.139 73.5385C348.005 73.5385 347.439 73.9872 347.439 74.8846V76.5308H350.185L350.046 77.5462H347.439V84H346.146V77.5462H344.216V76.5308H346.146V74.9154C346.146 74.4282 346.275 74 346.531 73.6308C346.787 73.2615 347.139 72.9769 347.585 72.7769C348.031 72.5769 348.536 72.4769 349.1 72.4769ZM356.629 75.7308C357.378 75.7308 358.011 75.9026 358.529 76.2462C359.047 76.5846 359.437 77.0718 359.698 77.7077C359.965 78.3385 360.098 79.0846 360.098 79.9462C360.098 80.7821 359.962 81.5179 359.69 82.1538C359.424 82.7897 359.029 83.2872 358.506 83.6462C357.983 84 357.352 84.1769 356.613 84.1769C355.865 84.1769 355.229 84.0051 354.706 83.6615C354.188 83.3128 353.795 82.8231 353.529 82.1923C353.262 81.5615 353.129 80.8179 353.129 79.9615C353.129 79.1205 353.262 78.3821 353.529 77.7462C353.801 77.1103 354.198 76.6154 354.721 76.2615C355.249 75.9077 355.885 75.7308 356.629 75.7308ZM356.629 76.7846C355.926 76.7846 355.398 77.0462 355.044 77.5692C354.69 78.0872 354.513 78.8846 354.513 79.9615C354.513 81.0231 354.688 81.8154 355.037 82.3385C355.385 82.8564 355.911 83.1154 356.613 83.1154C357.316 83.1154 357.842 82.8564 358.19 82.3385C358.539 81.8154 358.713 81.0179 358.713 79.9462C358.713 78.8795 358.539 78.0872 358.19 77.5692C357.842 77.0462 357.321 76.7846 356.629 76.7846ZM368.242 75.7231C368.452 75.7231 368.645 75.7385 368.819 75.7692C368.993 75.7949 369.183 75.8385 369.388 75.9L369.203 78.6385H368.142V76.9154H368.073C367.447 76.9154 366.914 77.1359 366.473 77.5769C366.032 78.0179 365.675 78.6846 365.403 79.5769V83.0077H367.05V84H362.85V83.0077H364.111V76.8923H362.85V75.9H365.096L365.334 77.8154C365.662 77.1128 366.052 76.5897 366.503 76.2462C366.96 75.8974 367.539 75.7231 368.242 75.7231ZM377.34 75.7308C377.801 75.7308 378.178 75.8923 378.47 76.2154C378.763 76.5333 378.909 77.1179 378.909 77.9692V84H377.709V78.1769C377.709 77.7923 377.696 77.5051 377.67 77.3154C377.645 77.1205 377.588 76.9769 377.501 76.8846C377.414 76.7872 377.276 76.7385 377.086 76.7385C376.558 76.7385 376.086 77.0615 375.67 77.7077V84H374.463V78.1769C374.463 77.7923 374.45 77.5051 374.424 77.3154C374.399 77.1205 374.342 76.9769 374.255 76.8846C374.168 76.7872 374.029 76.7385 373.84 76.7385C373.311 76.7385 372.84 77.0615 372.424 77.7077V84H371.232V75.9H372.247L372.324 76.8385C372.57 76.4846 372.832 76.2128 373.109 76.0231C373.386 75.8282 373.711 75.7308 374.086 75.7308C374.85 75.7308 375.34 76.0872 375.555 76.8C375.796 76.4513 376.055 76.1872 376.332 76.0077C376.614 75.8231 376.95 75.7308 377.34 75.7308ZM38.1901 90.0538L31.6208 103.585L30.5747 103.123L37.1593 89.5462L38.1901 90.0538ZM45.8824 90.0538L39.3131 103.585L38.267 103.123L44.8516 89.5462L45.8824 90.0538ZM59.524 99.6385C59.524 100.167 59.6317 100.551 59.8471 100.792C60.0676 101.028 60.4138 101.146 60.8855 101.146C61.3112 101.146 61.724 101.023 62.124 100.777C62.5291 100.531 62.8471 100.226 63.0779 99.8615V93.9H64.3702V102H63.2702L63.1625 100.908C62.8496 101.308 62.4599 101.621 61.9932 101.846C61.5317 102.067 61.0573 102.177 60.5702 102.177C59.7958 102.177 59.2112 101.972 58.8163 101.562C58.4266 101.146 58.2317 100.556 58.2317 99.7923V93.9H59.524V99.6385ZM67.4602 102V93.9H68.5602L68.6602 95.0231C68.9833 94.6179 69.3884 94.3026 69.8756 94.0769C70.3679 93.8462 70.8551 93.7308 71.3371 93.7308C72.1115 93.7308 72.6833 93.9359 73.0525 94.3462C73.4269 94.7564 73.6141 95.3462 73.6141 96.1154V102H72.3218V97.0692C72.3218 96.4641 72.2884 96.0026 72.2218 95.6846C72.1602 95.3667 72.0294 95.1308 71.8294 94.9769C71.6346 94.8231 71.3371 94.7462 70.9371 94.7462C70.5012 94.7462 70.0884 94.8821 69.6987 95.1538C69.3141 95.4205 68.9987 95.7359 68.7525 96.1V102H67.4602ZM82.1041 93.9H83.4426L80.4964 102H78.9964L76.0733 93.9H77.4426L79.7887 100.823L82.1041 93.9ZM86.9326 98.4077C86.9531 99.0128 87.0711 99.5179 87.2865 99.9231C87.5019 100.323 87.7839 100.621 88.1326 100.815C88.4814 101.005 88.8711 101.1 89.3019 101.1C89.7019 101.1 90.0685 101.041 90.4019 100.923C90.7403 100.805 91.0942 100.621 91.4634 100.369L92.0711 101.223C91.6916 101.521 91.2557 101.754 90.7634 101.923C90.2762 102.092 89.7839 102.177 89.2865 102.177C88.5121 102.177 87.8455 102.003 87.2865 101.654C86.7275 101.305 86.3019 100.813 86.0096 100.177C85.7224 99.541 85.5788 98.8026 85.5788 97.9615C85.5788 97.1462 85.7249 96.4179 86.0172 95.7769C86.3096 95.1359 86.7224 94.6359 87.2557 94.2769C87.789 93.9128 88.4096 93.7308 89.1172 93.7308C89.7942 93.7308 90.3788 93.8897 90.8711 94.2077C91.3685 94.5256 91.748 94.9846 92.0096 95.5846C92.2762 96.1795 92.4096 96.8846 92.4096 97.7C92.4096 97.9359 92.3993 98.1718 92.3788 98.4077H86.9326ZM89.1326 94.7923C88.507 94.7923 87.9967 95.0128 87.6019 95.4538C87.2121 95.8897 86.9916 96.541 86.9403 97.4077H91.1634C91.148 96.5564 90.9608 95.9077 90.6019 95.4615C90.2429 95.0154 89.7531 94.7923 89.1326 94.7923ZM100.615 93.7231C100.825 93.7231 101.018 93.7385 101.192 93.7692C101.366 93.7949 101.556 93.8385 101.761 93.9L101.577 96.6385H100.515V94.9154H100.446C99.8201 94.9154 99.2868 95.1359 98.8458 95.5769C98.4047 96.0179 98.0483 96.6846 97.7765 97.5769V101.008H99.4227V102H95.2227V101.008H96.4842V94.8923H95.2227V93.9H97.4688L97.7073 95.8154C98.0355 95.1128 98.4253 94.5897 98.8765 94.2462C99.3329 93.8974 99.9124 93.7231 100.615 93.7231ZM107.444 90.1077C107.726 90.1077 107.954 90.1949 108.128 90.3692C108.302 90.5385 108.39 90.7513 108.39 91.0077C108.39 91.2744 108.302 91.4949 108.128 91.6692C107.954 91.8436 107.726 91.9308 107.444 91.9308C107.172 91.9308 106.949 91.8436 106.774 91.6692C106.6 91.4897 106.513 91.2692 106.513 91.0077C106.513 90.7513 106.6 90.5385 106.774 90.3692C106.949 90.1949 107.172 90.1077 107.444 90.1077ZM104.759 93.9H108.474V100.977H110.759V102H104.682V100.977H107.182V94.9231H104.759V93.9ZM118.387 90.4769C118.808 90.4769 119.195 90.5154 119.549 90.5923C119.903 90.6641 120.246 90.7718 120.58 90.9154L120.164 91.8769C119.662 91.6513 119.082 91.5385 118.426 91.5385C117.293 91.5385 116.726 91.9872 116.726 92.8846V94.5308H119.472L119.334 95.5462H116.726V102H115.434V95.5462H113.503V94.5308H115.434V92.9154C115.434 92.4282 115.562 92 115.818 91.6308C116.075 91.2615 116.426 90.9769 116.872 90.7769C117.318 90.5769 117.823 90.4769 118.387 90.4769ZM125.901 90.6692C126.183 90.6692 126.411 90.7564 126.585 90.9308C126.76 91.1 126.847 91.3128 126.847 91.5692C126.847 91.8359 126.76 92.0564 126.585 92.2308C126.416 92.4051 126.188 92.4923 125.901 92.4923C125.629 92.4923 125.406 92.4051 125.231 92.2308C125.057 92.0564 124.97 91.8359 124.97 91.5692C124.97 91.3128 125.057 91.1 125.231 90.9308C125.406 90.7564 125.629 90.6692 125.901 90.6692ZM123.216 94.5308H126.931V100.977H129.216V102H123.139V100.977H125.639V95.5462H123.216V94.5308ZM133.075 98.4077C133.096 99.0128 133.214 99.5179 133.429 99.9231C133.644 100.323 133.926 100.621 134.275 100.815C134.624 101.005 135.014 101.1 135.444 101.1C135.844 101.1 136.211 101.041 136.544 100.923C136.883 100.805 137.237 100.621 137.606 100.369L138.214 101.223C137.834 101.521 137.398 101.754 136.906 101.923C136.419 102.092 135.926 102.177 135.429 102.177C134.655 102.177 133.988 102.003 133.429 101.654C132.87 101.305 132.444 100.813 132.152 100.177C131.865 99.541 131.721 98.8026 131.721 97.9615C131.721 97.1462 131.868 96.4179 132.16 95.7769C132.452 95.1359 132.865 94.6359 133.398 94.2769C133.932 93.9128 134.552 93.7308 135.26 93.7308C135.937 93.7308 136.521 93.8897 137.014 94.2077C137.511 94.5256 137.891 94.9846 138.152 95.5846C138.419 96.1795 138.552 96.8846 138.552 97.7C138.552 97.9359 138.542 98.1718 138.521 98.4077H133.075ZM135.275 94.7923C134.65 94.7923 134.139 95.0128 133.744 95.4538C133.355 95.8897 133.134 96.541 133.083 97.4077H137.306C137.291 96.5564 137.103 95.9077 136.744 95.4615C136.385 95.0154 135.896 94.7923 135.275 94.7923ZM146.134 90.4769L147.427 90.6385V102H146.296L146.173 100.931C145.876 101.351 145.532 101.664 145.142 101.869C144.752 102.074 144.329 102.177 143.873 102.177C142.847 102.177 142.076 101.8 141.558 101.046C141.045 100.292 140.788 99.2641 140.788 97.9615C140.788 97.1462 140.914 96.4179 141.165 95.7769C141.422 95.1359 141.788 94.6359 142.265 94.2769C142.747 93.9128 143.314 93.7308 143.965 93.7308C144.427 93.7308 144.834 93.8103 145.188 93.9692C145.547 94.1282 145.863 94.3667 146.134 94.6846V90.4769ZM144.304 94.7692C143.622 94.7692 143.099 95.0385 142.734 95.5769C142.376 96.1103 142.196 96.9051 142.196 97.9615C142.196 99.0077 142.36 99.7974 142.688 100.331C143.022 100.864 143.506 101.131 144.142 101.131C144.906 101.131 145.57 100.705 146.134 99.8538V95.8077C145.914 95.4795 145.645 95.2256 145.327 95.0462C145.014 94.8615 144.673 94.7692 144.304 94.7692ZM167.584 96.2846H160.115V95.1615H167.584V96.2846ZM167.584 99.2077H160.115V98.0846H167.584V99.2077ZM170.589 92.5L174.774 97.1846L170.589 101.869L169.635 101.054L170.597 100.008C170.741 99.8385 170.882 99.6923 171.02 99.5692C171.159 99.4462 171.333 99.3256 171.543 99.2077H167.274V98.0846H172.335L173.159 97.1846L172.335 96.2846H167.274V95.1615H171.543C171.333 95.0436 171.159 94.9231 171.02 94.8C170.882 94.6769 170.741 94.5308 170.597 94.3615L169.635 93.3154L170.589 92.5ZM199.729 99.4692C199.965 99.4692 200.177 99.5256 200.367 99.6385C200.557 99.7462 200.706 99.8949 200.813 100.085C200.921 100.269 200.975 100.474 200.975 100.7C200.975 100.89 200.952 101.079 200.906 101.269C200.859 101.459 200.783 101.672 200.675 101.908L199.429 104.762H198.259L198.998 101.723C198.844 101.61 198.721 101.464 198.629 101.285C198.541 101.1 198.498 100.905 198.498 100.7C198.498 100.474 198.552 100.269 198.659 100.085C198.767 99.8949 198.913 99.7462 199.098 99.6385C199.288 99.5256 199.498 99.4692 199.729 99.4692ZM220.532 93.9H221.87L218.924 102H217.424L214.501 93.9H215.87L218.216 100.823L220.532 93.9ZM225.36 98.4077C225.381 99.0128 225.499 99.5179 225.714 99.9231C225.93 100.323 226.212 100.621 226.56 100.815C226.909 101.005 227.299 101.1 227.73 101.1C228.13 101.1 228.496 101.041 228.83 100.923C229.168 100.805 229.522 100.621 229.891 100.369L230.499 101.223C230.119 101.521 229.683 101.754 229.191 101.923C228.704 102.092 228.212 102.177 227.714 102.177C226.94 102.177 226.273 102.003 225.714 101.654C225.155 101.305 224.73 100.813 224.437 100.177C224.15 99.541 224.007 98.8026 224.007 97.9615C224.007 97.1462 224.153 96.4179 224.445 95.7769C224.737 95.1359 225.15 94.6359 225.683 94.2769C226.217 93.9128 226.837 93.7308 227.545 93.7308C228.222 93.7308 228.807 93.8897 229.299 94.2077C229.796 94.5256 230.176 94.9846 230.437 95.5846C230.704 96.1795 230.837 96.8846 230.837 97.7C230.837 97.9359 230.827 98.1718 230.807 98.4077H225.36ZM227.56 94.7923C226.935 94.7923 226.424 95.0128 226.03 95.4538C225.64 95.8897 225.419 96.541 225.368 97.4077H229.591C229.576 96.5564 229.389 95.9077 229.03 95.4615C228.671 95.0154 228.181 94.7923 227.56 94.7923ZM239.043 93.7231C239.253 93.7231 239.445 93.7385 239.62 93.7692C239.794 93.7949 239.984 93.8385 240.189 93.9L240.004 96.6385H238.943V94.9154H238.873C238.248 94.9154 237.715 95.1359 237.273 95.5769C236.832 96.0179 236.476 96.6846 236.204 97.5769V101.008H237.85V102H233.65V101.008H234.912V94.8923H233.65V93.9H235.897L236.135 95.8154C236.463 95.1128 236.853 94.5897 237.304 94.2462C237.761 93.8974 238.34 93.7231 239.043 93.7231ZM245.871 90.1077C246.153 90.1077 246.382 90.1949 246.556 90.3692C246.73 90.5385 246.817 90.7513 246.817 91.0077C246.817 91.2744 246.73 91.4949 246.556 91.6692C246.382 91.8436 246.153 91.9308 245.871 91.9308C245.599 91.9308 245.376 91.8436 245.202 91.6692C245.028 91.4897 244.94 91.2692 244.94 91.0077C244.94 90.7513 245.028 90.5385 245.202 90.3692C245.376 90.1949 245.599 90.1077 245.871 90.1077ZM243.187 93.9H246.902V100.977H249.187V102H243.11V100.977H245.61V94.9231H243.187V93.9ZM256.815 90.4769C257.236 90.4769 257.623 90.5154 257.977 90.5923C258.331 90.6641 258.674 90.7718 259.007 90.9154L258.592 91.8769C258.09 91.6513 257.51 91.5385 256.854 91.5385C255.72 91.5385 255.154 91.9872 255.154 92.8846V94.5308H257.9L257.761 95.5462H255.154V102H253.861V95.5462H251.931V94.5308H253.861V92.9154C253.861 92.4282 253.99 92 254.246 91.6308C254.502 91.2615 254.854 90.9769 255.3 90.7769C255.746 90.5769 256.251 90.4769 256.815 90.4769ZM264.328 90.6692C264.61 90.6692 264.839 90.7564 265.013 90.9308C265.187 91.1 265.274 91.3128 265.274 91.5692C265.274 91.8359 265.187 92.0564 265.013 92.2308C264.844 92.4051 264.615 92.4923 264.328 92.4923C264.056 92.4923 263.833 92.4051 263.659 92.2308C263.485 92.0564 263.398 91.8359 263.398 91.5692C263.398 91.3128 263.485 91.1 263.659 90.9308C263.833 90.7564 264.056 90.6692 264.328 90.6692ZM261.644 94.5308H265.359V100.977H267.644V102H261.567V100.977H264.067V95.5462H261.644V94.5308ZM271.503 98.4077C271.523 99.0128 271.641 99.5179 271.857 99.9231C272.072 100.323 272.354 100.621 272.703 100.815C273.052 101.005 273.441 101.1 273.872 101.1C274.272 101.1 274.639 101.041 274.972 100.923C275.311 100.805 275.664 100.621 276.034 100.369L276.641 101.223C276.262 101.521 275.826 101.754 275.334 101.923C274.847 102.092 274.354 102.177 273.857 102.177C273.082 102.177 272.416 102.003 271.857 101.654C271.298 101.305 270.872 100.813 270.58 100.177C270.293 99.541 270.149 98.8026 270.149 97.9615C270.149 97.1462 270.295 96.4179 270.588 95.7769C270.88 95.1359 271.293 94.6359 271.826 94.2769C272.359 93.9128 272.98 93.7308 273.688 93.7308C274.364 93.7308 274.949 93.8897 275.441 94.2077C275.939 94.5256 276.318 94.9846 276.58 95.5846C276.847 96.1795 276.98 96.8846 276.98 97.7C276.98 97.9359 276.97 98.1718 276.949 98.4077H271.503ZM273.703 94.7923C273.077 94.7923 272.567 95.0128 272.172 95.4538C271.782 95.8897 271.562 96.541 271.511 97.4077H275.734C275.718 96.5564 275.531 95.9077 275.172 95.4615C274.813 95.0154 274.323 94.7923 273.703 94.7923ZM284.562 90.4769L285.855 90.6385V102H284.724L284.601 100.931C284.303 101.351 283.96 101.664 283.57 101.869C283.18 102.074 282.757 102.177 282.301 102.177C281.275 102.177 280.503 101.8 279.985 101.046C279.472 100.292 279.216 99.2641 279.216 97.9615C279.216 97.1462 279.342 96.4179 279.593 95.7769C279.849 95.1359 280.216 94.6359 280.693 94.2769C281.175 93.9128 281.742 93.7308 282.393 93.7308C282.855 93.7308 283.262 93.8103 283.616 93.9692C283.975 94.1282 284.29 94.3667 284.562 94.6846V90.4769ZM282.731 94.7692C282.049 94.7692 281.526 95.0385 281.162 95.5769C280.803 96.1103 280.624 96.9051 280.624 97.9615C280.624 99.0077 280.788 99.7974 281.116 100.331C281.449 100.864 281.934 101.131 282.57 101.131C283.334 101.131 283.998 100.705 284.562 99.8538V95.8077C284.342 95.4795 284.072 95.2256 283.755 95.0462C283.442 94.8615 283.101 94.7692 282.731 94.7692ZM306.012 96.2846H298.542V95.1615H306.012V96.2846ZM306.012 99.2077H298.542V98.0846H306.012V99.2077ZM309.017 92.5L313.202 97.1846L309.017 101.869L308.063 101.054L309.025 100.008C309.168 99.8385 309.309 99.6923 309.448 99.5692C309.586 99.4462 309.761 99.3256 309.971 99.2077H305.702V98.0846H310.763L311.586 97.1846L310.763 96.2846H305.702V95.1615H309.971C309.761 95.0436 309.586 94.9231 309.448 94.8C309.309 94.6769 309.168 94.5308 309.025 94.3615L308.063 93.3154L309.017 92.5ZM242.879 113.2H248.864V114.315H242.879V113.2ZM242.879 116.115H248.864V117.238H242.879V116.115ZM355.267 114.615C355.267 115.662 355.385 116.574 355.621 117.354C355.862 118.128 356.216 118.831 356.683 119.462C357.154 120.092 357.78 120.754 358.56 121.446L357.883 122.154C356.985 121.426 356.252 120.708 355.683 120C355.113 119.297 354.675 118.508 354.367 117.631C354.065 116.754 353.913 115.749 353.913 114.615C353.913 113.482 354.065 112.477 354.367 111.6C354.675 110.723 355.113 109.933 355.683 109.231C356.252 108.523 356.985 107.805 357.883 107.077L358.56 107.785C357.77 108.487 357.142 109.151 356.675 109.777C356.208 110.403 355.857 111.103 355.621 111.877C355.385 112.651 355.267 113.564 355.267 114.615ZM172.043 135.469C172.279 135.469 172.492 135.526 172.682 135.638C172.871 135.746 173.02 135.895 173.128 136.085C173.235 136.269 173.289 136.474 173.289 136.7C173.289 136.89 173.266 137.079 173.22 137.269C173.174 137.459 173.097 137.672 172.989 137.908L171.743 140.762H170.574L171.312 137.723C171.159 137.61 171.035 137.464 170.943 137.285C170.856 137.1 170.812 136.905 170.812 136.7C170.812 136.474 170.866 136.269 170.974 136.085C171.082 135.895 171.228 135.746 171.412 135.638C171.602 135.526 171.812 135.469 172.043 135.469ZM34.9615 150.615C34.9615 149.564 34.8436 148.651 34.6077 147.877C34.3718 147.103 34.0205 146.403 33.5538 145.777C33.0872 145.151 32.459 144.487 31.6692 143.785L32.3462 143.077C33.2436 143.805 33.9769 144.523 34.5462 145.231C35.1154 145.933 35.5513 146.723 35.8538 147.6C36.1615 148.477 36.3154 149.482 36.3154 150.615C36.3154 151.749 36.1615 152.754 35.8538 153.631C35.5513 154.508 35.1154 155.297 34.5462 156C33.9769 156.708 33.2436 157.426 32.3462 158.154L31.6692 157.446C32.4487 156.754 33.0718 156.092 33.5385 155.462C34.0103 154.831 34.3641 154.128 34.6 153.354C34.841 152.574 34.9615 151.662 34.9615 150.615ZM42.8285 148.138C43.0644 148.138 43.2772 148.195 43.467 148.308C43.6567 148.415 43.8054 148.564 43.9131 148.754C44.026 148.944 44.0824 149.151 44.0824 149.377C44.0824 149.603 44.026 149.813 43.9131 150.008C43.8054 150.197 43.6567 150.349 43.467 150.462C43.2772 150.574 43.0644 150.631 42.8285 150.631C42.5977 150.631 42.3875 150.574 42.1977 150.462C42.0131 150.349 41.8644 150.197 41.7516 150.008C41.6439 149.813 41.5901 149.603 41.5901 149.377C41.5901 149.151 41.6439 148.944 41.7516 148.754C41.8644 148.564 42.0131 148.415 42.1977 148.308C42.3875 148.195 42.5977 148.138 42.8285 148.138ZM42.8285 153.454C43.0644 153.454 43.2772 153.51 43.467 153.623C43.6567 153.731 43.8054 153.879 43.9131 154.069C44.026 154.254 44.0824 154.459 44.0824 154.685C44.0824 154.885 44.0593 155.079 44.0131 155.269C43.967 155.459 43.8875 155.672 43.7747 155.908L42.5285 158.769H41.3593L42.0977 155.715C41.9388 155.608 41.8131 155.464 41.7208 155.285C41.6336 155.1 41.5901 154.903 41.5901 154.692C41.5901 154.467 41.6439 154.259 41.7516 154.069C41.8644 153.879 42.0131 153.731 42.1977 153.623C42.3875 153.51 42.5977 153.454 42.8285 153.454Z" fill="#999999"/>
</svg>
