<svg width="409" height="175" viewBox="0 0 409 175" fill="none" xmlns="http://www.w3.org/2000/svg">
<rect width="409" height="175" rx="10" fill="#1A1A1A"/>
<path d="M33.6 35.5538C33.8769 35.5538 34.1231 35.6154 34.3385 35.7385C34.5538 35.8564 34.7231 36.0205 34.8462 36.2308C34.9692 36.4359 35.0308 36.6667 35.0308 36.9231C35.0308 37.1795 34.9692 37.4128 34.8462 37.6231C34.7231 37.8333 34.5513 38 34.3308 38.1231C34.1154 38.241 33.8718 38.3 33.6 38.3C33.3231 38.3 33.0744 38.241 32.8538 38.1231C32.6333 38 32.4615 37.8333 32.3385 37.6231C32.2154 37.4128 32.1538 37.1795 32.1538 36.9231C32.1538 36.6667 32.2154 36.4359 32.3385 36.2308C32.4615 36.0205 32.6333 35.8564 32.8538 35.7385C33.0744 35.6154 33.3231 35.5538 33.6 35.5538ZM30.4 39.8308H35.0692V46.3385H37.1462V48H30.3231V46.3385H32.6385V41.4923H30.4V39.8308ZM45.3439 39.5615C45.9285 39.5615 46.3593 39.7513 46.6362 40.1308C46.9131 40.5103 47.0516 41.1179 47.0516 41.9538V48H44.967V42.2308C44.967 41.9385 44.9388 41.7359 44.8824 41.6231C44.826 41.5051 44.7183 41.4462 44.5593 41.4462C44.4208 41.4462 44.2824 41.4872 44.1439 41.5692C44.0106 41.6462 43.867 41.7821 43.7131 41.9769V48H42.0054V42.2308C42.0054 41.9385 41.9772 41.7359 41.9208 41.6231C41.8644 41.5051 41.7567 41.4462 41.5977 41.4462C41.4593 41.4462 41.3208 41.4872 41.1824 41.5692C41.049 41.6462 40.9054 41.7821 40.7516 41.9769V48H38.6362V39.8308H40.4208L40.5824 40.6231C40.849 40.259 41.1131 39.9923 41.3747 39.8231C41.6362 39.6487 41.9413 39.5615 42.2901 39.5615C42.608 39.5615 42.8721 39.641 43.0824 39.8C43.2977 39.959 43.4516 40.2026 43.5439 40.5308C44.1029 39.8846 44.7029 39.5615 45.3439 39.5615ZM53.057 39.5615C54.0878 39.5615 54.8416 39.9385 55.3186 40.6923C55.8006 41.441 56.0416 42.5077 56.0416 43.8923C56.0416 44.7385 55.916 45.4923 55.6647 46.1538C55.4186 46.8103 55.0596 47.3256 54.5878 47.7C54.116 48.0744 53.5545 48.2615 52.9032 48.2615C52.1083 48.2615 51.4622 47.9769 50.9647 47.4077V51.1538L48.534 51.4077V39.8308H50.6878L50.7955 40.7462C51.1134 40.341 51.4673 40.0436 51.857 39.8538C52.2468 39.659 52.6468 39.5615 53.057 39.5615ZM52.3032 41.3538C52.0314 41.3538 51.7852 41.4359 51.5647 41.6C51.3493 41.759 51.1493 41.9923 50.9647 42.3V45.7462C51.1391 46.0026 51.3186 46.1897 51.5032 46.3077C51.6929 46.4205 51.9134 46.4769 52.1647 46.4769C52.6109 46.4769 52.9493 46.2744 53.1801 45.8692C53.416 45.4641 53.534 44.8154 53.534 43.9231C53.534 43.2667 53.4852 42.7513 53.3878 42.3769C53.2955 41.9974 53.1596 41.7333 52.9801 41.5846C52.8006 41.4308 52.575 41.3538 52.3032 41.3538ZM61.3009 39.5615C62.1266 39.5615 62.8368 39.741 63.4317 40.1C64.0317 40.4538 64.4881 40.9564 64.8009 41.6077C65.1138 42.259 65.2702 43.0205 65.2702 43.8923C65.2702 44.8 65.1112 45.5821 64.7932 46.2385C64.4804 46.8897 64.0266 47.3897 63.4317 47.7385C62.8368 48.0872 62.1266 48.2615 61.3009 48.2615C60.4702 48.2615 59.7573 48.0897 59.1625 47.7462C58.5676 47.4026 58.1138 46.9051 57.8009 46.2538C57.4881 45.5974 57.3317 44.8154 57.3317 43.9077C57.3317 43.041 57.4881 42.2821 57.8009 41.6308C58.1189 40.9744 58.5753 40.4667 59.1702 40.1077C59.7702 39.7436 60.4804 39.5615 61.3009 39.5615ZM61.3009 41.3538C60.8035 41.3538 60.4343 41.559 60.1932 41.9692C59.9573 42.3795 59.8394 43.0256 59.8394 43.9077C59.8394 44.8051 59.9573 45.459 60.1932 45.8692C60.4291 46.2744 60.7984 46.4769 61.3009 46.4769C61.8035 46.4769 62.1727 46.2718 62.4086 45.8615C62.6445 45.4513 62.7625 44.7949 62.7625 43.8923C62.7625 43.0154 62.642 42.3744 62.4009 41.9692C62.165 41.559 61.7984 41.3538 61.3009 41.3538ZM73.2294 39.5846C73.7166 39.5846 74.1653 39.6667 74.5756 39.8308L74.1218 43.2462H72.5987V41.7385C72.1474 41.8205 71.7474 42.0667 71.3987 42.4769C71.05 42.8872 70.7756 43.4051 70.5756 44.0308V46.3692H72.191V48H67.0679V46.3692H68.1448V41.4462H67.0679V39.8308H69.9987L70.4448 41.6692C70.7371 40.9667 71.1089 40.4436 71.5602 40.1C72.0166 39.7564 72.573 39.5846 73.2294 39.5846ZM83.5733 47.5231C83.2298 47.7487 82.8298 47.9282 82.3733 48.0615C81.9221 48.1949 81.4298 48.2615 80.8964 48.2615C79.8503 48.2615 79.0631 47.9949 78.5349 47.4615C78.0067 46.9282 77.7426 46.1795 77.7426 45.2154V41.5077H76.0272V39.8308H77.7426V38.0615L80.1733 37.7692V39.8308H82.8041L82.5657 41.5077H80.1733V45.2154C80.1733 45.6205 80.2631 45.9103 80.4426 46.0846C80.6272 46.259 80.9246 46.3462 81.3349 46.3462C81.8477 46.3462 82.3246 46.2231 82.7657 45.9769L83.5733 47.5231ZM116.672 36.1077C116.954 36.1077 117.182 36.1949 117.357 36.3692C117.531 36.5385 117.618 36.7513 117.618 37.0077C117.618 37.2744 117.531 37.4949 117.357 37.6692C117.182 37.8436 116.954 37.9308 116.672 37.9308C116.4 37.9308 116.177 37.8436 116.003 37.6692C115.828 37.4897 115.741 37.2692 115.741 37.0077C115.741 36.7513 115.828 36.5385 116.003 36.3692C116.177 36.1949 116.4 36.1077 116.672 36.1077ZM113.987 39.9H117.703V46.9769H119.987V48H113.91V46.9769H116.41V40.9231H113.987V39.9ZM125.585 47.1077C126.206 47.1077 126.695 46.9923 127.054 46.7615C127.418 46.5308 127.601 46.2179 127.601 45.8231C127.601 45.5564 127.552 45.3385 127.454 45.1692C127.362 44.9949 127.175 44.8359 126.893 44.6923C126.616 44.5487 126.198 44.4077 125.639 44.2692C125.018 44.1154 124.511 43.9487 124.116 43.7692C123.726 43.5846 123.421 43.3462 123.201 43.0538C122.985 42.7615 122.877 42.3897 122.877 41.9385C122.877 41.4923 123.006 41.1026 123.262 40.7692C123.518 40.4359 123.877 40.1795 124.339 40C124.806 39.8205 125.344 39.7308 125.954 39.7308C126.565 39.7308 127.113 39.8128 127.601 39.9769C128.093 40.1359 128.524 40.3513 128.893 40.6231L128.324 41.5C127.985 41.2692 127.629 41.0923 127.254 40.9692C126.885 40.841 126.457 40.7769 125.97 40.7769C125.36 40.7769 124.913 40.8718 124.631 41.0615C124.354 41.2462 124.216 41.5051 124.216 41.8385C124.216 42.0795 124.28 42.2769 124.408 42.4308C124.542 42.5846 124.754 42.7231 125.047 42.8462C125.344 42.9641 125.785 43.1026 126.37 43.2615C126.954 43.4205 127.434 43.5974 127.808 43.7923C128.183 43.9872 128.475 44.2436 128.685 44.5615C128.895 44.8744 129.001 45.2744 129.001 45.7615C129.001 46.3103 128.842 46.7667 128.524 47.1308C128.206 47.4897 127.788 47.7538 127.27 47.9231C126.757 48.0923 126.195 48.1769 125.585 48.1769C124.313 48.1769 123.257 47.8128 122.416 47.0846L123.154 46.2308C123.483 46.5077 123.854 46.7231 124.27 46.8769C124.685 47.0308 125.124 47.1077 125.585 47.1077ZM132.329 37.4077L135.16 46.4846L138.021 37.4077H139.368L135.821 48H134.437L130.891 37.4077H132.329ZM142.304 44.4077C142.324 45.0128 142.442 45.5179 142.658 45.9231C142.873 46.3231 143.155 46.6205 143.504 46.8154C143.852 47.0051 144.242 47.1 144.673 47.1C145.073 47.1 145.44 47.041 145.773 46.9231C146.111 46.8051 146.465 46.6205 146.834 46.3692L147.442 47.2231C147.063 47.5205 146.627 47.7538 146.134 47.9231C145.647 48.0923 145.155 48.1769 144.658 48.1769C143.883 48.1769 143.217 48.0026 142.658 47.6538C142.099 47.3051 141.673 46.8128 141.381 46.1769C141.093 45.541 140.95 44.8026 140.95 43.9615C140.95 43.1462 141.096 42.4179 141.388 41.7769C141.681 41.1359 142.093 40.6359 142.627 40.2769C143.16 39.9128 143.781 39.7308 144.488 39.7308C145.165 39.7308 145.75 39.8897 146.242 40.2077C146.74 40.5256 147.119 40.9846 147.381 41.5846C147.647 42.1795 147.781 42.8846 147.781 43.7C147.781 43.9359 147.77 44.1718 147.75 44.4077H142.304ZM144.504 40.7923C143.878 40.7923 143.368 41.0128 142.973 41.4538C142.583 41.8897 142.363 42.541 142.311 43.4077H146.534C146.519 42.5564 146.332 41.9077 145.973 41.4615C145.614 41.0154 145.124 40.7923 144.504 40.7923ZM155.986 39.7231C156.196 39.7231 156.389 39.7385 156.563 39.7692C156.737 39.7949 156.927 39.8385 157.132 39.9L156.948 42.6385H155.886V40.9154H155.817C155.191 40.9154 154.658 41.1359 154.217 41.5769C153.776 42.0179 153.419 42.6846 153.148 43.5769V47.0077H154.794V48H150.594V47.0077H151.855V40.8923H150.594V39.9H152.84L153.078 41.8154C153.407 41.1128 153.796 40.5897 154.248 40.2462C154.704 39.8974 155.284 39.7231 155.986 39.7231ZM162.815 36.1077C163.097 36.1077 163.325 36.1949 163.499 36.3692C163.674 36.5385 163.761 36.7513 163.761 37.0077C163.761 37.2744 163.674 37.4949 163.499 37.6692C163.325 37.8436 163.097 37.9308 162.815 37.9308C162.543 37.9308 162.32 37.8436 162.145 37.6692C161.971 37.4897 161.884 37.2692 161.884 37.0077C161.884 36.7513 161.971 36.5385 162.145 36.3692C162.32 36.1949 162.543 36.1077 162.815 36.1077ZM160.13 39.9H163.845V46.9769H166.13V48H160.053V46.9769H162.553V40.9231H160.13V39.9ZM173.759 36.4769C174.179 36.4769 174.566 36.5154 174.92 36.5923C175.274 36.6641 175.617 36.7718 175.951 36.9154L175.535 37.8769C175.033 37.6513 174.453 37.5385 173.797 37.5385C172.664 37.5385 172.097 37.9872 172.097 38.8846V40.5308H174.843L174.705 41.5462H172.097V48H170.805V41.5462H168.874V40.5308H170.805V38.9154C170.805 38.4282 170.933 38 171.189 37.6308C171.446 37.2615 171.797 36.9769 172.243 36.7769C172.689 36.5769 173.194 36.4769 173.759 36.4769ZM181.272 36.6692C181.554 36.6692 181.782 36.7564 181.956 36.9308C182.131 37.1 182.218 37.3128 182.218 37.5692C182.218 37.8359 182.131 38.0564 181.956 38.2308C181.787 38.4051 181.559 38.4923 181.272 38.4923C181 38.4923 180.777 38.4051 180.602 38.2308C180.428 38.0564 180.341 37.8359 180.341 37.5692C180.341 37.3128 180.428 37.1 180.602 36.9308C180.777 36.7564 181 36.6692 181.272 36.6692ZM178.587 40.5308H182.302V46.9769H184.587V48H178.51V46.9769H181.01V41.5462H178.587V40.5308ZM188.446 44.4077C188.467 45.0128 188.585 45.5179 188.8 45.9231C189.016 46.3231 189.298 46.6205 189.646 46.8154C189.995 47.0051 190.385 47.1 190.816 47.1C191.216 47.1 191.582 47.041 191.916 46.9231C192.254 46.8051 192.608 46.6205 192.977 46.3692L193.585 47.2231C193.205 47.5205 192.769 47.7538 192.277 47.9231C191.79 48.0923 191.298 48.1769 190.8 48.1769C190.026 48.1769 189.359 48.0026 188.8 47.6538C188.241 47.3051 187.816 46.8128 187.523 46.1769C187.236 45.541 187.092 44.8026 187.092 43.9615C187.092 43.1462 187.239 42.4179 187.531 41.7769C187.823 41.1359 188.236 40.6359 188.769 40.2769C189.303 39.9128 189.923 39.7308 190.631 39.7308C191.308 39.7308 191.892 39.8897 192.385 40.2077C192.882 40.5256 193.262 40.9846 193.523 41.5846C193.79 42.1795 193.923 42.8846 193.923 43.7C193.923 43.9359 193.913 44.1718 193.892 44.4077H188.446ZM190.646 40.7923C190.021 40.7923 189.51 41.0128 189.116 41.4538C188.726 41.8897 188.505 42.541 188.454 43.4077H192.677C192.662 42.5564 192.475 41.9077 192.116 41.4615C191.757 41.0154 191.267 40.7923 190.646 40.7923ZM201.506 36.4769L202.798 36.6385V48H201.667L201.544 46.9308C201.247 47.3513 200.903 47.6641 200.513 47.8692C200.124 48.0744 199.7 48.1769 199.244 48.1769C198.218 48.1769 197.447 47.8 196.929 47.0462C196.416 46.2923 196.159 45.2641 196.159 43.9615C196.159 43.1462 196.285 42.4179 196.536 41.7769C196.793 41.1359 197.159 40.6359 197.636 40.2769C198.118 39.9128 198.685 39.7308 199.336 39.7308C199.798 39.7308 200.206 39.8103 200.559 39.9692C200.918 40.1282 201.234 40.3667 201.506 40.6846V36.4769ZM199.675 40.7692C198.993 40.7692 198.47 41.0385 198.106 41.5769C197.747 42.1103 197.567 42.9051 197.567 43.9615C197.567 45.0077 197.731 45.7974 198.059 46.3308C198.393 46.8641 198.877 47.1308 199.513 47.1308C200.277 47.1308 200.941 46.7051 201.506 45.8538V41.8077C201.285 41.4795 201.016 41.2256 200.698 41.0462C200.385 40.8615 200.044 40.7692 199.675 40.7692ZM238.304 36.3308C239.366 36.3308 240.299 36.5026 241.104 36.8462L240.435 38.4308C239.891 38.2256 239.307 38.1231 238.681 38.1231C238.199 38.1231 237.853 38.2103 237.643 38.3846C237.438 38.559 237.335 38.8487 237.335 39.2538V40.3462H239.997L239.727 42.0308H237.335V48H234.92V42.0308H233.204V40.3462H234.92V39.1615C234.92 38.6179 235.048 38.1333 235.304 37.7077C235.566 37.2769 235.95 36.941 236.458 36.7C236.971 36.4538 237.586 36.3308 238.304 36.3308ZM248.571 39.5846C249.058 39.5846 249.507 39.6667 249.917 39.8308L249.464 43.2462H247.94V41.7385C247.489 41.8205 247.089 42.0667 246.74 42.4769C246.392 42.8872 246.117 43.4051 245.917 44.0308V46.3692H247.533V48H242.41V46.3692H243.487V41.4462H242.41V39.8308H245.34L245.787 41.6692C246.079 40.9667 246.451 40.4436 246.902 40.1C247.358 39.7564 247.915 39.5846 248.571 39.5846ZM255.1 39.5615C255.925 39.5615 256.636 39.741 257.231 40.1C257.831 40.4538 258.287 40.9564 258.6 41.6077C258.913 42.259 259.069 43.0205 259.069 43.8923C259.069 44.8 258.91 45.5821 258.592 46.2385C258.279 46.8897 257.825 47.3897 257.231 47.7385C256.636 48.0872 255.925 48.2615 255.1 48.2615C254.269 48.2615 253.556 48.0897 252.961 47.7462C252.366 47.4026 251.913 46.9051 251.6 46.2538C251.287 45.5974 251.131 44.8154 251.131 43.9077C251.131 43.041 251.287 42.2821 251.6 41.6308C251.918 40.9744 252.374 40.4667 252.969 40.1077C253.569 39.7436 254.279 39.5615 255.1 39.5615ZM255.1 41.3538C254.602 41.3538 254.233 41.559 253.992 41.9692C253.756 42.3795 253.638 43.0256 253.638 43.9077C253.638 44.8051 253.756 45.459 253.992 45.8692C254.228 46.2744 254.597 46.4769 255.1 46.4769C255.602 46.4769 255.972 46.2718 256.207 45.8615C256.443 45.4513 256.561 44.7949 256.561 43.8923C256.561 43.0154 256.441 42.3744 256.2 41.9692C255.964 41.559 255.597 41.3538 255.1 41.3538ZM266.828 39.5615C267.413 39.5615 267.844 39.7513 268.121 40.1308C268.398 40.5103 268.536 41.1179 268.536 41.9538V48H266.451V42.2308C266.451 41.9385 266.423 41.7359 266.367 41.6231C266.31 41.5051 266.203 41.4462 266.044 41.4462C265.905 41.4462 265.767 41.4872 265.628 41.5692C265.495 41.6462 265.351 41.7821 265.198 41.9769V48H263.49V42.2308C263.49 41.9385 263.462 41.7359 263.405 41.6231C263.349 41.5051 263.241 41.4462 263.082 41.4462C262.944 41.4462 262.805 41.4872 262.667 41.5692C262.533 41.6462 262.39 41.7821 262.236 41.9769V48H260.121V39.8308H261.905L262.067 40.6231C262.333 40.259 262.598 39.9923 262.859 39.8231C263.121 39.6487 263.426 39.5615 263.774 39.5615C264.092 39.5615 264.356 39.641 264.567 39.8C264.782 39.959 264.936 40.2026 265.028 40.5308C265.587 39.8846 266.187 39.5615 266.828 39.5615ZM34.4077 100.346C34.7205 100.346 35.0205 100.287 35.3077 100.169C35.6 100.046 35.9077 99.8718 36.2308 99.6462L37.3154 101.185C36.9308 101.513 36.4795 101.774 35.9615 101.969C35.4436 102.164 34.8821 102.262 34.2769 102.262C33.4103 102.262 32.659 102.082 32.0231 101.723C31.3872 101.364 30.9 100.862 30.5615 100.215C30.2231 99.5692 30.0538 98.8205 30.0538 97.9692C30.0538 97.1179 30.2282 96.359 30.5769 95.6923C30.9256 95.0256 31.4205 94.5051 32.0615 94.1308C32.7077 93.7513 33.4615 93.5615 34.3231 93.5615C34.9333 93.5615 35.4795 93.6462 35.9615 93.8154C36.4487 93.9846 36.9 94.241 37.3154 94.5846L36.2615 96.0462C35.6718 95.6359 35.059 95.4308 34.4231 95.4308C33.8436 95.4308 33.3923 95.6333 33.0692 96.0385C32.7513 96.4436 32.5923 97.0872 32.5923 97.9692C32.5923 98.8205 32.7538 99.4308 33.0769 99.8C33.4 100.164 33.8436 100.346 34.4077 100.346ZM42.8439 93.5615C43.6695 93.5615 44.3798 93.741 44.9747 94.1C45.5747 94.4538 46.0311 94.9564 46.3439 95.6077C46.6567 96.259 46.8131 97.0205 46.8131 97.8923C46.8131 98.8 46.6542 99.5821 46.3362 100.238C46.0234 100.89 45.5695 101.39 44.9747 101.738C44.3798 102.087 43.6695 102.262 42.8439 102.262C42.0131 102.262 41.3003 102.09 40.7054 101.746C40.1106 101.403 39.6567 100.905 39.3439 100.254C39.0311 99.5974 38.8747 98.8154 38.8747 97.9077C38.8747 97.041 39.0311 96.2821 39.3439 95.6308C39.6618 94.9744 40.1183 94.4667 40.7131 94.1077C41.3131 93.7436 42.0234 93.5615 42.8439 93.5615ZM42.8439 95.3538C42.3465 95.3538 41.9772 95.559 41.7362 95.9692C41.5003 96.3795 41.3824 97.0256 41.3824 97.9077C41.3824 98.8051 41.5003 99.459 41.7362 99.8692C41.9721 100.274 42.3413 100.477 42.8439 100.477C43.3465 100.477 43.7157 100.272 43.9516 99.8615C44.1875 99.4513 44.3054 98.7949 44.3054 97.8923C44.3054 97.0154 44.1849 96.3744 43.9439 95.9692C43.708 95.559 43.3413 95.3538 42.8439 95.3538ZM48.534 102V93.8308H50.657L50.8263 94.7769C51.1955 94.3615 51.5827 94.0564 51.9878 93.8615C52.3929 93.6615 52.8519 93.5615 53.3647 93.5615C54.0673 93.5615 54.616 93.7769 55.0109 94.2077C55.4109 94.6333 55.6109 95.2308 55.6109 96V102H53.1801V96.7C53.1801 96.3615 53.1545 96.0949 53.1032 95.9C53.057 95.7051 52.9775 95.5667 52.8647 95.4846C52.7519 95.3974 52.5955 95.3538 52.3955 95.3538C52.1493 95.3538 51.9083 95.4333 51.6724 95.5923C51.4416 95.7462 51.2057 95.9769 50.9647 96.2846V102H48.534ZM61.0394 100.523C61.4548 100.523 61.783 100.459 62.024 100.331C62.2702 100.197 62.3932 100.005 62.3932 99.7538C62.3932 99.5744 62.3445 99.4282 62.2471 99.3154C62.1496 99.1974 61.9676 99.0872 61.7009 98.9846C61.4343 98.8769 61.0189 98.7462 60.4548 98.5923C59.6343 98.3718 59.0061 98.0692 58.5702 97.6846C58.1394 97.3 57.924 96.7667 57.924 96.0846C57.924 95.5923 58.0599 95.1564 58.3317 94.7769C58.6086 94.3974 59.0138 94.1 59.5471 93.8846C60.0804 93.6692 60.7214 93.5615 61.4702 93.5615C62.7676 93.5615 63.8702 93.8923 64.7779 94.5538L63.8086 95.9846C63.4548 95.7692 63.083 95.6 62.6932 95.4769C62.3086 95.3538 61.924 95.2923 61.5394 95.2923C61.1445 95.2923 60.8496 95.3462 60.6548 95.4538C60.465 95.5564 60.3702 95.7128 60.3702 95.9231C60.3702 96.0667 60.4189 96.1872 60.5163 96.2846C60.6189 96.3821 60.8009 96.4821 61.0625 96.5846C61.3291 96.6872 61.742 96.8179 62.3009 96.9769C62.8907 97.141 63.3702 97.3231 63.7394 97.5231C64.1086 97.7179 64.3958 97.9795 64.6009 98.3077C64.8112 98.6308 64.9163 99.0487 64.9163 99.5615C64.9163 100.136 64.742 100.628 64.3932 101.038C64.0496 101.444 63.5855 101.749 63.0009 101.954C62.4163 102.159 61.7676 102.262 61.0548 102.262C60.2907 102.262 59.6035 102.154 58.9932 101.938C58.383 101.718 57.8573 101.415 57.4163 101.031L58.6394 99.6615C58.9779 99.9282 59.3496 100.138 59.7548 100.292C60.1599 100.446 60.5881 100.523 61.0394 100.523ZM74.3448 101.523C74.0012 101.749 73.6012 101.928 73.1448 102.062C72.6935 102.195 72.2012 102.262 71.6679 102.262C70.6218 102.262 69.8346 101.995 69.3064 101.462C68.7782 100.928 68.5141 100.179 68.5141 99.2154V95.5077H66.7987V93.8308H68.5141V92.0615L70.9448 91.7692V93.8308H73.5756L73.3371 95.5077H70.9448V99.2154C70.9448 99.6205 71.0346 99.9103 71.2141 100.085C71.3987 100.259 71.6961 100.346 72.1064 100.346C72.6192 100.346 73.0961 100.223 73.5371 99.9769L74.3448 101.523ZM91.3326 93.9H92.6711L89.7249 102H88.2249L85.3019 93.9H86.6711L89.0172 100.823L91.3326 93.9ZM96.1611 98.4077C96.1817 99.0128 96.2996 99.5179 96.515 99.9231C96.7304 100.323 97.0124 100.621 97.3611 100.815C97.7099 101.005 98.0996 101.1 98.5304 101.1C98.9304 101.1 99.297 101.041 99.6304 100.923C99.9688 100.805 100.323 100.621 100.692 100.369L101.3 101.223C100.92 101.521 100.484 101.754 99.9919 101.923C99.5047 102.092 99.0124 102.177 98.515 102.177C97.7406 102.177 97.074 102.003 96.515 101.654C95.956 101.305 95.5304 100.813 95.2381 100.177C94.9509 99.541 94.8073 98.8026 94.8073 97.9615C94.8073 97.1462 94.9535 96.4179 95.2458 95.7769C95.5381 95.1359 95.9509 94.6359 96.4842 94.2769C97.0176 93.9128 97.6381 93.7308 98.3458 93.7308C99.0227 93.7308 99.6073 93.8897 100.1 94.2077C100.597 94.5256 100.977 94.9846 101.238 95.5846C101.505 96.1795 101.638 96.8846 101.638 97.7C101.638 97.9359 101.628 98.1718 101.607 98.4077H96.1611ZM98.3611 94.7923C97.7355 94.7923 97.2253 95.0128 96.8304 95.4538C96.4406 95.8897 96.2201 96.541 96.1688 97.4077H100.392C100.377 96.5564 100.189 95.9077 99.8304 95.4615C99.4714 95.0154 98.9817 94.7923 98.3611 94.7923ZM109.844 93.7231C110.054 93.7231 110.246 93.7385 110.42 93.7692C110.595 93.7949 110.785 93.8385 110.99 93.9L110.805 96.6385H109.744V94.9154H109.674C109.049 94.9154 108.515 95.1359 108.074 95.5769C107.633 96.0179 107.277 96.6846 107.005 97.5769V101.008H108.651V102H104.451V101.008H105.713V94.8923H104.451V93.9H106.697L106.936 95.8154C107.264 95.1128 107.654 94.5897 108.105 94.2462C108.561 93.8974 109.141 93.7231 109.844 93.7231ZM116.672 90.1077C116.954 90.1077 117.182 90.1949 117.357 90.3692C117.531 90.5385 117.618 90.7513 117.618 91.0077C117.618 91.2744 117.531 91.4949 117.357 91.6692C117.182 91.8436 116.954 91.9308 116.672 91.9308C116.4 91.9308 116.177 91.8436 116.003 91.6692C115.828 91.4897 115.741 91.2692 115.741 91.0077C115.741 90.7513 115.828 90.5385 116.003 90.3692C116.177 90.1949 116.4 90.1077 116.672 90.1077ZM113.987 93.9H117.703V100.977H119.987V102H113.91V100.977H116.41V94.9231H113.987V93.9ZM127.616 90.4769C128.036 90.4769 128.424 90.5154 128.777 90.5923C129.131 90.6641 129.475 90.7718 129.808 90.9154L129.393 91.8769C128.89 91.6513 128.311 91.5385 127.654 91.5385C126.521 91.5385 125.954 91.9872 125.954 92.8846V94.5308H128.701L128.562 95.5462H125.954V102H124.662V95.5462H122.731V94.5308H124.662V92.9154C124.662 92.4282 124.79 92 125.047 91.6308C125.303 91.2615 125.654 90.9769 126.101 90.7769C126.547 90.5769 127.052 90.4769 127.616 90.4769ZM135.129 90.6692C135.411 90.6692 135.639 90.7564 135.814 90.9308C135.988 91.1 136.075 91.3128 136.075 91.5692C136.075 91.8359 135.988 92.0564 135.814 92.2308C135.644 92.4051 135.416 92.4923 135.129 92.4923C134.857 92.4923 134.634 92.4051 134.46 92.2308C134.285 92.0564 134.198 91.8359 134.198 91.5692C134.198 91.3128 134.285 91.1 134.46 90.9308C134.634 90.7564 134.857 90.6692 135.129 90.6692ZM132.444 94.5308H136.16V100.977H138.444V102H132.368V100.977H134.868V95.5462H132.444V94.5308ZM142.304 98.4077C142.324 99.0128 142.442 99.5179 142.658 99.9231C142.873 100.323 143.155 100.621 143.504 100.815C143.852 101.005 144.242 101.1 144.673 101.1C145.073 101.1 145.44 101.041 145.773 100.923C146.111 100.805 146.465 100.621 146.834 100.369L147.442 101.223C147.063 101.521 146.627 101.754 146.134 101.923C145.647 102.092 145.155 102.177 144.658 102.177C143.883 102.177 143.217 102.003 142.658 101.654C142.099 101.305 141.673 100.813 141.381 100.177C141.093 99.541 140.95 98.8026 140.95 97.9615C140.95 97.1462 141.096 96.4179 141.388 95.7769C141.681 95.1359 142.093 94.6359 142.627 94.2769C143.16 93.9128 143.781 93.7308 144.488 93.7308C145.165 93.7308 145.75 93.8897 146.242 94.2077C146.74 94.5256 147.119 94.9846 147.381 95.5846C147.647 96.1795 147.781 96.8846 147.781 97.7C147.781 97.9359 147.77 98.1718 147.75 98.4077H142.304ZM144.504 94.7923C143.878 94.7923 143.368 95.0128 142.973 95.4538C142.583 95.8897 142.363 96.541 142.311 97.4077H146.534C146.519 96.5564 146.332 95.9077 145.973 95.4615C145.614 95.0154 145.124 94.7923 144.504 94.7923ZM155.363 90.4769L156.655 90.6385V102H155.525L155.401 100.931C155.104 101.351 154.76 101.664 154.371 101.869C153.981 102.074 153.558 102.177 153.101 102.177C152.076 102.177 151.304 101.8 150.786 101.046C150.273 100.292 150.017 99.2641 150.017 97.9615C150.017 97.1462 150.142 96.4179 150.394 95.7769C150.65 95.1359 151.017 94.6359 151.494 94.2769C151.976 93.9128 152.542 93.7308 153.194 93.7308C153.655 93.7308 154.063 93.8103 154.417 93.9692C154.776 94.1282 155.091 94.3667 155.363 94.6846V90.4769ZM153.532 94.7692C152.85 94.7692 152.327 95.0385 151.963 95.5769C151.604 96.1103 151.425 96.9051 151.425 97.9615C151.425 99.0077 151.589 99.7974 151.917 100.331C152.25 100.864 152.735 101.131 153.371 101.131C154.135 101.131 154.799 100.705 155.363 99.8538V95.8077C155.142 95.4795 154.873 95.2256 154.555 95.0462C154.242 94.8615 153.901 94.7692 153.532 94.7692ZM193.839 99.6462C193.839 99.9487 193.88 100.172 193.962 100.315C194.044 100.454 194.182 100.559 194.377 100.631L193.877 102.231C193.38 102.185 192.967 102.077 192.639 101.908C192.316 101.733 192.062 101.482 191.877 101.154C191.575 101.518 191.182 101.795 190.7 101.985C190.223 102.169 189.718 102.262 189.185 102.262C188.631 102.262 188.144 102.154 187.723 101.938C187.308 101.718 186.987 101.415 186.762 101.031C186.536 100.641 186.423 100.195 186.423 99.6923C186.423 99.1077 186.58 98.6077 186.892 98.1923C187.205 97.7769 187.659 97.4615 188.254 97.2462C188.849 97.0256 189.564 96.9154 190.4 96.9154H191.5V96.6077C191.5 95.7718 190.962 95.3538 189.885 95.3538C189.613 95.3538 189.269 95.3923 188.854 95.4692C188.444 95.5462 188.041 95.6513 187.646 95.7846L187.085 94.1692C187.598 93.9744 188.139 93.8256 188.708 93.7231C189.277 93.6154 189.798 93.5615 190.269 93.5615C191.469 93.5615 192.364 93.8051 192.954 94.2923C193.544 94.7795 193.839 95.4974 193.839 96.4462V99.6462ZM190.023 100.523C190.3 100.523 190.58 100.444 190.862 100.285C191.144 100.121 191.357 99.9 191.5 99.6231V98.3H190.9C190.233 98.3 189.739 98.4026 189.416 98.6077C189.092 98.8128 188.931 99.1179 188.931 99.5231C188.931 99.841 189.026 100.087 189.216 100.262C189.41 100.436 189.68 100.523 190.023 100.523ZM204.29 93.8308L203.129 102H200.444L199.744 96.5077L199.013 102H196.375L195.167 93.8308H197.39L197.921 100.485L198.783 94.8615H200.829L201.598 100.485L202.144 93.8308H204.29ZM212.296 99.6462C212.296 99.9487 212.337 100.172 212.419 100.315C212.501 100.454 212.639 100.559 212.834 100.631L212.334 102.231C211.837 102.185 211.424 102.077 211.096 101.908C210.773 101.733 210.519 101.482 210.334 101.154C210.032 101.518 209.639 101.795 209.157 101.985C208.68 102.169 208.175 102.262 207.642 102.262C207.088 102.262 206.601 102.154 206.18 101.938C205.765 101.718 205.444 101.415 205.219 101.031C204.993 100.641 204.88 100.195 204.88 99.6923C204.88 99.1077 205.037 98.6077 205.349 98.1923C205.662 97.7769 206.116 97.4615 206.711 97.2462C207.306 97.0256 208.021 96.9154 208.857 96.9154H209.957V96.6077C209.957 95.7718 209.419 95.3538 208.342 95.3538C208.07 95.3538 207.726 95.3923 207.311 95.4692C206.901 95.5462 206.498 95.6513 206.103 95.7846L205.542 94.1692C206.055 93.9744 206.596 93.8256 207.165 93.7231C207.734 93.6154 208.255 93.5615 208.726 93.5615C209.926 93.5615 210.821 93.8051 211.411 94.2923C212.001 94.7795 212.296 95.4974 212.296 96.4462V99.6462ZM208.48 100.523C208.757 100.523 209.037 100.444 209.319 100.285C209.601 100.121 209.814 99.9 209.957 99.6231V98.3H209.357C208.691 98.3 208.196 98.4026 207.873 98.6077C207.549 98.8128 207.388 99.1179 207.388 99.5231C207.388 99.841 207.483 100.087 207.673 100.262C207.867 100.436 208.137 100.523 208.48 100.523ZM218.17 89.5538C218.447 89.5538 218.693 89.6154 218.909 89.7385C219.124 89.8564 219.293 90.0205 219.416 90.2308C219.54 90.4359 219.601 90.6667 219.601 90.9231C219.601 91.1795 219.54 91.4128 219.416 91.6231C219.293 91.8333 219.122 92 218.901 92.1231C218.686 92.241 218.442 92.3 218.17 92.3C217.893 92.3 217.645 92.241 217.424 92.1231C217.204 92 217.032 91.8333 216.909 91.6231C216.786 91.4128 216.724 91.1795 216.724 90.9231C216.724 90.6667 216.786 90.4359 216.909 90.2308C217.032 90.0205 217.204 89.8564 217.424 89.7385C217.645 89.6154 217.893 89.5538 218.17 89.5538ZM214.97 93.8308H219.64V100.338H221.716V102H214.893V100.338H217.209V95.4923H214.97V93.8308ZM231.23 101.523C230.886 101.749 230.486 101.928 230.03 102.062C229.578 102.195 229.086 102.262 228.553 102.262C227.507 102.262 226.719 101.995 226.191 101.462C225.663 100.928 225.399 100.179 225.399 99.2154V95.5077H223.683V93.8308H225.399V92.0615L227.83 91.7692V93.8308H230.46L230.222 95.5077H227.83V99.2154C227.83 99.6205 227.919 99.9103 228.099 100.085C228.283 100.259 228.581 100.346 228.991 100.346C229.504 100.346 229.981 100.223 230.422 99.9769L231.23 101.523ZM245.871 90.1077C246.153 90.1077 246.382 90.1949 246.556 90.3692C246.73 90.5385 246.817 90.7513 246.817 91.0077C246.817 91.2744 246.73 91.4949 246.556 91.6692C246.382 91.8436 246.153 91.9308 245.871 91.9308C245.599 91.9308 245.376 91.8436 245.202 91.6692C245.028 91.4897 244.94 91.2692 244.94 91.0077C244.94 90.7513 245.028 90.5385 245.202 90.3692C245.376 90.1949 245.599 90.1077 245.871 90.1077ZM243.187 93.9H246.902V100.977H249.187V102H243.11V100.977H245.61V94.9231H243.187V93.9ZM254.784 101.108C255.405 101.108 255.895 100.992 256.254 100.762C256.618 100.531 256.8 100.218 256.8 99.8231C256.8 99.5564 256.751 99.3385 256.654 99.1692C256.561 98.9949 256.374 98.8359 256.092 98.6923C255.815 98.5487 255.397 98.4077 254.838 98.2692C254.218 98.1154 253.71 97.9487 253.315 97.7692C252.925 97.5846 252.62 97.3462 252.4 97.0538C252.184 96.7615 252.077 96.3897 252.077 95.9385C252.077 95.4923 252.205 95.1026 252.461 94.7692C252.718 94.4359 253.077 94.1795 253.538 94C254.005 93.8205 254.543 93.7308 255.154 93.7308C255.764 93.7308 256.313 93.8128 256.8 93.9769C257.292 94.1359 257.723 94.3513 258.092 94.6231L257.523 95.5C257.184 95.2692 256.828 95.0923 256.454 94.9692C256.084 94.841 255.656 94.7769 255.169 94.7769C254.559 94.7769 254.113 94.8718 253.831 95.0615C253.554 95.2462 253.415 95.5051 253.415 95.8385C253.415 96.0795 253.479 96.2769 253.607 96.4308C253.741 96.5846 253.954 96.7231 254.246 96.8462C254.543 96.9641 254.984 97.1026 255.569 97.2615C256.154 97.4205 256.633 97.5974 257.007 97.7923C257.382 97.9872 257.674 98.2436 257.884 98.5615C258.095 98.8744 258.2 99.2744 258.2 99.7615C258.2 100.31 258.041 100.767 257.723 101.131C257.405 101.49 256.987 101.754 256.469 101.923C255.956 102.092 255.395 102.177 254.784 102.177C253.513 102.177 252.456 101.813 251.615 101.085L252.354 100.231C252.682 100.508 253.054 100.723 253.469 100.877C253.884 101.031 254.323 101.108 254.784 101.108ZM261.528 91.4077L264.359 100.485L267.221 91.4077H268.567L265.021 102H263.636L260.09 91.4077H261.528ZM271.503 98.4077C271.523 99.0128 271.641 99.5179 271.857 99.9231C272.072 100.323 272.354 100.621 272.703 100.815C273.052 101.005 273.441 101.1 273.872 101.1C274.272 101.1 274.639 101.041 274.972 100.923C275.311 100.805 275.664 100.621 276.034 100.369L276.641 101.223C276.262 101.521 275.826 101.754 275.334 101.923C274.847 102.092 274.354 102.177 273.857 102.177C273.082 102.177 272.416 102.003 271.857 101.654C271.298 101.305 270.872 100.813 270.58 100.177C270.293 99.541 270.149 98.8026 270.149 97.9615C270.149 97.1462 270.295 96.4179 270.588 95.7769C270.88 95.1359 271.293 94.6359 271.826 94.2769C272.359 93.9128 272.98 93.7308 273.688 93.7308C274.364 93.7308 274.949 93.8897 275.441 94.2077C275.939 94.5256 276.318 94.9846 276.58 95.5846C276.847 96.1795 276.98 96.8846 276.98 97.7C276.98 97.9359 276.97 98.1718 276.949 98.4077H271.503ZM273.703 94.7923C273.077 94.7923 272.567 95.0128 272.172 95.4538C271.782 95.8897 271.562 96.541 271.511 97.4077H275.734C275.718 96.5564 275.531 95.9077 275.172 95.4615C274.813 95.0154 274.323 94.7923 273.703 94.7923ZM285.185 93.7231C285.396 93.7231 285.588 93.7385 285.762 93.7692C285.937 93.7949 286.126 93.8385 286.331 93.9L286.147 96.6385H285.085V94.9154H285.016C284.39 94.9154 283.857 95.1359 283.416 95.5769C282.975 96.0179 282.619 96.6846 282.347 97.5769V101.008H283.993V102H279.793V101.008H281.055V94.8923H279.793V93.9H282.039L282.278 95.8154C282.606 95.1128 282.996 94.5897 283.447 94.2462C283.903 93.8974 284.483 93.7231 285.185 93.7231ZM292.014 90.1077C292.296 90.1077 292.524 90.1949 292.698 90.3692C292.873 90.5385 292.96 90.7513 292.96 91.0077C292.96 91.2744 292.873 91.4949 292.698 91.6692C292.524 91.8436 292.296 91.9308 292.014 91.9308C291.742 91.9308 291.519 91.8436 291.345 91.6692C291.17 91.4897 291.083 91.2692 291.083 91.0077C291.083 90.7513 291.17 90.5385 291.345 90.3692C291.519 90.1949 291.742 90.1077 292.014 90.1077ZM289.329 93.9H293.045V100.977H295.329V102H289.252V100.977H291.752V94.9231H289.329V93.9ZM302.958 90.4769C303.378 90.4769 303.765 90.5154 304.119 90.5923C304.473 90.6641 304.817 90.7718 305.15 90.9154L304.735 91.8769C304.232 91.6513 303.653 91.5385 302.996 91.5385C301.863 91.5385 301.296 91.9872 301.296 92.8846V94.5308H304.042L303.904 95.5462H301.296V102H300.004V95.5462H298.073V94.5308H300.004V92.9154C300.004 92.4282 300.132 92 300.388 91.6308C300.645 91.2615 300.996 90.9769 301.442 90.7769C301.888 90.5769 302.394 90.4769 302.958 90.4769ZM310.471 90.6692C310.753 90.6692 310.981 90.7564 311.155 90.9308C311.33 91.1 311.417 91.3128 311.417 91.5692C311.417 91.8359 311.33 92.0564 311.155 92.2308C310.986 92.4051 310.758 92.4923 310.471 92.4923C310.199 92.4923 309.976 92.4051 309.802 92.2308C309.627 92.0564 309.54 91.8359 309.54 91.5692C309.54 91.3128 309.627 91.1 309.802 90.9308C309.976 90.7564 310.199 90.6692 310.471 90.6692ZM307.786 94.5308H311.502V100.977H313.786V102H307.709V100.977H310.209V95.5462H307.786V94.5308ZM317.646 98.4077C317.666 99.0128 317.784 99.5179 317.999 99.9231C318.215 100.323 318.497 100.621 318.846 100.815C319.194 101.005 319.584 101.1 320.015 101.1C320.415 101.1 320.781 101.041 321.115 100.923C321.453 100.805 321.807 100.621 322.176 100.369L322.784 101.223C322.404 101.521 321.969 101.754 321.476 101.923C320.989 102.092 320.497 102.177 319.999 102.177C319.225 102.177 318.558 102.003 317.999 101.654C317.44 101.305 317.015 100.813 316.722 100.177C316.435 99.541 316.292 98.8026 316.292 97.9615C316.292 97.1462 316.438 96.4179 316.73 95.7769C317.022 95.1359 317.435 94.6359 317.969 94.2769C318.502 93.9128 319.122 93.7308 319.83 93.7308C320.507 93.7308 321.092 93.8897 321.584 94.2077C322.081 94.5256 322.461 94.9846 322.722 95.5846C322.989 96.1795 323.122 96.8846 323.122 97.7C323.122 97.9359 323.112 98.1718 323.092 98.4077H317.646ZM319.846 94.7923C319.22 94.7923 318.71 95.0128 318.315 95.4538C317.925 95.8897 317.704 96.541 317.653 97.4077H321.876C321.861 96.5564 321.674 95.9077 321.315 95.4615C320.956 95.0154 320.466 94.7923 319.846 94.7923ZM330.705 90.4769L331.997 90.6385V102H330.866L330.743 100.931C330.446 101.351 330.102 101.664 329.712 101.869C329.323 102.074 328.9 102.177 328.443 102.177C327.418 102.177 326.646 101.8 326.128 101.046C325.615 100.292 325.359 99.2641 325.359 97.9615C325.359 97.1462 325.484 96.4179 325.736 95.7769C325.992 95.1359 326.359 94.6359 326.836 94.2769C327.318 93.9128 327.884 93.7308 328.536 93.7308C328.997 93.7308 329.405 93.8103 329.759 93.9692C330.118 94.1282 330.433 94.3667 330.705 94.6846V90.4769ZM328.874 94.7692C328.192 94.7692 327.669 95.0385 327.305 95.5769C326.946 96.1103 326.766 96.9051 326.766 97.9615C326.766 99.0077 326.93 99.7974 327.259 100.331C327.592 100.864 328.077 101.131 328.712 101.131C329.477 101.131 330.141 100.705 330.705 99.8538V95.8077C330.484 95.4795 330.215 95.2256 329.897 95.0462C329.584 94.8615 329.243 94.7692 328.874 94.7692ZM56.4186 111.9L55.0032 120H53.1724L52.1263 114.054L50.9878 120H49.2032L47.7263 111.9H49.0493L50.0801 119.2L51.3724 112.931H52.9032L54.1263 119.2L55.157 111.9H56.4186ZM64.0317 118.231C64.0317 118.549 64.083 118.785 64.1855 118.938C64.2881 119.087 64.4573 119.197 64.6932 119.269L64.3779 120.177C63.5984 120.074 63.1035 119.695 62.8932 119.038C62.6061 119.413 62.242 119.697 61.8009 119.892C61.365 120.082 60.883 120.177 60.3548 120.177C59.8214 120.177 59.3573 120.074 58.9625 119.869C58.5676 119.664 58.265 119.374 58.0548 119C57.8445 118.621 57.7394 118.179 57.7394 117.677C57.7394 116.841 58.065 116.2 58.7163 115.754C59.3676 115.308 60.3086 115.085 61.5394 115.085H62.7317V114.408C62.7317 113.844 62.5676 113.436 62.2394 113.185C61.9112 112.928 61.4317 112.8 60.8009 112.8C60.1907 112.8 59.4881 112.938 58.6932 113.215L58.3548 112.238C59.2573 111.9 60.1394 111.731 61.0009 111.731C61.9907 111.731 62.742 111.964 63.2548 112.431C63.7727 112.892 64.0317 113.531 64.0317 114.346V118.231ZM60.6855 119.192C61.0855 119.192 61.465 119.092 61.824 118.892C62.1881 118.687 62.4907 118.405 62.7317 118.046V115.962H61.5625C60.7061 115.962 60.0855 116.108 59.7009 116.4C59.3163 116.692 59.124 117.113 59.124 117.662C59.124 118.682 59.6445 119.192 60.6855 119.192ZM70.6141 118C70.6141 118.379 70.732 118.659 70.9679 118.838C71.2089 119.013 71.5371 119.1 71.9525 119.1C72.3884 119.1 72.8423 119.005 73.3141 118.815L73.6602 119.762C73.4141 119.885 73.1269 119.985 72.7987 120.062C72.4705 120.138 72.1166 120.177 71.7371 120.177C71.2602 120.177 70.8371 120.087 70.4679 119.908C70.1038 119.728 69.8218 119.469 69.6218 119.131C69.4218 118.792 69.3218 118.392 69.3218 117.931V109.662H66.8371V108.638H70.6141V118ZM79.8426 118C79.8426 118.379 79.9605 118.659 80.1964 118.838C80.4374 119.013 80.7657 119.1 81.181 119.1C81.6169 119.1 82.0708 119.005 82.5426 118.815L82.8887 119.762C82.6426 119.885 82.3554 119.985 82.0272 120.062C81.699 120.138 81.3451 120.177 80.9657 120.177C80.4887 120.177 80.0657 120.087 79.6964 119.908C79.3323 119.728 79.0503 119.469 78.8503 119.131C78.6503 118.792 78.5503 118.392 78.5503 117.931V109.662H76.0657V108.638H79.8426V118ZM86.9326 116.408C86.9531 117.013 87.0711 117.518 87.2865 117.923C87.5019 118.323 87.7839 118.621 88.1326 118.815C88.4814 119.005 88.8711 119.1 89.3019 119.1C89.7019 119.1 90.0685 119.041 90.4019 118.923C90.7403 118.805 91.0942 118.621 91.4634 118.369L92.0711 119.223C91.6916 119.521 91.2557 119.754 90.7634 119.923C90.2762 120.092 89.7839 120.177 89.2865 120.177C88.5121 120.177 87.8455 120.003 87.2865 119.654C86.7275 119.305 86.3019 118.813 86.0096 118.177C85.7224 117.541 85.5788 116.803 85.5788 115.962C85.5788 115.146 85.7249 114.418 86.0172 113.777C86.3096 113.136 86.7224 112.636 87.2557 112.277C87.789 111.913 88.4096 111.731 89.1172 111.731C89.7942 111.731 90.3788 111.89 90.8711 112.208C91.3685 112.526 91.748 112.985 92.0096 113.585C92.2762 114.179 92.4096 114.885 92.4096 115.7C92.4096 115.936 92.3993 116.172 92.3788 116.408H86.9326ZM89.1326 112.792C88.507 112.792 87.9967 113.013 87.6019 113.454C87.2121 113.89 86.9916 114.541 86.9403 115.408H91.1634C91.148 114.556 90.9608 113.908 90.6019 113.462C90.2429 113.015 89.7531 112.792 89.1326 112.792ZM101.577 119.592C101.305 119.772 100.969 119.913 100.569 120.015C100.174 120.123 99.7868 120.177 99.4073 120.177C98.8381 120.177 98.3483 120.074 97.9381 119.869C97.5329 119.659 97.2227 119.369 97.0073 119C96.7919 118.631 96.6842 118.208 96.6842 117.731V112.9H94.8227V111.9H96.6842V110.062L97.9765 109.908V111.9H100.777L100.623 112.9H97.9765V117.715C97.9765 118.177 98.097 118.523 98.3381 118.754C98.5842 118.985 98.9791 119.1 99.5227 119.1C100.071 119.1 100.589 118.972 101.077 118.715L101.577 119.592ZM110.344 120L109.497 117.3H105.305L104.459 120H103.144L106.59 109.408H108.297L111.744 120H110.344ZM107.413 110.531L105.651 116.192H109.151L107.413 110.531ZM118.449 108.477L119.741 108.638V120H118.61L118.487 118.931C118.19 119.351 117.846 119.664 117.457 119.869C117.067 120.074 116.644 120.177 116.187 120.177C115.162 120.177 114.39 119.8 113.872 119.046C113.359 118.292 113.103 117.264 113.103 115.962C113.103 115.146 113.228 114.418 113.48 113.777C113.736 113.136 114.103 112.636 114.58 112.277C115.062 111.913 115.628 111.731 116.28 111.731C116.741 111.731 117.149 111.81 117.503 111.969C117.862 112.128 118.177 112.367 118.449 112.685V108.477ZM116.618 112.769C115.936 112.769 115.413 113.038 115.049 113.577C114.69 114.11 114.51 114.905 114.51 115.962C114.51 117.008 114.675 117.797 115.003 118.331C115.336 118.864 115.821 119.131 116.457 119.131C117.221 119.131 117.885 118.705 118.449 117.854V113.808C118.228 113.479 117.959 113.226 117.641 113.046C117.328 112.862 116.987 112.769 116.618 112.769ZM127.677 108.477L128.97 108.638V120H127.839L127.716 118.931C127.418 119.351 127.075 119.664 126.685 119.869C126.295 120.074 125.872 120.177 125.416 120.177C124.39 120.177 123.618 119.8 123.101 119.046C122.588 118.292 122.331 117.264 122.331 115.962C122.331 115.146 122.457 114.418 122.708 113.777C122.965 113.136 123.331 112.636 123.808 112.277C124.29 111.913 124.857 111.731 125.508 111.731C125.97 111.731 126.377 111.81 126.731 111.969C127.09 112.128 127.406 112.367 127.677 112.685V108.477ZM125.847 112.769C125.165 112.769 124.642 113.038 124.277 113.577C123.918 114.11 123.739 114.905 123.739 115.962C123.739 117.008 123.903 117.797 124.231 118.331C124.565 118.864 125.049 119.131 125.685 119.131C126.449 119.131 127.113 118.705 127.677 117.854V113.808C127.457 113.479 127.188 113.226 126.87 113.046C126.557 112.862 126.216 112.769 125.847 112.769ZM137.529 111.723C137.739 111.723 137.932 111.738 138.106 111.769C138.28 111.795 138.47 111.838 138.675 111.9L138.491 114.638H137.429V112.915H137.36C136.734 112.915 136.201 113.136 135.76 113.577C135.319 114.018 134.962 114.685 134.691 115.577V119.008H136.337V120H132.137V119.008H133.398V112.892H132.137V111.9H134.383L134.621 113.815C134.95 113.113 135.339 112.59 135.791 112.246C136.247 111.897 136.826 111.723 137.529 111.723ZM142.304 116.408C142.324 117.013 142.442 117.518 142.658 117.923C142.873 118.323 143.155 118.621 143.504 118.815C143.852 119.005 144.242 119.1 144.673 119.1C145.073 119.1 145.44 119.041 145.773 118.923C146.111 118.805 146.465 118.621 146.834 118.369L147.442 119.223C147.063 119.521 146.627 119.754 146.134 119.923C145.647 120.092 145.155 120.177 144.658 120.177C143.883 120.177 143.217 120.003 142.658 119.654C142.099 119.305 141.673 118.813 141.381 118.177C141.093 117.541 140.95 116.803 140.95 115.962C140.95 115.146 141.096 114.418 141.388 113.777C141.681 113.136 142.093 112.636 142.627 112.277C143.16 111.913 143.781 111.731 144.488 111.731C145.165 111.731 145.75 111.89 146.242 112.208C146.74 112.526 147.119 112.985 147.381 113.585C147.647 114.179 147.781 114.885 147.781 115.7C147.781 115.936 147.77 116.172 147.75 116.408H142.304ZM144.504 112.792C143.878 112.792 143.368 113.013 142.973 113.454C142.583 113.89 142.363 114.541 142.311 115.408H146.534C146.519 114.556 146.332 113.908 145.973 113.462C145.614 113.015 145.124 112.792 144.504 112.792ZM153.271 119.108C153.891 119.108 154.381 118.992 154.74 118.762C155.104 118.531 155.286 118.218 155.286 117.823C155.286 117.556 155.237 117.338 155.14 117.169C155.048 116.995 154.86 116.836 154.578 116.692C154.301 116.549 153.884 116.408 153.325 116.269C152.704 116.115 152.196 115.949 151.801 115.769C151.412 115.585 151.107 115.346 150.886 115.054C150.671 114.762 150.563 114.39 150.563 113.938C150.563 113.492 150.691 113.103 150.948 112.769C151.204 112.436 151.563 112.179 152.025 112C152.491 111.821 153.03 111.731 153.64 111.731C154.25 111.731 154.799 111.813 155.286 111.977C155.778 112.136 156.209 112.351 156.578 112.623L156.009 113.5C155.671 113.269 155.314 113.092 154.94 112.969C154.571 112.841 154.142 112.777 153.655 112.777C153.045 112.777 152.599 112.872 152.317 113.062C152.04 113.246 151.901 113.505 151.901 113.838C151.901 114.079 151.966 114.277 152.094 114.431C152.227 114.585 152.44 114.723 152.732 114.846C153.03 114.964 153.471 115.103 154.055 115.262C154.64 115.421 155.119 115.597 155.494 115.792C155.868 115.987 156.16 116.244 156.371 116.562C156.581 116.874 156.686 117.274 156.686 117.762C156.686 118.31 156.527 118.767 156.209 119.131C155.891 119.49 155.473 119.754 154.955 119.923C154.442 120.092 153.881 120.177 153.271 120.177C151.999 120.177 150.942 119.813 150.101 119.085L150.84 118.231C151.168 118.508 151.54 118.723 151.955 118.877C152.371 119.031 152.809 119.108 153.271 119.108ZM162.499 119.108C163.12 119.108 163.609 118.992 163.968 118.762C164.333 118.531 164.515 118.218 164.515 117.823C164.515 117.556 164.466 117.338 164.368 117.169C164.276 116.995 164.089 116.836 163.807 116.692C163.53 116.549 163.112 116.408 162.553 116.269C161.933 116.115 161.425 115.949 161.03 115.769C160.64 115.585 160.335 115.346 160.115 115.054C159.899 114.762 159.792 114.39 159.792 113.938C159.792 113.492 159.92 113.103 160.176 112.769C160.433 112.436 160.792 112.179 161.253 112C161.72 111.821 162.258 111.731 162.868 111.731C163.479 111.731 164.027 111.813 164.515 111.977C165.007 112.136 165.438 112.351 165.807 112.623L165.238 113.5C164.899 113.269 164.543 113.092 164.168 112.969C163.799 112.841 163.371 112.777 162.884 112.777C162.274 112.777 161.827 112.872 161.545 113.062C161.268 113.246 161.13 113.505 161.13 113.838C161.13 114.079 161.194 114.277 161.322 114.431C161.456 114.585 161.668 114.723 161.961 114.846C162.258 114.964 162.699 115.103 163.284 115.262C163.868 115.421 164.348 115.597 164.722 115.792C165.097 115.987 165.389 116.244 165.599 116.562C165.809 116.874 165.915 117.274 165.915 117.762C165.915 118.31 165.756 118.767 165.438 119.131C165.12 119.49 164.702 119.754 164.184 119.923C163.671 120.092 163.109 120.177 162.499 120.177C161.227 120.177 160.171 119.813 159.33 119.085L160.068 118.231C160.397 118.508 160.768 118.723 161.184 118.877C161.599 119.031 162.038 119.108 162.499 119.108Z" fill="white"/>
<path d="M100.546 36.1615C99.9201 36.1615 99.4304 36.2564 99.0765 36.4462C98.7227 36.6359 98.5663 36.9513 98.6073 37.3923L98.9304 40.5462C98.9458 40.6744 98.9535 40.8 98.9535 40.9231C98.9535 41.4256 98.8304 41.8128 98.5842 42.0846C98.3432 42.3513 97.9791 42.5282 97.4919 42.6154C97.9894 42.7026 98.356 42.8744 98.5919 43.1308C98.8329 43.3821 98.9535 43.7615 98.9535 44.2692C98.9535 44.3974 98.9458 44.5359 98.9304 44.6846L98.6073 47.8385C98.6022 47.8692 98.5996 47.9128 98.5996 47.9692C98.5996 48.7026 99.2483 49.0692 100.546 49.0692V50.0846C99.6176 50.0846 98.8611 49.9256 98.2765 49.6077C97.697 49.2949 97.4073 48.7615 97.4073 48.0077C97.4073 47.8692 97.4124 47.7615 97.4227 47.6846L97.7304 44.7615C97.7406 44.6897 97.7458 44.5872 97.7458 44.4538C97.7458 44.1513 97.6765 43.9051 97.5381 43.7154C97.3996 43.5256 97.1586 43.3821 96.815 43.2846C96.4765 43.1821 96.0073 43.1308 95.4073 43.1308V42.1C96.0073 42.1 96.4765 42.0513 96.815 41.9538C97.1586 41.8564 97.3996 41.7128 97.5381 41.5231C97.6765 41.3333 97.7458 41.0897 97.7458 40.7923C97.7458 40.659 97.7406 40.5564 97.7304 40.4846L97.4227 37.5462C97.4124 37.4692 97.4073 37.3615 97.4073 37.2231C97.4073 36.4692 97.697 35.9359 98.2765 35.6231C98.8611 35.3051 99.6176 35.1462 100.546 35.1462V36.1615ZM215.855 35.1462C216.783 35.1462 217.537 35.3051 218.116 35.6231C218.701 35.9359 218.993 36.4692 218.993 37.2231C218.993 37.3615 218.988 37.4692 218.978 37.5462L218.67 40.4846C218.66 40.5974 218.655 40.6821 218.655 40.7385C218.655 41.1949 218.834 41.5359 219.193 41.7615C219.552 41.9872 220.152 42.1 220.993 42.1V43.1308C220.157 43.1308 219.557 43.2462 219.193 43.4769C218.834 43.7026 218.655 44.0462 218.655 44.5077C218.655 44.5641 218.66 44.6487 218.67 44.7615L218.978 47.6846C218.988 47.7615 218.993 47.8692 218.993 48.0077C218.993 48.7615 218.701 49.2949 218.116 49.6077C217.537 49.9256 216.783 50.0846 215.855 50.0846V49.0692C217.224 49.0692 217.87 48.659 217.793 47.8385L217.47 44.6846C217.455 44.5359 217.447 44.3974 217.447 44.2692C217.447 43.7513 217.575 43.3692 217.832 43.1231C218.088 42.8769 218.504 42.7128 219.078 42.6308C218.519 42.5385 218.106 42.3564 217.84 42.0846C217.578 41.8128 217.447 41.4231 217.447 40.9154C217.447 40.7974 217.455 40.6744 217.47 40.5462L217.793 37.3923C217.799 37.3615 217.801 37.3179 217.801 37.2615C217.801 36.8667 217.624 36.5846 217.27 36.4154C216.922 36.2462 216.45 36.1615 215.855 36.1615V35.1462ZM282.07 40.6385H280.931L280.685 36.6385H282.308L282.07 40.6385ZM284.639 40.6385H283.501L283.27 36.6385H284.885L284.639 40.6385ZM294.745 46.2308C294.745 46.5487 294.796 46.7846 294.898 46.9385C295.001 47.0872 295.17 47.1974 295.406 47.2692L295.091 48.1769C294.311 48.0744 293.816 47.6949 293.606 47.0385C293.319 47.4128 292.955 47.6974 292.514 47.8923C292.078 48.0821 291.596 48.1769 291.068 48.1769C290.534 48.1769 290.07 48.0744 289.675 47.8692C289.28 47.6641 288.978 47.3744 288.768 47C288.557 46.6205 288.452 46.1795 288.452 45.6769C288.452 44.841 288.778 44.2 289.429 43.7538C290.08 43.3077 291.022 43.0846 292.252 43.0846H293.445V42.4077C293.445 41.8436 293.28 41.4359 292.952 41.1846C292.624 40.9282 292.145 40.8 291.514 40.8C290.904 40.8 290.201 40.9385 289.406 41.2154L289.068 40.2385C289.97 39.9 290.852 39.7308 291.714 39.7308C292.704 39.7308 293.455 39.9641 293.968 40.4308C294.486 40.8923 294.745 41.5308 294.745 42.3462V46.2308ZM291.398 47.1923C291.798 47.1923 292.178 47.0923 292.537 46.8923C292.901 46.6872 293.204 46.4051 293.445 46.0462V43.9615H292.275C291.419 43.9615 290.798 44.1077 290.414 44.4C290.029 44.6923 289.837 45.1128 289.837 45.6615C289.837 46.6821 290.357 47.1923 291.398 47.1923ZM303.642 39.7231C303.853 39.7231 304.045 39.7385 304.219 39.7692C304.394 39.7949 304.583 39.8385 304.788 39.9L304.604 42.6385H303.542V40.9154H303.473C302.847 40.9154 302.314 41.1359 301.873 41.5769C301.432 42.0179 301.076 42.6846 300.804 43.5769V47.0077H302.45V48H298.25V47.0077H299.512V40.8923H298.25V39.9H300.496L300.735 41.8154C301.063 41.1128 301.453 40.5897 301.904 40.2462C302.36 39.8974 302.94 39.7231 303.642 39.7231ZM312.817 39.9H314.155L311.209 48H309.709L306.786 39.9H308.155L310.502 46.8231L312.817 39.9ZM317.646 44.4077C317.666 45.0128 317.784 45.5179 317.999 45.9231C318.215 46.3231 318.497 46.6205 318.846 46.8154C319.194 47.0051 319.584 47.1 320.015 47.1C320.415 47.1 320.781 47.041 321.115 46.9231C321.453 46.8051 321.807 46.6205 322.176 46.3692L322.784 47.2231C322.404 47.5205 321.969 47.7538 321.476 47.9231C320.989 48.0923 320.497 48.1769 319.999 48.1769C319.225 48.1769 318.558 48.0026 317.999 47.6538C317.44 47.3051 317.015 46.8128 316.722 46.1769C316.435 45.541 316.292 44.8026 316.292 43.9615C316.292 43.1462 316.438 42.4179 316.73 41.7769C317.022 41.1359 317.435 40.6359 317.969 40.2769C318.502 39.9128 319.122 39.7308 319.83 39.7308C320.507 39.7308 321.092 39.8897 321.584 40.2077C322.081 40.5256 322.461 40.9846 322.722 41.5846C322.989 42.1795 323.122 42.8846 323.122 43.7C323.122 43.9359 323.112 44.1718 323.092 44.4077H317.646ZM319.846 40.7923C319.22 40.7923 318.71 41.0128 318.315 41.4538C317.925 41.8897 317.704 42.541 317.653 43.4077H321.876C321.861 42.5564 321.674 41.9077 321.315 41.4615C320.956 41.0154 320.466 40.7923 319.846 40.7923ZM331.328 39.7231C331.538 39.7231 331.73 39.7385 331.905 39.7692C332.079 39.7949 332.269 39.8385 332.474 39.9L332.289 42.6385H331.228V40.9154H331.159C330.533 40.9154 330 41.1359 329.559 41.5769C329.118 42.0179 328.761 42.6846 328.489 43.5769V47.0077H330.136V48H325.936V47.0077H327.197V40.8923H325.936V39.9H328.182L328.42 41.8154C328.748 41.1128 329.138 40.5897 329.589 40.2462C330.046 39.8974 330.625 39.7231 331.328 39.7231ZM338.156 36.1077C338.438 36.1077 338.667 36.1949 338.841 36.3692C339.015 36.5385 339.103 36.7513 339.103 37.0077C339.103 37.2744 339.015 37.4949 338.841 37.6692C338.667 37.8436 338.438 37.9308 338.156 37.9308C337.885 37.9308 337.662 37.8436 337.487 37.6692C337.313 37.4897 337.226 37.2692 337.226 37.0077C337.226 36.7513 337.313 36.5385 337.487 36.3692C337.662 36.1949 337.885 36.1077 338.156 36.1077ZM335.472 39.9H339.187V46.9769H341.472V48H335.395V46.9769H337.895V40.9231H335.472V39.9ZM349.1 36.4769C349.521 36.4769 349.908 36.5154 350.262 36.5923C350.616 36.6641 350.959 36.7718 351.293 36.9154L350.877 37.8769C350.375 37.6513 349.795 37.5385 349.139 37.5385C348.005 37.5385 347.439 37.9872 347.439 38.8846V40.5308H350.185L350.046 41.5462H347.439V48H346.146V41.5462H344.216V40.5308H346.146V38.9154C346.146 38.4282 346.275 38 346.531 37.6308C346.787 37.2615 347.139 36.9769 347.585 36.7769C348.031 36.5769 348.536 36.4769 349.1 36.4769ZM357.437 48.0538C357.226 48.659 356.975 49.1821 356.683 49.6231C356.395 50.0641 356.016 50.4282 355.544 50.7154C355.078 51.0077 354.503 51.1872 353.821 51.2538L353.621 50.2231C354.165 50.1308 354.598 49.9923 354.921 49.8077C355.249 49.6231 355.506 49.3897 355.69 49.1077C355.875 48.8256 356.047 48.4564 356.206 48H355.775L352.944 39.9H354.329L356.652 47.0154L358.944 39.9H360.283L357.437 48.0538ZM365.127 40.6385H363.988L363.742 36.6385H365.365L365.127 40.6385ZM367.696 40.6385H366.557L366.327 36.6385H367.942L367.696 40.6385ZM375.055 40.1385C375.291 40.1385 375.504 40.1949 375.694 40.3077C375.883 40.4154 376.032 40.5641 376.14 40.7538C376.253 40.9436 376.309 41.1513 376.309 41.3769C376.309 41.6026 376.253 41.8128 376.14 42.0077C376.032 42.1974 375.883 42.3487 375.694 42.4615C375.504 42.5744 375.291 42.6308 375.055 42.6308C374.824 42.6308 374.614 42.5744 374.424 42.4615C374.24 42.3487 374.091 42.1974 373.978 42.0077C373.87 41.8128 373.817 41.6026 373.817 41.3769C373.817 41.1513 373.87 40.9436 373.978 40.7538C374.091 40.5641 374.24 40.4154 374.424 40.3077C374.614 40.1949 374.824 40.1385 375.055 40.1385ZM375.055 45.4538C375.291 45.4538 375.504 45.5103 375.694 45.6231C375.883 45.7308 376.032 45.8795 376.14 46.0692C376.253 46.2538 376.309 46.459 376.309 46.6846C376.309 46.8846 376.286 47.0795 376.24 47.2692C376.194 47.459 376.114 47.6718 376.001 47.9077L374.755 50.7692H373.586L374.324 47.7154C374.165 47.6077 374.04 47.4641 373.947 47.2846C373.86 47.1 373.817 46.9026 373.817 46.6923C373.817 46.4667 373.87 46.259 373.978 46.0692C374.091 45.8795 374.24 45.7308 374.424 45.6231C374.614 45.5103 374.824 45.4538 375.055 45.4538ZM38.1901 72.0538L31.6208 85.5846L30.5747 85.1231L37.1593 71.5462L38.1901 72.0538ZM45.8824 72.0538L39.3131 85.5846L38.267 85.1231L44.8516 71.5462L45.8824 72.0538ZM63.7009 75.7231C63.9112 75.7231 64.1035 75.7385 64.2779 75.7692C64.4522 75.7949 64.642 75.8385 64.8471 75.9L64.6625 78.6385H63.6009V76.9154H63.5317C62.9061 76.9154 62.3727 77.1359 61.9317 77.5769C61.4907 78.0179 61.1343 78.6846 60.8625 79.5769V83.0077H62.5086V84H58.3086V83.0077H59.5702V76.8923H58.3086V75.9H60.5548L60.7932 77.8154C61.1214 77.1128 61.5112 76.5897 61.9625 76.2462C62.4189 75.8974 62.9984 75.7231 63.7009 75.7231ZM68.4756 80.4077C68.4961 81.0128 68.6141 81.5179 68.8294 81.9231C69.0448 82.3231 69.3269 82.6205 69.6756 82.8154C70.0243 83.0051 70.4141 83.1 70.8448 83.1C71.2448 83.1 71.6115 83.041 71.9448 82.9231C72.2833 82.8051 72.6371 82.6205 73.0064 82.3692L73.6141 83.2231C73.2346 83.5205 72.7987 83.7538 72.3064 83.9231C71.8192 84.0923 71.3269 84.1769 70.8294 84.1769C70.0551 84.1769 69.3884 84.0026 68.8294 83.6538C68.2705 83.3051 67.8448 82.8128 67.5525 82.1769C67.2653 81.541 67.1218 80.8026 67.1218 79.9615C67.1218 79.1462 67.2679 78.4179 67.5602 77.7769C67.8525 77.1359 68.2653 76.6359 68.7987 76.2769C69.332 75.9128 69.9525 75.7308 70.6602 75.7308C71.3371 75.7308 71.9218 75.8897 72.4141 76.2077C72.9115 76.5256 73.291 76.9846 73.5525 77.5846C73.8192 78.1795 73.9525 78.8846 73.9525 79.7C73.9525 79.9359 73.9423 80.1718 73.9218 80.4077H68.4756ZM70.6756 76.7923C70.05 76.7923 69.5397 77.0128 69.1448 77.4538C68.7551 77.8897 68.5346 78.541 68.4833 79.4077H72.7064C72.691 78.5564 72.5038 77.9077 72.1448 77.4615C71.7859 77.0154 71.2961 76.7923 70.6756 76.7923ZM83.1195 83.5923C82.8477 83.7718 82.5118 83.9128 82.1118 84.0154C81.7169 84.1231 81.3298 84.1769 80.9503 84.1769C80.381 84.1769 79.8913 84.0744 79.481 83.8692C79.0759 83.659 78.7657 83.3692 78.5503 83C78.3349 82.6308 78.2272 82.2077 78.2272 81.7308V76.9H76.3657V75.9H78.2272V74.0615L79.5195 73.9077V75.9H82.3195L82.1657 76.9H79.5195V81.7154C79.5195 82.1769 79.64 82.5231 79.881 82.7538C80.1272 82.9846 80.5221 83.1 81.0657 83.1C81.6144 83.1 82.1323 82.9718 82.6195 82.7154L83.1195 83.5923ZM87.2096 81.6385C87.2096 82.1667 87.3172 82.5513 87.5326 82.7923C87.7531 83.0282 88.0993 83.1462 88.5711 83.1462C88.9967 83.1462 89.4096 83.0231 89.8096 82.7769C90.2147 82.5308 90.5326 82.2256 90.7634 81.8615V75.9H92.0557V84H90.9557L90.848 82.9077C90.5352 83.3077 90.1455 83.6205 89.6788 83.8462C89.2172 84.0667 88.7429 84.1769 88.2557 84.1769C87.4813 84.1769 86.8967 83.9718 86.5019 83.5615C86.1121 83.1462 85.9172 82.5564 85.9172 81.7923V75.9H87.2096V81.6385ZM100.615 75.7231C100.825 75.7231 101.018 75.7385 101.192 75.7692C101.366 75.7949 101.556 75.8385 101.761 75.9L101.577 78.6385H100.515V76.9154H100.446C99.8201 76.9154 99.2868 77.1359 98.8458 77.5769C98.4047 78.0179 98.0483 78.6846 97.7765 79.5769V83.0077H99.4227V84H95.2227V83.0077H96.4842V76.8923H95.2227V75.9H97.4688L97.7073 77.8154C98.0355 77.1128 98.4253 76.5897 98.8765 76.2462C99.3329 75.8974 99.9124 75.7231 100.615 75.7231ZM104.374 84V75.9H105.474L105.574 77.0231C105.897 76.6179 106.302 76.3026 106.79 76.0769C107.282 75.8462 107.769 75.7308 108.251 75.7308C109.026 75.7308 109.597 75.9359 109.967 76.3462C110.341 76.7564 110.528 77.3462 110.528 78.1154V84H109.236V79.0692C109.236 78.4641 109.202 78.0026 109.136 77.6846C109.074 77.3667 108.944 77.1308 108.744 76.9769C108.549 76.8231 108.251 76.7462 107.851 76.7462C107.415 76.7462 107.002 76.8821 106.613 77.1538C106.228 77.4205 105.913 77.7359 105.667 78.1V84H104.374ZM129.262 83.5923C128.99 83.7718 128.654 83.9128 128.254 84.0154C127.86 84.1231 127.472 84.1769 127.093 84.1769C126.524 84.1769 126.034 84.0744 125.624 83.8692C125.218 83.659 124.908 83.3692 124.693 83C124.477 82.6308 124.37 82.2077 124.37 81.7308V76.9H122.508V75.9H124.37V74.0615L125.662 73.9077V75.9H128.462L128.308 76.9H125.662V81.7154C125.662 82.1769 125.783 82.5231 126.024 82.7538C126.27 82.9846 126.665 83.1 127.208 83.1C127.757 83.1 128.275 82.9718 128.762 82.7154L129.262 83.5923ZM135.952 84.0538C135.742 84.659 135.491 85.1821 135.198 85.6231C134.911 86.0641 134.532 86.4282 134.06 86.7154C133.593 87.0077 133.019 87.1872 132.337 87.2538L132.137 86.2231C132.68 86.1308 133.114 85.9923 133.437 85.8077C133.765 85.6231 134.021 85.3897 134.206 85.1077C134.391 84.8256 134.562 84.4564 134.721 84H134.291L131.46 75.9H132.844L135.168 83.0154L137.46 75.9H138.798L135.952 84.0538ZM144.911 75.7308C145.947 75.7308 146.693 76.0974 147.15 76.8308C147.611 77.5641 147.842 78.6026 147.842 79.9462C147.842 80.7821 147.727 81.5179 147.496 82.1538C147.265 82.7846 146.914 83.2795 146.442 83.6385C145.976 83.9974 145.401 84.1769 144.719 84.1769C143.827 84.1769 143.114 83.8641 142.581 83.2385V87.1L141.288 87.2615V75.9H142.388L142.496 77.0308C142.793 76.6103 143.147 76.2897 143.558 76.0692C143.973 75.8436 144.424 75.7308 144.911 75.7308ZM144.604 76.7692C144.188 76.7692 143.809 76.8923 143.465 77.1385C143.127 77.3846 142.832 77.6949 142.581 78.0692V82.0846C142.796 82.4026 143.063 82.6513 143.381 82.8308C143.704 83.0103 144.055 83.1 144.434 83.1C145.111 83.1 145.617 82.841 145.95 82.3231C146.288 81.8051 146.458 81.0103 146.458 79.9385C146.458 78.8718 146.306 78.0769 146.004 77.5538C145.701 77.0308 145.234 76.7692 144.604 76.7692ZM151.532 80.4077C151.553 81.0128 151.671 81.5179 151.886 81.9231C152.101 82.3231 152.384 82.6205 152.732 82.8154C153.081 83.0051 153.471 83.1 153.901 83.1C154.301 83.1 154.668 83.041 155.001 82.9231C155.34 82.8051 155.694 82.6205 156.063 82.3692L156.671 83.2231C156.291 83.5205 155.855 83.7538 155.363 83.9231C154.876 84.0923 154.384 84.1769 153.886 84.1769C153.112 84.1769 152.445 84.0026 151.886 83.6538C151.327 83.3051 150.901 82.8128 150.609 82.1769C150.322 81.541 150.178 80.8026 150.178 79.9615C150.178 79.1462 150.325 78.4179 150.617 77.7769C150.909 77.1359 151.322 76.6359 151.855 76.2769C152.389 75.9128 153.009 75.7308 153.717 75.7308C154.394 75.7308 154.978 75.8897 155.471 76.2077C155.968 76.5256 156.348 76.9846 156.609 77.5846C156.876 78.1795 157.009 78.8846 157.009 79.7C157.009 79.9359 156.999 80.1718 156.978 80.4077H151.532ZM153.732 76.7923C153.107 76.7923 152.596 77.0128 152.201 77.4538C151.812 77.8897 151.591 78.541 151.54 79.4077H155.763C155.748 78.5564 155.56 77.9077 155.201 77.4615C154.842 77.0154 154.353 76.7923 153.732 76.7923ZM172.043 72.1077C172.325 72.1077 172.553 72.1949 172.728 72.3692C172.902 72.5385 172.989 72.7513 172.989 73.0077C172.989 73.2744 172.902 73.4949 172.728 73.6692C172.553 73.8436 172.325 73.9308 172.043 73.9308C171.771 73.9308 171.548 73.8436 171.374 73.6692C171.2 73.4897 171.112 73.2692 171.112 73.0077C171.112 72.7513 171.2 72.5385 171.374 72.3692C171.548 72.1949 171.771 72.1077 172.043 72.1077ZM169.359 75.9H173.074V82.9769H175.359V84H169.282V82.9769H171.782V76.9231H169.359V75.9ZM180.956 83.1077C181.577 83.1077 182.067 82.9923 182.425 82.7615C182.79 82.5308 182.972 82.2179 182.972 81.8231C182.972 81.5564 182.923 81.3385 182.825 81.1692C182.733 80.9949 182.546 80.8359 182.264 80.6923C181.987 80.5487 181.569 80.4077 181.01 80.2692C180.39 80.1154 179.882 79.9487 179.487 79.7692C179.097 79.5846 178.792 79.3462 178.572 79.0538C178.356 78.7615 178.249 78.3897 178.249 77.9385C178.249 77.4923 178.377 77.1026 178.633 76.7692C178.89 76.4359 179.249 76.1795 179.71 76C180.177 75.8205 180.715 75.7308 181.325 75.7308C181.936 75.7308 182.484 75.8128 182.972 75.9769C183.464 76.1359 183.895 76.3513 184.264 76.6231L183.695 77.5C183.356 77.2692 183 77.0923 182.625 76.9692C182.256 76.841 181.828 76.7769 181.341 76.7769C180.731 76.7769 180.284 76.8718 180.002 77.0615C179.725 77.2462 179.587 77.5051 179.587 77.8385C179.587 78.0795 179.651 78.2769 179.779 78.4308C179.913 78.5846 180.125 78.7231 180.418 78.8462C180.715 78.9641 181.156 79.1026 181.741 79.2615C182.325 79.4205 182.805 79.5974 183.179 79.7923C183.554 79.9872 183.846 80.2436 184.056 80.5615C184.267 80.8744 184.372 81.2744 184.372 81.7615C184.372 82.3103 184.213 82.7667 183.895 83.1308C183.577 83.4897 183.159 83.7538 182.641 83.9231C182.128 84.0923 181.567 84.1769 180.956 84.1769C179.684 84.1769 178.628 83.8128 177.787 83.0846L178.525 82.2308C178.854 82.5077 179.225 82.7231 179.641 82.8769C180.056 83.0308 180.495 83.1077 180.956 83.1077ZM202.459 82.2308C202.459 82.5487 202.511 82.7846 202.613 82.9385C202.716 83.0872 202.885 83.1974 203.121 83.2692L202.806 84.1769C202.026 84.0744 201.531 83.6949 201.321 83.0385C201.034 83.4128 200.67 83.6974 200.229 83.8923C199.793 84.0821 199.311 84.1769 198.783 84.1769C198.249 84.1769 197.785 84.0744 197.39 83.8692C196.995 83.6641 196.693 83.3744 196.483 83C196.272 82.6205 196.167 82.1795 196.167 81.6769C196.167 80.841 196.493 80.2 197.144 79.7538C197.795 79.3077 198.736 79.0846 199.967 79.0846H201.159V78.4077C201.159 77.8436 200.995 77.4359 200.667 77.1846C200.339 76.9282 199.859 76.8 199.229 76.8C198.618 76.8 197.916 76.9385 197.121 77.2154L196.783 76.2385C197.685 75.9 198.567 75.7308 199.429 75.7308C200.418 75.7308 201.17 75.9641 201.683 76.4308C202.2 76.8923 202.459 77.5308 202.459 78.3462V82.2308ZM199.113 83.1923C199.513 83.1923 199.893 83.0923 200.252 82.8923C200.616 82.6872 200.918 82.4051 201.159 82.0462V79.9615H199.99C199.134 79.9615 198.513 80.1077 198.129 80.4C197.744 80.6923 197.552 81.1128 197.552 81.6615C197.552 82.6821 198.072 83.1923 199.113 83.1923ZM216.409 76.9538C216.711 76.559 217.057 76.2564 217.447 76.0462C217.837 75.8359 218.26 75.7308 218.716 75.7308C219.763 75.7308 220.529 76.1026 221.016 76.8462C221.509 77.5846 221.755 78.6179 221.755 79.9462C221.755 80.7718 221.632 81.5051 221.386 82.1462C221.14 82.7821 220.775 83.2795 220.293 83.6385C219.811 83.9974 219.229 84.1769 218.547 84.1769C218.075 84.1769 217.657 84.0949 217.293 83.9308C216.929 83.7615 216.611 83.5051 216.34 83.1615L216.247 84H215.116V72.6385L216.409 72.4769V76.9538ZM218.24 83.1308C218.927 83.1308 219.45 82.8667 219.809 82.3385C220.168 81.8051 220.347 81.0051 220.347 79.9385C220.347 78.8872 220.186 78.0974 219.863 77.5692C219.54 77.0359 219.065 76.7692 218.44 76.7692C218.024 76.7692 217.645 76.8923 217.301 77.1385C216.957 77.3846 216.66 77.6949 216.409 78.0692V82.0846C216.624 82.4128 216.891 82.6692 217.209 82.8538C217.532 83.0385 217.875 83.1308 218.24 83.1308ZM227.43 75.7308C228.178 75.7308 228.812 75.9026 229.33 76.2462C229.848 76.5846 230.237 77.0718 230.499 77.7077C230.765 78.3385 230.899 79.0846 230.899 79.9462C230.899 80.7821 230.763 81.5179 230.491 82.1538C230.224 82.7897 229.83 83.2872 229.307 83.6462C228.783 84 228.153 84.1769 227.414 84.1769C226.665 84.1769 226.03 84.0051 225.507 83.6615C224.989 83.3128 224.596 82.8231 224.33 82.1923C224.063 81.5615 223.93 80.8179 223.93 79.9615C223.93 79.1205 224.063 78.3821 224.33 77.7462C224.601 77.1103 224.999 76.6154 225.522 76.2615C226.05 75.9077 226.686 75.7308 227.43 75.7308ZM227.43 76.7846C226.727 76.7846 226.199 77.0462 225.845 77.5692C225.491 78.0872 225.314 78.8846 225.314 79.9615C225.314 81.0231 225.489 81.8154 225.837 82.3385C226.186 82.8564 226.712 83.1154 227.414 83.1154C228.117 83.1154 228.642 82.8564 228.991 82.3385C229.34 81.8154 229.514 81.0179 229.514 79.9462C229.514 78.8795 229.34 78.0872 228.991 77.5692C228.642 77.0462 228.122 76.7846 227.43 76.7846ZM236.658 75.7308C237.407 75.7308 238.04 75.9026 238.558 76.2462C239.076 76.5846 239.466 77.0718 239.727 77.7077C239.994 78.3385 240.127 79.0846 240.127 79.9462C240.127 80.7821 239.991 81.5179 239.72 82.1538C239.453 82.7897 239.058 83.2872 238.535 83.6462C238.012 84 237.381 84.1769 236.643 84.1769C235.894 84.1769 235.258 84.0051 234.735 83.6615C234.217 83.3128 233.825 82.8231 233.558 82.1923C233.291 81.5615 233.158 80.8179 233.158 79.9615C233.158 79.1205 233.291 78.3821 233.558 77.7462C233.83 77.1103 234.227 76.6154 234.75 76.2615C235.279 75.9077 235.915 75.7308 236.658 75.7308ZM236.658 76.7846C235.956 76.7846 235.427 77.0462 235.073 77.5692C234.72 78.0872 234.543 78.8846 234.543 79.9615C234.543 81.0231 234.717 81.8154 235.066 82.3385C235.415 82.8564 235.94 83.1154 236.643 83.1154C237.345 83.1154 237.871 82.8564 238.22 82.3385C238.568 81.8154 238.743 81.0179 238.743 79.9462C238.743 78.8795 238.568 78.0872 238.22 77.5692C237.871 77.0462 237.35 76.7846 236.658 76.7846ZM245.956 82C245.956 82.3795 246.074 82.659 246.31 82.8385C246.551 83.0128 246.879 83.1 247.294 83.1C247.73 83.1 248.184 83.0051 248.656 82.8154L249.002 83.7615C248.756 83.8846 248.469 83.9846 248.14 84.0615C247.812 84.1385 247.458 84.1769 247.079 84.1769C246.602 84.1769 246.179 84.0872 245.81 83.9077C245.446 83.7282 245.164 83.4692 244.964 83.1308C244.764 82.7923 244.664 82.3923 244.664 81.9308V73.6615H242.179V72.6385H245.956V82ZM253.046 80.4077C253.066 81.0128 253.184 81.5179 253.4 81.9231C253.615 82.3231 253.897 82.6205 254.246 82.8154C254.595 83.0051 254.984 83.1 255.415 83.1C255.815 83.1 256.182 83.041 256.515 82.9231C256.854 82.8051 257.207 82.6205 257.577 82.3692L258.184 83.2231C257.805 83.5205 257.369 83.7538 256.877 83.9231C256.39 84.0923 255.897 84.1769 255.4 84.1769C254.625 84.1769 253.959 84.0026 253.4 83.6538C252.841 83.3051 252.415 82.8128 252.123 82.1769C251.836 81.541 251.692 80.8026 251.692 79.9615C251.692 79.1462 251.838 78.4179 252.131 77.7769C252.423 77.1359 252.836 76.6359 253.369 76.2769C253.902 75.9128 254.523 75.7308 255.231 75.7308C255.907 75.7308 256.492 75.8897 256.984 76.2077C257.482 76.5256 257.861 76.9846 258.123 77.5846C258.39 78.1795 258.523 78.8846 258.523 79.7C258.523 79.9359 258.513 80.1718 258.492 80.4077H253.046ZM255.246 76.7923C254.62 76.7923 254.11 77.0128 253.715 77.4538C253.325 77.8897 253.105 78.541 253.054 79.4077H257.277C257.261 78.5564 257.074 77.9077 256.715 77.4615C256.356 77.0154 255.866 76.7923 255.246 76.7923ZM267.059 82.2308C267.059 82.5487 267.11 82.7846 267.213 82.9385C267.315 83.0872 267.485 83.1974 267.721 83.2692L267.405 84.1769C266.626 84.0744 266.131 83.6949 265.921 83.0385C265.633 83.4128 265.269 83.6974 264.828 83.8923C264.392 84.0821 263.91 84.1769 263.382 84.1769C262.849 84.1769 262.385 84.0744 261.99 83.8692C261.595 83.6641 261.292 83.3744 261.082 83C260.872 82.6205 260.767 82.1795 260.767 81.6769C260.767 80.841 261.092 80.2 261.744 79.7538C262.395 79.3077 263.336 79.0846 264.567 79.0846H265.759V78.4077C265.759 77.8436 265.595 77.4359 265.267 77.1846C264.939 76.9282 264.459 76.8 263.828 76.8C263.218 76.8 262.515 76.9385 261.721 77.2154L261.382 76.2385C262.285 75.9 263.167 75.7308 264.028 75.7308C265.018 75.7308 265.769 75.9641 266.282 76.4308C266.8 76.8923 267.059 77.5308 267.059 78.3462V82.2308ZM263.713 83.1923C264.113 83.1923 264.492 83.0923 264.851 82.8923C265.215 82.6872 265.518 82.4051 265.759 82.0462V79.9615H264.59C263.733 79.9615 263.113 80.1077 262.728 80.4C262.344 80.6923 262.151 81.1128 262.151 81.6615C262.151 82.6821 262.672 83.1923 263.713 83.1923ZM270.488 84V75.9H271.588L271.688 77.0231C272.011 76.6179 272.416 76.3026 272.903 76.0769C273.395 75.8462 273.882 75.7308 274.364 75.7308C275.139 75.7308 275.711 75.9359 276.08 76.3462C276.454 76.7564 276.641 77.3462 276.641 78.1154V84H275.349V79.0692C275.349 78.4641 275.316 78.0026 275.249 77.6846C275.188 77.3667 275.057 77.1308 274.857 76.9769C274.662 76.8231 274.364 76.7462 273.964 76.7462C273.529 76.7462 273.116 76.8821 272.726 77.1538C272.341 77.4205 272.026 77.7359 271.78 78.1V84H270.488ZM169.051 95.2H175.035V96.3154H169.051V95.2ZM169.051 98.1154H175.035V99.2385H169.051V98.1154ZM336.81 96.6154C336.81 97.6615 336.928 98.5744 337.164 99.3538C337.405 100.128 337.759 100.831 338.226 101.462C338.697 102.092 339.323 102.754 340.103 103.446L339.426 104.154C338.528 103.426 337.795 102.708 337.226 102C336.656 101.297 336.218 100.508 335.91 99.6308C335.608 98.7538 335.456 97.7487 335.456 96.6154C335.456 95.4821 335.608 94.4769 335.91 93.6C336.218 92.7231 336.656 91.9333 337.226 91.2308C337.795 90.5231 338.528 89.8051 339.426 89.0769L340.103 89.7846C339.313 90.4872 338.685 91.1513 338.218 91.7769C337.751 92.4026 337.4 93.1026 337.164 93.8769C336.928 94.6513 336.81 95.5641 336.81 96.6154ZM172.043 117.469C172.279 117.469 172.492 117.526 172.682 117.638C172.871 117.746 173.02 117.895 173.128 118.085C173.235 118.269 173.289 118.474 173.289 118.7C173.289 118.89 173.266 119.079 173.22 119.269C173.174 119.459 173.097 119.672 172.989 119.908L171.743 122.762H170.574L171.312 119.723C171.159 119.61 171.035 119.464 170.943 119.285C170.856 119.1 170.812 118.905 170.812 118.7C170.812 118.474 170.866 118.269 170.974 118.085C171.082 117.895 171.228 117.746 171.412 117.638C171.602 117.526 171.812 117.469 172.043 117.469ZM34.9615 132.615C34.9615 131.564 34.8436 130.651 34.6077 129.877C34.3718 129.103 34.0205 128.403 33.5538 127.777C33.0872 127.151 32.459 126.487 31.6692 125.785L32.3462 125.077C33.2436 125.805 33.9769 126.523 34.5462 127.231C35.1154 127.933 35.5513 128.723 35.8538 129.6C36.1615 130.477 36.3154 131.482 36.3154 132.615C36.3154 133.749 36.1615 134.754 35.8538 135.631C35.5513 136.508 35.1154 137.297 34.5462 138C33.9769 138.708 33.2436 139.426 32.3462 140.154L31.6692 139.446C32.4487 138.754 33.0718 138.092 33.5385 137.462C34.0103 136.831 34.3641 136.128 34.6 135.354C34.841 134.574 34.9615 133.662 34.9615 132.615ZM42.8285 130.138C43.0644 130.138 43.2772 130.195 43.467 130.308C43.6567 130.415 43.8054 130.564 43.9131 130.754C44.026 130.944 44.0824 131.151 44.0824 131.377C44.0824 131.603 44.026 131.813 43.9131 132.008C43.8054 132.197 43.6567 132.349 43.467 132.462C43.2772 132.574 43.0644 132.631 42.8285 132.631C42.5977 132.631 42.3875 132.574 42.1977 132.462C42.0131 132.349 41.8644 132.197 41.7516 132.008C41.6439 131.813 41.5901 131.603 41.5901 131.377C41.5901 131.151 41.6439 130.944 41.7516 130.754C41.8644 130.564 42.0131 130.415 42.1977 130.308C42.3875 130.195 42.5977 130.138 42.8285 130.138ZM42.8285 135.454C43.0644 135.454 43.2772 135.51 43.467 135.623C43.6567 135.731 43.8054 135.879 43.9131 136.069C44.026 136.254 44.0824 136.459 44.0824 136.685C44.0824 136.885 44.0593 137.079 44.0131 137.269C43.967 137.459 43.8875 137.672 43.7747 137.908L42.5285 140.769H41.3593L42.0977 137.715C41.9388 137.608 41.8131 137.464 41.7208 137.285C41.6336 137.1 41.5901 136.903 41.5901 136.692C41.5901 136.467 41.6439 136.259 41.7516 136.069C41.8644 135.879 42.0131 135.731 42.1977 135.623C42.3875 135.51 42.5977 135.454 42.8285 135.454Z" fill="#999999"/>
</svg>
