<svg width="381" height="175" viewBox="0 0 381 175" fill="none" xmlns="http://www.w3.org/2000/svg">
<rect width="381" height="175" rx="10" fill="#1A1A1A"/>
<path d="M33.6 35.5538C33.8769 35.5538 34.1231 35.6154 34.3385 35.7385C34.5538 35.8564 34.7231 36.0205 34.8462 36.2308C34.9692 36.4359 35.0308 36.6667 35.0308 36.9231C35.0308 37.1795 34.9692 37.4128 34.8462 37.6231C34.7231 37.8333 34.5513 38 34.3308 38.1231C34.1154 38.241 33.8718 38.3 33.6 38.3C33.3231 38.3 33.0744 38.241 32.8538 38.1231C32.6333 38 32.4615 37.8333 32.3385 37.6231C32.2154 37.4128 32.1538 37.1795 32.1538 36.9231C32.1538 36.6667 32.2154 36.4359 32.3385 36.2308C32.4615 36.0205 32.6333 35.8564 32.8538 35.7385C33.0744 35.6154 33.3231 35.5538 33.6 35.5538ZM30.4 39.8308H35.0692V46.3385H37.1462V48H30.3231V46.3385H32.6385V41.4923H30.4V39.8308ZM45.3439 39.5615C45.9285 39.5615 46.3593 39.7513 46.6362 40.1308C46.9131 40.5103 47.0516 41.1179 47.0516 41.9538V48H44.967V42.2308C44.967 41.9385 44.9388 41.7359 44.8824 41.6231C44.826 41.5051 44.7183 41.4462 44.5593 41.4462C44.4208 41.4462 44.2824 41.4872 44.1439 41.5692C44.0106 41.6462 43.867 41.7821 43.7131 41.9769V48H42.0054V42.2308C42.0054 41.9385 41.9772 41.7359 41.9208 41.6231C41.8644 41.5051 41.7567 41.4462 41.5977 41.4462C41.4593 41.4462 41.3208 41.4872 41.1824 41.5692C41.049 41.6462 40.9054 41.7821 40.7516 41.9769V48H38.6362V39.8308H40.4208L40.5824 40.6231C40.849 40.259 41.1131 39.9923 41.3747 39.8231C41.6362 39.6487 41.9413 39.5615 42.2901 39.5615C42.608 39.5615 42.8721 39.641 43.0824 39.8C43.2977 39.959 43.4516 40.2026 43.5439 40.5308C44.1029 39.8846 44.7029 39.5615 45.3439 39.5615ZM53.057 39.5615C54.0878 39.5615 54.8416 39.9385 55.3186 40.6923C55.8006 41.441 56.0416 42.5077 56.0416 43.8923C56.0416 44.7385 55.916 45.4923 55.6647 46.1538C55.4186 46.8103 55.0596 47.3256 54.5878 47.7C54.116 48.0744 53.5545 48.2615 52.9032 48.2615C52.1083 48.2615 51.4622 47.9769 50.9647 47.4077V51.1538L48.534 51.4077V39.8308H50.6878L50.7955 40.7462C51.1134 40.341 51.4673 40.0436 51.857 39.8538C52.2468 39.659 52.6468 39.5615 53.057 39.5615ZM52.3032 41.3538C52.0314 41.3538 51.7852 41.4359 51.5647 41.6C51.3493 41.759 51.1493 41.9923 50.9647 42.3V45.7462C51.1391 46.0026 51.3186 46.1897 51.5032 46.3077C51.6929 46.4205 51.9134 46.4769 52.1647 46.4769C52.6109 46.4769 52.9493 46.2744 53.1801 45.8692C53.416 45.4641 53.534 44.8154 53.534 43.9231C53.534 43.2667 53.4852 42.7513 53.3878 42.3769C53.2955 41.9974 53.1596 41.7333 52.9801 41.5846C52.8006 41.4308 52.575 41.3538 52.3032 41.3538ZM61.3009 39.5615C62.1266 39.5615 62.8368 39.741 63.4317 40.1C64.0317 40.4538 64.4881 40.9564 64.8009 41.6077C65.1138 42.259 65.2702 43.0205 65.2702 43.8923C65.2702 44.8 65.1112 45.5821 64.7932 46.2385C64.4804 46.8897 64.0266 47.3897 63.4317 47.7385C62.8368 48.0872 62.1266 48.2615 61.3009 48.2615C60.4702 48.2615 59.7573 48.0897 59.1625 47.7462C58.5676 47.4026 58.1138 46.9051 57.8009 46.2538C57.4881 45.5974 57.3317 44.8154 57.3317 43.9077C57.3317 43.041 57.4881 42.2821 57.8009 41.6308C58.1189 40.9744 58.5753 40.4667 59.1702 40.1077C59.7702 39.7436 60.4804 39.5615 61.3009 39.5615ZM61.3009 41.3538C60.8035 41.3538 60.4343 41.559 60.1932 41.9692C59.9573 42.3795 59.8394 43.0256 59.8394 43.9077C59.8394 44.8051 59.9573 45.459 60.1932 45.8692C60.4291 46.2744 60.7984 46.4769 61.3009 46.4769C61.8035 46.4769 62.1727 46.2718 62.4086 45.8615C62.6445 45.4513 62.7625 44.7949 62.7625 43.8923C62.7625 43.0154 62.642 42.3744 62.4009 41.9692C62.165 41.559 61.7984 41.3538 61.3009 41.3538ZM73.2294 39.5846C73.7166 39.5846 74.1653 39.6667 74.5756 39.8308L74.1218 43.2462H72.5987V41.7385C72.1474 41.8205 71.7474 42.0667 71.3987 42.4769C71.05 42.8872 70.7756 43.4051 70.5756 44.0308V46.3692H72.191V48H67.0679V46.3692H68.1448V41.4462H67.0679V39.8308H69.9987L70.4448 41.6692C70.7371 40.9667 71.1089 40.4436 71.5602 40.1C72.0166 39.7564 72.573 39.5846 73.2294 39.5846ZM83.5733 47.5231C83.2298 47.7487 82.8298 47.9282 82.3733 48.0615C81.9221 48.1949 81.4298 48.2615 80.8964 48.2615C79.8503 48.2615 79.0631 47.9949 78.5349 47.4615C78.0067 46.9282 77.7426 46.1795 77.7426 45.2154V41.5077H76.0272V39.8308H77.7426V38.0615L80.1733 37.7692V39.8308H82.8041L82.5657 41.5077H80.1733V45.2154C80.1733 45.6205 80.2631 45.9103 80.4426 46.0846C80.6272 46.259 80.9246 46.3462 81.3349 46.3462C81.8477 46.3462 82.3246 46.2231 82.7657 45.9769L83.5733 47.5231ZM119.018 39.9H120.357L117.41 48H115.91L112.987 39.9H114.357L116.703 46.8231L119.018 39.9ZM123.847 44.4077C123.867 45.0128 123.985 45.5179 124.201 45.9231C124.416 46.3231 124.698 46.6205 125.047 46.8154C125.395 47.0051 125.785 47.1 126.216 47.1C126.616 47.1 126.983 47.041 127.316 46.9231C127.654 46.8051 128.008 46.6205 128.377 46.3692L128.985 47.2231C128.606 47.5205 128.17 47.7538 127.677 47.9231C127.19 48.0923 126.698 48.1769 126.201 48.1769C125.426 48.1769 124.76 48.0026 124.201 47.6538C123.642 47.3051 123.216 46.8128 122.924 46.1769C122.636 45.541 122.493 44.8026 122.493 43.9615C122.493 43.1462 122.639 42.4179 122.931 41.7769C123.224 41.1359 123.636 40.6359 124.17 40.2769C124.703 39.9128 125.324 39.7308 126.031 39.7308C126.708 39.7308 127.293 39.8897 127.785 40.2077C128.283 40.5256 128.662 40.9846 128.924 41.5846C129.19 42.1795 129.324 42.8846 129.324 43.7C129.324 43.9359 129.313 44.1718 129.293 44.4077H123.847ZM126.047 40.7923C125.421 40.7923 124.911 41.0128 124.516 41.4538C124.126 41.8897 123.906 42.541 123.854 43.4077H128.077C128.062 42.5564 127.875 41.9077 127.516 41.4615C127.157 41.0154 126.667 40.7923 126.047 40.7923ZM137.529 39.7231C137.739 39.7231 137.932 39.7385 138.106 39.7692C138.28 39.7949 138.47 39.8385 138.675 39.9L138.491 42.6385H137.429V40.9154H137.36C136.734 40.9154 136.201 41.1359 135.76 41.5769C135.319 42.0179 134.962 42.6846 134.691 43.5769V47.0077H136.337V48H132.137V47.0077H133.398V40.8923H132.137V39.9H134.383L134.621 41.8154C134.95 41.1128 135.339 40.5897 135.791 40.2462C136.247 39.8974 136.826 39.7231 137.529 39.7231ZM144.358 36.1077C144.64 36.1077 144.868 36.1949 145.042 36.3692C145.217 36.5385 145.304 36.7513 145.304 37.0077C145.304 37.2744 145.217 37.4949 145.042 37.6692C144.868 37.8436 144.64 37.9308 144.358 37.9308C144.086 37.9308 143.863 37.8436 143.688 37.6692C143.514 37.4897 143.427 37.2692 143.427 37.0077C143.427 36.7513 143.514 36.5385 143.688 36.3692C143.863 36.1949 144.086 36.1077 144.358 36.1077ZM141.673 39.9H145.388V46.9769H147.673V48H141.596V46.9769H144.096V40.9231H141.673V39.9ZM155.301 36.4769C155.722 36.4769 156.109 36.5154 156.463 36.5923C156.817 36.6641 157.16 36.7718 157.494 36.9154L157.078 37.8769C156.576 37.6513 155.996 37.5385 155.34 37.5385C154.207 37.5385 153.64 37.9872 153.64 38.8846V40.5308H156.386L156.248 41.5462H153.64V48H152.348V41.5462H150.417V40.5308H152.348V38.9154C152.348 38.4282 152.476 38 152.732 37.6308C152.989 37.2615 153.34 36.9769 153.786 36.7769C154.232 36.5769 154.737 36.4769 155.301 36.4769ZM163.638 48.0538C163.427 48.659 163.176 49.1821 162.884 49.6231C162.597 50.0641 162.217 50.4282 161.745 50.7154C161.279 51.0077 160.704 51.1872 160.022 51.2538L159.822 50.2231C160.366 50.1308 160.799 49.9923 161.122 49.8077C161.451 49.6231 161.707 49.3897 161.892 49.1077C162.076 48.8256 162.248 48.4564 162.407 48H161.976L159.145 39.9H160.53L162.853 47.0154L165.145 39.9H166.484L163.638 48.0538ZM201.39 36.3308C202.452 36.3308 203.385 36.5026 204.19 36.8462L203.521 38.4308C202.977 38.2256 202.393 38.1231 201.767 38.1231C201.285 38.1231 200.939 38.2103 200.729 38.3846C200.524 38.559 200.421 38.8487 200.421 39.2538V40.3462H203.083L202.813 42.0308H200.421V48H198.006V42.0308H196.29V40.3462H198.006V39.1615C198.006 38.6179 198.134 38.1333 198.39 37.7077C198.652 37.2769 199.036 36.941 199.544 36.7C200.057 36.4538 200.672 36.3308 201.39 36.3308ZM211.657 39.5846C212.144 39.5846 212.593 39.6667 213.003 39.8308L212.549 43.2462H211.026V41.7385C210.575 41.8205 210.175 42.0667 209.826 42.4769C209.478 42.8872 209.203 43.4051 209.003 44.0308V46.3692H210.619V48H205.496V46.3692H206.573V41.4462H205.496V39.8308H208.426L208.873 41.6692C209.165 40.9667 209.537 40.4436 209.988 40.1C210.444 39.7564 211.001 39.5846 211.657 39.5846ZM218.186 39.5615C219.011 39.5615 219.722 39.741 220.316 40.1C220.916 40.4538 221.373 40.9564 221.686 41.6077C221.999 42.259 222.155 43.0205 222.155 43.8923C222.155 44.8 221.996 45.5821 221.678 46.2385C221.365 46.8897 220.911 47.3897 220.316 47.7385C219.722 48.0872 219.011 48.2615 218.186 48.2615C217.355 48.2615 216.642 48.0897 216.047 47.7462C215.452 47.4026 214.999 46.9051 214.686 46.2538C214.373 45.5974 214.216 44.8154 214.216 43.9077C214.216 43.041 214.373 42.2821 214.686 41.6308C215.004 40.9744 215.46 40.4667 216.055 40.1077C216.655 39.7436 217.365 39.5615 218.186 39.5615ZM218.186 41.3538C217.688 41.3538 217.319 41.559 217.078 41.9692C216.842 42.3795 216.724 43.0256 216.724 43.9077C216.724 44.8051 216.842 45.459 217.078 45.8692C217.314 46.2744 217.683 46.4769 218.186 46.4769C218.688 46.4769 219.057 46.2718 219.293 45.8615C219.529 45.4513 219.647 44.7949 219.647 43.8923C219.647 43.0154 219.527 42.3744 219.286 41.9692C219.05 41.559 218.683 41.3538 218.186 41.3538ZM229.914 39.5615C230.499 39.5615 230.93 39.7513 231.207 40.1308C231.483 40.5103 231.622 41.1179 231.622 41.9538V48H229.537V42.2308C229.537 41.9385 229.509 41.7359 229.453 41.6231C229.396 41.5051 229.289 41.4462 229.13 41.4462C228.991 41.4462 228.853 41.4872 228.714 41.5692C228.581 41.6462 228.437 41.7821 228.283 41.9769V48H226.576V42.2308C226.576 41.9385 226.548 41.7359 226.491 41.6231C226.435 41.5051 226.327 41.4462 226.168 41.4462C226.03 41.4462 225.891 41.4872 225.753 41.5692C225.619 41.6462 225.476 41.7821 225.322 41.9769V48H223.207V39.8308H224.991L225.153 40.6231C225.419 40.259 225.683 39.9923 225.945 39.8231C226.207 39.6487 226.512 39.5615 226.86 39.5615C227.178 39.5615 227.442 39.641 227.653 39.8C227.868 39.959 228.022 40.2026 228.114 40.5308C228.673 39.8846 229.273 39.5615 229.914 39.5615ZM34.4077 100.346C34.7205 100.346 35.0205 100.287 35.3077 100.169C35.6 100.046 35.9077 99.8718 36.2308 99.6462L37.3154 101.185C36.9308 101.513 36.4795 101.774 35.9615 101.969C35.4436 102.164 34.8821 102.262 34.2769 102.262C33.4103 102.262 32.659 102.082 32.0231 101.723C31.3872 101.364 30.9 100.862 30.5615 100.215C30.2231 99.5692 30.0538 98.8205 30.0538 97.9692C30.0538 97.1179 30.2282 96.359 30.5769 95.6923C30.9256 95.0256 31.4205 94.5051 32.0615 94.1308C32.7077 93.7513 33.4615 93.5615 34.3231 93.5615C34.9333 93.5615 35.4795 93.6462 35.9615 93.8154C36.4487 93.9846 36.9 94.241 37.3154 94.5846L36.2615 96.0462C35.6718 95.6359 35.059 95.4308 34.4231 95.4308C33.8436 95.4308 33.3923 95.6333 33.0692 96.0385C32.7513 96.4436 32.5923 97.0872 32.5923 97.9692C32.5923 98.8205 32.7538 99.4308 33.0769 99.8C33.4 100.164 33.8436 100.346 34.4077 100.346ZM42.8439 93.5615C43.6695 93.5615 44.3798 93.741 44.9747 94.1C45.5747 94.4538 46.0311 94.9564 46.3439 95.6077C46.6567 96.259 46.8131 97.0205 46.8131 97.8923C46.8131 98.8 46.6542 99.5821 46.3362 100.238C46.0234 100.89 45.5695 101.39 44.9747 101.738C44.3798 102.087 43.6695 102.262 42.8439 102.262C42.0131 102.262 41.3003 102.09 40.7054 101.746C40.1106 101.403 39.6567 100.905 39.3439 100.254C39.0311 99.5974 38.8747 98.8154 38.8747 97.9077C38.8747 97.041 39.0311 96.2821 39.3439 95.6308C39.6618 94.9744 40.1183 94.4667 40.7131 94.1077C41.3131 93.7436 42.0234 93.5615 42.8439 93.5615ZM42.8439 95.3538C42.3465 95.3538 41.9772 95.559 41.7362 95.9692C41.5003 96.3795 41.3824 97.0256 41.3824 97.9077C41.3824 98.8051 41.5003 99.459 41.7362 99.8692C41.9721 100.274 42.3413 100.477 42.8439 100.477C43.3465 100.477 43.7157 100.272 43.9516 99.8615C44.1875 99.4513 44.3054 98.7949 44.3054 97.8923C44.3054 97.0154 44.1849 96.3744 43.9439 95.9692C43.708 95.559 43.3413 95.3538 42.8439 95.3538ZM48.534 102V93.8308H50.657L50.8263 94.7769C51.1955 94.3615 51.5827 94.0564 51.9878 93.8615C52.3929 93.6615 52.8519 93.5615 53.3647 93.5615C54.0673 93.5615 54.616 93.7769 55.0109 94.2077C55.4109 94.6333 55.6109 95.2308 55.6109 96V102H53.1801V96.7C53.1801 96.3615 53.1545 96.0949 53.1032 95.9C53.057 95.7051 52.9775 95.5667 52.8647 95.4846C52.7519 95.3974 52.5955 95.3538 52.3955 95.3538C52.1493 95.3538 51.9083 95.4333 51.6724 95.5923C51.4416 95.7462 51.2057 95.9769 50.9647 96.2846V102H48.534ZM61.0394 100.523C61.4548 100.523 61.783 100.459 62.024 100.331C62.2702 100.197 62.3932 100.005 62.3932 99.7538C62.3932 99.5744 62.3445 99.4282 62.2471 99.3154C62.1496 99.1974 61.9676 99.0872 61.7009 98.9846C61.4343 98.8769 61.0189 98.7462 60.4548 98.5923C59.6343 98.3718 59.0061 98.0692 58.5702 97.6846C58.1394 97.3 57.924 96.7667 57.924 96.0846C57.924 95.5923 58.0599 95.1564 58.3317 94.7769C58.6086 94.3974 59.0138 94.1 59.5471 93.8846C60.0804 93.6692 60.7214 93.5615 61.4702 93.5615C62.7676 93.5615 63.8702 93.8923 64.7779 94.5538L63.8086 95.9846C63.4548 95.7692 63.083 95.6 62.6932 95.4769C62.3086 95.3538 61.924 95.2923 61.5394 95.2923C61.1445 95.2923 60.8496 95.3462 60.6548 95.4538C60.465 95.5564 60.3702 95.7128 60.3702 95.9231C60.3702 96.0667 60.4189 96.1872 60.5163 96.2846C60.6189 96.3821 60.8009 96.4821 61.0625 96.5846C61.3291 96.6872 61.742 96.8179 62.3009 96.9769C62.8907 97.141 63.3702 97.3231 63.7394 97.5231C64.1086 97.7179 64.3958 97.9795 64.6009 98.3077C64.8112 98.6308 64.9163 99.0487 64.9163 99.5615C64.9163 100.136 64.742 100.628 64.3932 101.038C64.0496 101.444 63.5855 101.749 63.0009 101.954C62.4163 102.159 61.7676 102.262 61.0548 102.262C60.2907 102.262 59.6035 102.154 58.9932 101.938C58.383 101.718 57.8573 101.415 57.4163 101.031L58.6394 99.6615C58.9779 99.9282 59.3496 100.138 59.7548 100.292C60.1599 100.446 60.5881 100.523 61.0394 100.523ZM74.3448 101.523C74.0012 101.749 73.6012 101.928 73.1448 102.062C72.6935 102.195 72.2012 102.262 71.6679 102.262C70.6218 102.262 69.8346 101.995 69.3064 101.462C68.7782 100.928 68.5141 100.179 68.5141 99.2154V95.5077H66.7987V93.8308H68.5141V92.0615L70.9448 91.7692V93.8308H73.5756L73.3371 95.5077H70.9448V99.2154C70.9448 99.6205 71.0346 99.9103 71.2141 100.085C71.3987 100.259 71.6961 100.346 72.1064 100.346C72.6192 100.346 73.0961 100.223 73.5371 99.9769L74.3448 101.523ZM87.2096 99.6385C87.2096 100.167 87.3172 100.551 87.5326 100.792C87.7531 101.028 88.0993 101.146 88.5711 101.146C88.9967 101.146 89.4096 101.023 89.8096 100.777C90.2147 100.531 90.5326 100.226 90.7634 99.8615V93.9H92.0557V102H90.9557L90.848 100.908C90.5352 101.308 90.1455 101.621 89.6788 101.846C89.2172 102.067 88.7429 102.177 88.2557 102.177C87.4813 102.177 86.8967 101.972 86.5019 101.562C86.1121 101.146 85.9172 100.556 85.9172 99.7923V93.9H87.2096V99.6385ZM100.615 93.7231C100.825 93.7231 101.018 93.7385 101.192 93.7692C101.366 93.7949 101.556 93.8385 101.761 93.9L101.577 96.6385H100.515V94.9154H100.446C99.8201 94.9154 99.2868 95.1359 98.8458 95.5769C98.4047 96.0179 98.0483 96.6846 97.7765 97.5769V101.008H99.4227V102H95.2227V101.008H96.4842V94.8923H95.2227V93.9H97.4688L97.7073 95.8154C98.0355 95.1128 98.4253 94.5897 98.8765 94.2462C99.3329 93.8974 99.9124 93.7231 100.615 93.7231ZM107.444 90.1077C107.726 90.1077 107.954 90.1949 108.128 90.3692C108.302 90.5385 108.39 90.7513 108.39 91.0077C108.39 91.2744 108.302 91.4949 108.128 91.6692C107.954 91.8436 107.726 91.9308 107.444 91.9308C107.172 91.9308 106.949 91.8436 106.774 91.6692C106.6 91.4897 106.513 91.2692 106.513 91.0077C106.513 90.7513 106.6 90.5385 106.774 90.3692C106.949 90.1949 107.172 90.1077 107.444 90.1077ZM104.759 93.9H108.474V100.977H110.759V102H104.682V100.977H107.182V94.9231H104.759V93.9ZM147.696 99.6462C147.696 99.9487 147.737 100.172 147.819 100.315C147.901 100.454 148.04 100.559 148.234 100.631L147.734 102.231C147.237 102.185 146.824 102.077 146.496 101.908C146.173 101.733 145.919 101.482 145.734 101.154C145.432 101.518 145.04 101.795 144.558 101.985C144.081 102.169 143.576 102.262 143.042 102.262C142.488 102.262 142.001 102.154 141.581 101.938C141.165 101.718 140.845 101.415 140.619 101.031C140.393 100.641 140.281 100.195 140.281 99.6923C140.281 99.1077 140.437 98.6077 140.75 98.1923C141.063 97.7769 141.517 97.4615 142.111 97.2462C142.706 97.0256 143.422 96.9154 144.258 96.9154H145.358V96.6077C145.358 95.7718 144.819 95.3538 143.742 95.3538C143.47 95.3538 143.127 95.3923 142.711 95.4692C142.301 95.5462 141.899 95.6513 141.504 95.7846L140.942 94.1692C141.455 93.9744 141.996 93.8256 142.565 93.7231C143.134 93.6154 143.655 93.5615 144.127 93.5615C145.327 93.5615 146.222 93.8051 146.811 94.2923C147.401 94.7795 147.696 95.4974 147.696 96.4462V99.6462ZM143.881 100.523C144.158 100.523 144.437 100.444 144.719 100.285C145.001 100.121 145.214 99.9 145.358 99.6231V98.3H144.758C144.091 98.3 143.596 98.4026 143.273 98.6077C142.95 98.8128 142.788 99.1179 142.788 99.5231C142.788 99.841 142.883 100.087 143.073 100.262C143.268 100.436 143.537 100.523 143.881 100.523ZM158.148 93.8308L156.986 102H154.301L153.601 96.5077L152.871 102H150.232L149.025 93.8308H151.248L151.778 100.485L152.64 94.8615H154.686L155.455 100.485L156.001 93.8308H158.148ZM166.153 99.6462C166.153 99.9487 166.194 100.172 166.276 100.315C166.358 100.454 166.497 100.559 166.692 100.631L166.192 102.231C165.694 102.185 165.281 102.077 164.953 101.908C164.63 101.733 164.376 101.482 164.192 101.154C163.889 101.518 163.497 101.795 163.015 101.985C162.538 102.169 162.033 102.262 161.499 102.262C160.945 102.262 160.458 102.154 160.038 101.938C159.622 101.718 159.302 101.415 159.076 101.031C158.851 100.641 158.738 100.195 158.738 99.6923C158.738 99.1077 158.894 98.6077 159.207 98.1923C159.52 97.7769 159.974 97.4615 160.568 97.2462C161.163 97.0256 161.879 96.9154 162.715 96.9154H163.815V96.6077C163.815 95.7718 163.276 95.3538 162.199 95.3538C161.927 95.3538 161.584 95.3923 161.168 95.4692C160.758 95.5462 160.356 95.6513 159.961 95.7846L159.399 94.1692C159.912 93.9744 160.453 93.8256 161.022 93.7231C161.592 93.6154 162.112 93.5615 162.584 93.5615C163.784 93.5615 164.679 93.8051 165.268 94.2923C165.858 94.7795 166.153 95.4974 166.153 96.4462V99.6462ZM162.338 100.523C162.615 100.523 162.894 100.444 163.176 100.285C163.458 100.121 163.671 99.9 163.815 99.6231V98.3H163.215C162.548 98.3 162.053 98.4026 161.73 98.6077C161.407 98.8128 161.245 99.1179 161.245 99.5231C161.245 99.841 161.34 100.087 161.53 100.262C161.725 100.436 161.994 100.523 162.338 100.523ZM172.028 89.5538C172.305 89.5538 172.551 89.6154 172.766 89.7385C172.982 89.8564 173.151 90.0205 173.274 90.2308C173.397 90.4359 173.459 90.6667 173.459 90.9231C173.459 91.1795 173.397 91.4128 173.274 91.6231C173.151 91.8333 172.979 92 172.759 92.1231C172.543 92.241 172.3 92.3 172.028 92.3C171.751 92.3 171.502 92.241 171.282 92.1231C171.061 92 170.889 91.8333 170.766 91.6231C170.643 91.4128 170.582 91.1795 170.582 90.9231C170.582 90.6667 170.643 90.4359 170.766 90.2308C170.889 90.0205 171.061 89.8564 171.282 89.7385C171.502 89.6154 171.751 89.5538 172.028 89.5538ZM168.828 93.8308H173.497V100.338H175.574V102H168.751V100.338H171.066V95.4923H168.828V93.8308ZM185.087 101.523C184.743 101.749 184.343 101.928 183.887 102.062C183.436 102.195 182.943 102.262 182.41 102.262C181.364 102.262 180.577 101.995 180.049 101.462C179.52 100.928 179.256 100.179 179.256 99.2154V95.5077H177.541V93.8308H179.256V92.0615L181.687 91.7692V93.8308H184.318L184.079 95.5077H181.687V99.2154C181.687 99.6205 181.777 99.9103 181.956 100.085C182.141 100.259 182.438 100.346 182.849 100.346C183.361 100.346 183.838 100.223 184.279 99.9769L185.087 101.523ZM202.075 93.9H203.413L200.467 102H198.967L196.044 93.9H197.413L199.759 100.823L202.075 93.9ZM206.903 98.4077C206.924 99.0128 207.042 99.5179 207.257 99.9231C207.473 100.323 207.755 100.621 208.103 100.815C208.452 101.005 208.842 101.1 209.273 101.1C209.673 101.1 210.039 101.041 210.373 100.923C210.711 100.805 211.065 100.621 211.434 100.369L212.042 101.223C211.662 101.521 211.226 101.754 210.734 101.923C210.247 102.092 209.755 102.177 209.257 102.177C208.483 102.177 207.816 102.003 207.257 101.654C206.698 101.305 206.273 100.813 205.98 100.177C205.693 99.541 205.549 98.8026 205.549 97.9615C205.549 97.1462 205.696 96.4179 205.988 95.7769C206.28 95.1359 206.693 94.6359 207.226 94.2769C207.76 93.9128 208.38 93.7308 209.088 93.7308C209.765 93.7308 210.349 93.8897 210.842 94.2077C211.339 94.5256 211.719 94.9846 211.98 95.5846C212.247 96.1795 212.38 96.8846 212.38 97.7C212.38 97.9359 212.37 98.1718 212.349 98.4077H206.903ZM209.103 94.7923C208.478 94.7923 207.967 95.0128 207.573 95.4538C207.183 95.8897 206.962 96.541 206.911 97.4077H211.134C211.119 96.5564 210.932 95.9077 210.573 95.4615C210.214 95.0154 209.724 94.7923 209.103 94.7923ZM220.586 93.7231C220.796 93.7231 220.988 93.7385 221.163 93.7692C221.337 93.7949 221.527 93.8385 221.732 93.9L221.547 96.6385H220.486V94.9154H220.416C219.791 94.9154 219.257 95.1359 218.816 95.5769C218.375 96.0179 218.019 96.6846 217.747 97.5769V101.008H219.393V102H215.193V101.008H216.455V94.8923H215.193V93.9H217.44L217.678 95.8154C218.006 95.1128 218.396 94.5897 218.847 94.2462C219.304 93.8974 219.883 93.7231 220.586 93.7231ZM227.414 90.1077C227.696 90.1077 227.924 90.1949 228.099 90.3692C228.273 90.5385 228.36 90.7513 228.36 91.0077C228.36 91.2744 228.273 91.4949 228.099 91.6692C227.924 91.8436 227.696 91.9308 227.414 91.9308C227.142 91.9308 226.919 91.8436 226.745 91.6692C226.571 91.4897 226.483 91.2692 226.483 91.0077C226.483 90.7513 226.571 90.5385 226.745 90.3692C226.919 90.1949 227.142 90.1077 227.414 90.1077ZM224.73 93.9H228.445V100.977H230.73V102H224.653V100.977H227.153V94.9231H224.73V93.9ZM238.358 90.4769C238.779 90.4769 239.166 90.5154 239.52 90.5923C239.873 90.6641 240.217 90.7718 240.55 90.9154L240.135 91.8769C239.632 91.6513 239.053 91.5385 238.397 91.5385C237.263 91.5385 236.697 91.9872 236.697 92.8846V94.5308H239.443L239.304 95.5462H236.697V102H235.404V95.5462H233.473V94.5308H235.404V92.9154C235.404 92.4282 235.532 92 235.789 91.6308C236.045 91.2615 236.397 90.9769 236.843 90.7769C237.289 90.5769 237.794 90.4769 238.358 90.4769ZM246.694 102.054C246.484 102.659 246.233 103.182 245.94 103.623C245.653 104.064 245.274 104.428 244.802 104.715C244.335 105.008 243.761 105.187 243.079 105.254L242.879 104.223C243.423 104.131 243.856 103.992 244.179 103.808C244.507 103.623 244.764 103.39 244.948 103.108C245.133 102.826 245.305 102.456 245.464 102H245.033L242.202 93.9H243.587L245.91 101.015L248.202 93.9H249.54L246.694 102.054ZM54.8032 118.231C54.8032 118.549 54.8545 118.785 54.957 118.938C55.0596 119.087 55.2288 119.197 55.4647 119.269L55.1493 120.177C54.3699 120.074 53.875 119.695 53.6647 119.038C53.3775 119.413 53.0134 119.697 52.5724 119.892C52.1365 120.082 51.6545 120.177 51.1263 120.177C50.5929 120.177 50.1288 120.074 49.734 119.869C49.3391 119.664 49.0365 119.374 48.8263 119C48.616 118.621 48.5109 118.179 48.5109 117.677C48.5109 116.841 48.8365 116.2 49.4878 115.754C50.1391 115.308 51.0801 115.085 52.3109 115.085H53.5032V114.408C53.5032 113.844 53.3391 113.436 53.0109 113.185C52.6827 112.928 52.2032 112.8 51.5724 112.8C50.9622 112.8 50.2596 112.938 49.4647 113.215L49.1263 112.238C50.0288 111.9 50.9109 111.731 51.7724 111.731C52.7622 111.731 53.5134 111.964 54.0263 112.431C54.5442 112.892 54.8032 113.531 54.8032 114.346V118.231ZM51.457 119.192C51.857 119.192 52.2365 119.092 52.5955 118.892C52.9596 118.687 53.2622 118.405 53.5032 118.046V115.962H52.334C51.4775 115.962 50.857 116.108 50.4724 116.4C50.0878 116.692 49.8955 117.113 49.8955 117.662C49.8955 118.682 50.416 119.192 51.457 119.192ZM63.7009 111.723C63.9112 111.723 64.1035 111.738 64.2779 111.769C64.4522 111.795 64.642 111.838 64.8471 111.9L64.6625 114.638H63.6009V112.915H63.5317C62.9061 112.915 62.3727 113.136 61.9317 113.577C61.4907 114.018 61.1343 114.685 60.8625 115.577V119.008H62.5086V120H58.3086V119.008H59.5702V112.892H58.3086V111.9H60.5548L60.7932 113.815C61.1214 113.113 61.5112 112.59 61.9625 112.246C62.4189 111.897 62.9984 111.723 63.7009 111.723ZM74.8756 111.9L73.4602 120H71.6294L70.5833 114.054L69.4448 120H67.6602L66.1833 111.9H67.5064L68.5371 119.2L69.8294 112.931H71.3602L72.5833 119.2L73.6141 111.9H74.8756ZM77.7041 116.408C77.7246 117.013 77.8426 117.518 78.058 117.923C78.2733 118.323 78.5554 118.621 78.9041 118.815C79.2528 119.005 79.6426 119.1 80.0733 119.1C80.4733 119.1 80.84 119.041 81.1733 118.923C81.5118 118.805 81.8657 118.621 82.2349 118.369L82.8426 119.223C82.4631 119.521 82.0272 119.754 81.5349 119.923C81.0477 120.092 80.5554 120.177 80.058 120.177C79.2836 120.177 78.6169 120.003 78.058 119.654C77.499 119.305 77.0733 118.813 76.781 118.177C76.4939 117.541 76.3503 116.803 76.3503 115.962C76.3503 115.146 76.4964 114.418 76.7887 113.777C77.081 113.136 77.4939 112.636 78.0272 112.277C78.5605 111.913 79.181 111.731 79.8887 111.731C80.5657 111.731 81.1503 111.89 81.6426 112.208C82.14 112.526 82.5195 112.985 82.781 113.585C83.0477 114.179 83.181 114.885 83.181 115.7C83.181 115.936 83.1708 116.172 83.1503 116.408H77.7041ZM79.9041 112.792C79.2785 112.792 78.7682 113.013 78.3733 113.454C77.9836 113.89 77.7631 114.541 77.7118 115.408H81.9349C81.9195 114.556 81.7323 113.908 81.3733 113.462C81.0144 113.015 80.5246 112.792 79.9041 112.792ZM91.7172 118.231C91.7172 118.549 91.7685 118.785 91.8711 118.938C91.9737 119.087 92.1429 119.197 92.3788 119.269L92.0634 120.177C91.2839 120.074 90.789 119.695 90.5788 119.038C90.2916 119.413 89.9275 119.697 89.4865 119.892C89.0506 120.082 88.5685 120.177 88.0403 120.177C87.507 120.177 87.0429 120.074 86.648 119.869C86.2531 119.664 85.9506 119.374 85.7403 119C85.5301 118.621 85.4249 118.179 85.4249 117.677C85.4249 116.841 85.7506 116.2 86.4019 115.754C87.0531 115.308 87.9942 115.085 89.2249 115.085H90.4172V114.408C90.4172 113.844 90.2531 113.436 89.9249 113.185C89.5967 112.928 89.1172 112.8 88.4865 112.8C87.8762 112.8 87.1737 112.938 86.3788 113.215L86.0403 112.238C86.9429 111.9 87.8249 111.731 88.6865 111.731C89.6762 111.731 90.4275 111.964 90.9403 112.431C91.4583 112.892 91.7172 113.531 91.7172 114.346V118.231ZM88.3711 119.192C88.7711 119.192 89.1506 119.092 89.5096 118.892C89.8737 118.687 90.1762 118.405 90.4172 118.046V115.962H89.248C88.3916 115.962 87.7711 116.108 87.3865 116.4C87.0019 116.692 86.8096 117.113 86.8096 117.662C86.8096 118.682 87.3301 119.192 88.3711 119.192ZM100.561 111.9H101.9L98.9535 120H97.4535L94.5304 111.9H95.8996L98.2458 118.823L100.561 111.9ZM105.39 116.408C105.41 117.013 105.528 117.518 105.744 117.923C105.959 118.323 106.241 118.621 106.59 118.815C106.938 119.005 107.328 119.1 107.759 119.1C108.159 119.1 108.526 119.041 108.859 118.923C109.197 118.805 109.551 118.621 109.92 118.369L110.528 119.223C110.149 119.521 109.713 119.754 109.22 119.923C108.733 120.092 108.241 120.177 107.744 120.177C106.969 120.177 106.302 120.003 105.744 119.654C105.185 119.305 104.759 118.813 104.467 118.177C104.179 117.541 104.036 116.803 104.036 115.962C104.036 115.146 104.182 114.418 104.474 113.777C104.767 113.136 105.179 112.636 105.713 112.277C106.246 111.913 106.867 111.731 107.574 111.731C108.251 111.731 108.836 111.89 109.328 112.208C109.826 112.526 110.205 112.985 110.467 113.585C110.733 114.179 110.867 114.885 110.867 115.7C110.867 115.936 110.856 116.172 110.836 116.408H105.39ZM107.59 112.792C106.964 112.792 106.454 113.013 106.059 113.454C105.669 113.89 105.449 114.541 105.397 115.408H109.62C109.605 114.556 109.418 113.908 109.059 113.462C108.7 113.015 108.21 112.792 107.59 112.792ZM119.695 116.485C119.695 117.136 119.58 117.738 119.349 118.292C119.123 118.846 118.741 119.3 118.203 119.654C117.664 120.003 116.957 120.177 116.08 120.177C115.552 120.177 115.039 120.095 114.541 119.931C114.044 119.767 113.587 119.528 113.172 119.215L113.764 118.331C114.19 118.603 114.59 118.792 114.964 118.9C115.344 119.008 115.71 119.062 116.064 119.062C116.793 119.062 117.357 118.828 117.757 118.362C118.162 117.89 118.364 117.238 118.364 116.408V110.5H115.226V109.408H119.695V116.485ZM129.208 109.408H130.447L128.831 120H127.077L125.862 112.008L124.639 120H122.847L121.354 109.408H122.693L123.824 118.531L125.093 110.638H126.731L127.939 118.531L129.208 109.408ZM133.46 109.408V120H132.129V109.408H133.46ZM137.875 120L133.537 114.346L137.706 109.408H139.244L135.106 114.262L139.537 120H137.875Z" fill="white"/>
<path d="M100.546 36.1615C99.9201 36.1615 99.4304 36.2564 99.0765 36.4462C98.7227 36.6359 98.5663 36.9513 98.6073 37.3923L98.9304 40.5462C98.9458 40.6744 98.9535 40.8 98.9535 40.9231C98.9535 41.4256 98.8304 41.8128 98.5842 42.0846C98.3432 42.3513 97.9791 42.5282 97.4919 42.6154C97.9894 42.7026 98.356 42.8744 98.5919 43.1308C98.8329 43.3821 98.9535 43.7615 98.9535 44.2692C98.9535 44.3974 98.9458 44.5359 98.9304 44.6846L98.6073 47.8385C98.6022 47.8692 98.5996 47.9128 98.5996 47.9692C98.5996 48.7026 99.2483 49.0692 100.546 49.0692V50.0846C99.6176 50.0846 98.8611 49.9256 98.2765 49.6077C97.697 49.2949 97.4073 48.7615 97.4073 48.0077C97.4073 47.8692 97.4124 47.7615 97.4227 47.6846L97.7304 44.7615C97.7406 44.6897 97.7458 44.5872 97.7458 44.4538C97.7458 44.1513 97.6765 43.9051 97.5381 43.7154C97.3996 43.5256 97.1586 43.3821 96.815 43.2846C96.4765 43.1821 96.0073 43.1308 95.4073 43.1308V42.1C96.0073 42.1 96.4765 42.0513 96.815 41.9538C97.1586 41.8564 97.3996 41.7128 97.5381 41.5231C97.6765 41.3333 97.7458 41.0897 97.7458 40.7923C97.7458 40.659 97.7406 40.5564 97.7304 40.4846L97.4227 37.5462C97.4124 37.4692 97.4073 37.3615 97.4073 37.2231C97.4073 36.4692 97.697 35.9359 98.2765 35.6231C98.8611 35.3051 99.6176 35.1462 100.546 35.1462V36.1615ZM178.941 35.1462C179.869 35.1462 180.623 35.3051 181.202 35.6231C181.787 35.9359 182.079 36.4692 182.079 37.2231C182.079 37.3615 182.074 37.4692 182.064 37.5462L181.756 40.4846C181.746 40.5974 181.741 40.6821 181.741 40.7385C181.741 41.1949 181.92 41.5359 182.279 41.7615C182.638 41.9872 183.238 42.1 184.079 42.1V43.1308C183.243 43.1308 182.643 43.2462 182.279 43.4769C181.92 43.7026 181.741 44.0462 181.741 44.5077C181.741 44.5641 181.746 44.6487 181.756 44.7615L182.064 47.6846C182.074 47.7615 182.079 47.8692 182.079 48.0077C182.079 48.7615 181.787 49.2949 181.202 49.6077C180.623 49.9256 179.869 50.0846 178.941 50.0846V49.0692C180.31 49.0692 180.956 48.659 180.879 47.8385L180.556 44.6846C180.541 44.5359 180.533 44.3974 180.533 44.2692C180.533 43.7513 180.661 43.3692 180.918 43.1231C181.174 42.8769 181.59 42.7128 182.164 42.6308C181.605 42.5385 181.192 42.3564 180.925 42.0846C180.664 41.8128 180.533 41.4231 180.533 40.9154C180.533 40.7974 180.541 40.6744 180.556 40.5462L180.879 37.3923C180.884 37.3615 180.887 37.3179 180.887 37.2615C180.887 36.8667 180.71 36.5846 180.356 36.4154C180.008 36.2462 179.536 36.1615 178.941 36.1615V35.1462ZM245.156 40.6385H244.017L243.771 36.6385H245.394L245.156 40.6385ZM247.725 40.6385H246.587L246.356 36.6385H247.971L247.725 40.6385ZM257.831 46.2308C257.831 46.5487 257.882 46.7846 257.984 46.9385C258.087 47.0872 258.256 47.1974 258.492 47.2692L258.177 48.1769C257.397 48.0744 256.902 47.6949 256.692 47.0385C256.405 47.4128 256.041 47.6974 255.6 47.8923C255.164 48.0821 254.682 48.1769 254.154 48.1769C253.62 48.1769 253.156 48.0744 252.761 47.8692C252.366 47.6641 252.064 47.3744 251.854 47C251.643 46.6205 251.538 46.1795 251.538 45.6769C251.538 44.841 251.864 44.2 252.515 43.7538C253.166 43.3077 254.107 43.0846 255.338 43.0846H256.531V42.4077C256.531 41.8436 256.366 41.4359 256.038 41.1846C255.71 40.9282 255.231 40.8 254.6 40.8C253.99 40.8 253.287 40.9385 252.492 41.2154L252.154 40.2385C253.056 39.9 253.938 39.7308 254.8 39.7308C255.79 39.7308 256.541 39.9641 257.054 40.4308C257.572 40.8923 257.831 41.5308 257.831 42.3462V46.2308ZM254.484 47.1923C254.884 47.1923 255.264 47.0923 255.623 46.8923C255.987 46.6872 256.29 46.4051 256.531 46.0462V43.9615H255.361C254.505 43.9615 253.884 44.1077 253.5 44.4C253.115 44.6923 252.923 45.1128 252.923 45.6615C252.923 46.6821 253.443 47.1923 254.484 47.1923ZM266.728 39.7231C266.939 39.7231 267.131 39.7385 267.305 39.7692C267.48 39.7949 267.669 39.8385 267.874 39.9L267.69 42.6385H266.628V40.9154H266.559C265.933 40.9154 265.4 41.1359 264.959 41.5769C264.518 42.0179 264.162 42.6846 263.89 43.5769V47.0077H265.536V48H261.336V47.0077H262.598V40.8923H261.336V39.9H263.582L263.821 41.8154C264.149 41.1128 264.539 40.5897 264.99 40.2462C265.446 39.8974 266.026 39.7231 266.728 39.7231ZM275.903 39.9H277.241L274.295 48H272.795L269.872 39.9H271.241L273.588 46.8231L275.903 39.9ZM280.731 44.4077C280.752 45.0128 280.87 45.5179 281.085 45.9231C281.301 46.3231 281.583 46.6205 281.931 46.8154C282.28 47.0051 282.67 47.1 283.101 47.1C283.501 47.1 283.867 47.041 284.201 46.9231C284.539 46.8051 284.893 46.6205 285.262 46.3692L285.87 47.2231C285.49 47.5205 285.055 47.7538 284.562 47.9231C284.075 48.0923 283.583 48.1769 283.085 48.1769C282.311 48.1769 281.644 48.0026 281.085 47.6538C280.526 47.3051 280.101 46.8128 279.808 46.1769C279.521 45.541 279.378 44.8026 279.378 43.9615C279.378 43.1462 279.524 42.4179 279.816 41.7769C280.108 41.1359 280.521 40.6359 281.055 40.2769C281.588 39.9128 282.208 39.7308 282.916 39.7308C283.593 39.7308 284.178 39.8897 284.67 40.2077C285.167 40.5256 285.547 40.9846 285.808 41.5846C286.075 42.1795 286.208 42.8846 286.208 43.7C286.208 43.9359 286.198 44.1718 286.178 44.4077H280.731ZM282.931 40.7923C282.306 40.7923 281.796 41.0128 281.401 41.4538C281.011 41.8897 280.79 42.541 280.739 43.4077H284.962C284.947 42.5564 284.76 41.9077 284.401 41.4615C284.042 41.0154 283.552 40.7923 282.931 40.7923ZM294.414 39.7231C294.624 39.7231 294.816 39.7385 294.991 39.7692C295.165 39.7949 295.355 39.8385 295.56 39.9L295.375 42.6385H294.314V40.9154H294.245C293.619 40.9154 293.086 41.1359 292.645 41.5769C292.204 42.0179 291.847 42.6846 291.575 43.5769V47.0077H293.222V48H289.022V47.0077H290.283V40.8923H289.022V39.9H291.268L291.506 41.8154C291.834 41.1128 292.224 40.5897 292.675 40.2462C293.132 39.8974 293.711 39.7231 294.414 39.7231ZM301.242 36.1077C301.524 36.1077 301.753 36.1949 301.927 36.3692C302.101 36.5385 302.188 36.7513 302.188 37.0077C302.188 37.2744 302.101 37.4949 301.927 37.6692C301.753 37.8436 301.524 37.9308 301.242 37.9308C300.971 37.9308 300.747 37.8436 300.573 37.6692C300.399 37.4897 300.312 37.2692 300.312 37.0077C300.312 36.7513 300.399 36.5385 300.573 36.3692C300.747 36.1949 300.971 36.1077 301.242 36.1077ZM298.558 39.9H302.273V46.9769H304.558V48H298.481V46.9769H300.981V40.9231H298.558V39.9ZM312.186 36.4769C312.607 36.4769 312.994 36.5154 313.348 36.5923C313.702 36.6641 314.045 36.7718 314.379 36.9154L313.963 37.8769C313.461 37.6513 312.881 37.5385 312.225 37.5385C311.091 37.5385 310.525 37.9872 310.525 38.8846V40.5308H313.271L313.132 41.5462H310.525V48H309.232V41.5462H307.302V40.5308H309.232V38.9154C309.232 38.4282 309.361 38 309.617 37.6308C309.873 37.2615 310.225 36.9769 310.671 36.7769C311.117 36.5769 311.622 36.4769 312.186 36.4769ZM320.522 48.0538C320.312 48.659 320.061 49.1821 319.769 49.6231C319.481 50.0641 319.102 50.4282 318.63 50.7154C318.163 51.0077 317.589 51.1872 316.907 51.2538L316.707 50.2231C317.251 50.1308 317.684 49.9923 318.007 49.8077C318.335 49.6231 318.592 49.3897 318.776 49.1077C318.961 48.8256 319.133 48.4564 319.292 48H318.861L316.03 39.9H317.415L319.738 47.0154L322.03 39.9H323.369L320.522 48.0538ZM328.212 40.6385H327.074L326.828 36.6385H328.451L328.212 40.6385ZM330.782 40.6385H329.643L329.412 36.6385H331.028L330.782 40.6385ZM338.141 40.1385C338.377 40.1385 338.59 40.1949 338.779 40.3077C338.969 40.4154 339.118 40.5641 339.226 40.7538C339.338 40.9436 339.395 41.1513 339.395 41.3769C339.395 41.6026 339.338 41.8128 339.226 42.0077C339.118 42.1974 338.969 42.3487 338.779 42.4615C338.59 42.5744 338.377 42.6308 338.141 42.6308C337.91 42.6308 337.7 42.5744 337.51 42.4615C337.326 42.3487 337.177 42.1974 337.064 42.0077C336.956 41.8128 336.903 41.6026 336.903 41.3769C336.903 41.1513 336.956 40.9436 337.064 40.7538C337.177 40.5641 337.326 40.4154 337.51 40.3077C337.7 40.1949 337.91 40.1385 338.141 40.1385ZM338.141 45.4538C338.377 45.4538 338.59 45.5103 338.779 45.6231C338.969 45.7308 339.118 45.8795 339.226 46.0692C339.338 46.2538 339.395 46.459 339.395 46.6846C339.395 46.8846 339.372 47.0795 339.326 47.2692C339.279 47.459 339.2 47.6718 339.087 47.9077L337.841 50.7692H336.672L337.41 47.7154C337.251 47.6077 337.126 47.4641 337.033 47.2846C336.946 47.1 336.903 46.9026 336.903 46.6923C336.903 46.4667 336.956 46.259 337.064 46.0692C337.177 45.8795 337.326 45.7308 337.51 45.6231C337.7 45.5103 337.91 45.4538 338.141 45.4538ZM38.1901 72.0538L31.6208 85.5846L30.5747 85.1231L37.1593 71.5462L38.1901 72.0538ZM45.8824 72.0538L39.3131 85.5846L38.267 85.1231L44.8516 71.5462L45.8824 72.0538ZM63.7009 75.7231C63.9112 75.7231 64.1035 75.7385 64.2779 75.7692C64.4522 75.7949 64.642 75.8385 64.8471 75.9L64.6625 78.6385H63.6009V76.9154H63.5317C62.9061 76.9154 62.3727 77.1359 61.9317 77.5769C61.4907 78.0179 61.1343 78.6846 60.8625 79.5769V83.0077H62.5086V84H58.3086V83.0077H59.5702V76.8923H58.3086V75.9H60.5548L60.7932 77.8154C61.1214 77.1128 61.5112 76.5897 61.9625 76.2462C62.4189 75.8974 62.9984 75.7231 63.7009 75.7231ZM68.4756 80.4077C68.4961 81.0128 68.6141 81.5179 68.8294 81.9231C69.0448 82.3231 69.3269 82.6205 69.6756 82.8154C70.0243 83.0051 70.4141 83.1 70.8448 83.1C71.2448 83.1 71.6115 83.041 71.9448 82.9231C72.2833 82.8051 72.6371 82.6205 73.0064 82.3692L73.6141 83.2231C73.2346 83.5205 72.7987 83.7538 72.3064 83.9231C71.8192 84.0923 71.3269 84.1769 70.8294 84.1769C70.0551 84.1769 69.3884 84.0026 68.8294 83.6538C68.2705 83.3051 67.8448 82.8128 67.5525 82.1769C67.2653 81.541 67.1218 80.8026 67.1218 79.9615C67.1218 79.1462 67.2679 78.4179 67.5602 77.7769C67.8525 77.1359 68.2653 76.6359 68.7987 76.2769C69.332 75.9128 69.9525 75.7308 70.6602 75.7308C71.3371 75.7308 71.9218 75.8897 72.4141 76.2077C72.9115 76.5256 73.291 76.9846 73.5525 77.5846C73.8192 78.1795 73.9525 78.8846 73.9525 79.7C73.9525 79.9359 73.9423 80.1718 73.9218 80.4077H68.4756ZM70.6756 76.7923C70.05 76.7923 69.5397 77.0128 69.1448 77.4538C68.7551 77.8897 68.5346 78.541 68.4833 79.4077H72.7064C72.691 78.5564 72.5038 77.9077 72.1448 77.4615C71.7859 77.0154 71.2961 76.7923 70.6756 76.7923ZM83.1195 83.5923C82.8477 83.7718 82.5118 83.9128 82.1118 84.0154C81.7169 84.1231 81.3298 84.1769 80.9503 84.1769C80.381 84.1769 79.8913 84.0744 79.481 83.8692C79.0759 83.659 78.7657 83.3692 78.5503 83C78.3349 82.6308 78.2272 82.2077 78.2272 81.7308V76.9H76.3657V75.9H78.2272V74.0615L79.5195 73.9077V75.9H82.3195L82.1657 76.9H79.5195V81.7154C79.5195 82.1769 79.64 82.5231 79.881 82.7538C80.1272 82.9846 80.5221 83.1 81.0657 83.1C81.6144 83.1 82.1323 82.9718 82.6195 82.7154L83.1195 83.5923ZM87.2096 81.6385C87.2096 82.1667 87.3172 82.5513 87.5326 82.7923C87.7531 83.0282 88.0993 83.1462 88.5711 83.1462C88.9967 83.1462 89.4096 83.0231 89.8096 82.7769C90.2147 82.5308 90.5326 82.2256 90.7634 81.8615V75.9H92.0557V84H90.9557L90.848 82.9077C90.5352 83.3077 90.1455 83.6205 89.6788 83.8462C89.2172 84.0667 88.7429 84.1769 88.2557 84.1769C87.4813 84.1769 86.8967 83.9718 86.5019 83.5615C86.1121 83.1462 85.9172 82.5564 85.9172 81.7923V75.9H87.2096V81.6385ZM100.615 75.7231C100.825 75.7231 101.018 75.7385 101.192 75.7692C101.366 75.7949 101.556 75.8385 101.761 75.9L101.577 78.6385H100.515V76.9154H100.446C99.8201 76.9154 99.2868 77.1359 98.8458 77.5769C98.4047 78.0179 98.0483 78.6846 97.7765 79.5769V83.0077H99.4227V84H95.2227V83.0077H96.4842V76.8923H95.2227V75.9H97.4688L97.7073 77.8154C98.0355 77.1128 98.4253 76.5897 98.8765 76.2462C99.3329 75.8974 99.9124 75.7231 100.615 75.7231ZM104.374 84V75.9H105.474L105.574 77.0231C105.897 76.6179 106.302 76.3026 106.79 76.0769C107.282 75.8462 107.769 75.7308 108.251 75.7308C109.026 75.7308 109.597 75.9359 109.967 76.3462C110.341 76.7564 110.528 77.3462 110.528 78.1154V84H109.236V79.0692C109.236 78.4641 109.202 78.0026 109.136 77.6846C109.074 77.3667 108.944 77.1308 108.744 76.9769C108.549 76.8231 108.251 76.7462 107.851 76.7462C107.415 76.7462 107.002 76.8821 106.613 77.1538C106.228 77.4205 105.913 77.7359 105.667 78.1V84H104.374ZM116.357 83.1077C116.977 83.1077 117.467 82.9923 117.826 82.7615C118.19 82.5308 118.372 82.2179 118.372 81.8231C118.372 81.5564 118.323 81.3385 118.226 81.1692C118.134 80.9949 117.946 80.8359 117.664 80.6923C117.387 80.5487 116.969 80.4077 116.41 80.2692C115.79 80.1154 115.282 79.9487 114.887 79.7692C114.498 79.5846 114.193 79.3462 113.972 79.0538C113.757 78.7615 113.649 78.3897 113.649 77.9385C113.649 77.4923 113.777 77.1026 114.034 76.7692C114.29 76.4359 114.649 76.1795 115.11 76C115.577 75.8205 116.116 75.7308 116.726 75.7308C117.336 75.7308 117.885 75.8128 118.372 75.9769C118.864 76.1359 119.295 76.3513 119.664 76.6231L119.095 77.5C118.757 77.2692 118.4 77.0923 118.026 76.9692C117.657 76.841 117.228 76.7769 116.741 76.7769C116.131 76.7769 115.685 76.8718 115.403 77.0615C115.126 77.2462 114.987 77.5051 114.987 77.8385C114.987 78.0795 115.052 78.2769 115.18 78.4308C115.313 78.5846 115.526 78.7231 115.818 78.8462C116.116 78.9641 116.557 79.1026 117.141 79.2615C117.726 79.4205 118.205 79.5974 118.58 79.7923C118.954 79.9872 119.246 80.2436 119.457 80.5615C119.667 80.8744 119.772 81.2744 119.772 81.7615C119.772 82.3103 119.613 82.7667 119.295 83.1308C118.977 83.4897 118.559 83.7538 118.041 83.9231C117.528 84.0923 116.967 84.1769 116.357 84.1769C115.085 84.1769 114.028 83.8128 113.187 83.0846L113.926 82.2308C114.254 82.5077 114.626 82.7231 115.041 82.8769C115.457 83.0308 115.895 83.1077 116.357 83.1077ZM137.86 82.2308C137.86 82.5487 137.911 82.7846 138.014 82.9385C138.116 83.0872 138.285 83.1974 138.521 83.2692L138.206 84.1769C137.426 84.0744 136.932 83.6949 136.721 83.0385C136.434 83.4128 136.07 83.6974 135.629 83.8923C135.193 84.0821 134.711 84.1769 134.183 84.1769C133.65 84.1769 133.185 84.0744 132.791 83.8692C132.396 83.6641 132.093 83.3744 131.883 83C131.673 82.6205 131.568 82.1795 131.568 81.6769C131.568 80.841 131.893 80.2 132.544 79.7538C133.196 79.3077 134.137 79.0846 135.368 79.0846H136.56V78.4077C136.56 77.8436 136.396 77.4359 136.068 77.1846C135.739 76.9282 135.26 76.8 134.629 76.8C134.019 76.8 133.316 76.9385 132.521 77.2154L132.183 76.2385C133.085 75.9 133.968 75.7308 134.829 75.7308C135.819 75.7308 136.57 75.9641 137.083 76.4308C137.601 76.8923 137.86 77.5308 137.86 78.3462V82.2308ZM134.514 83.1923C134.914 83.1923 135.293 83.0923 135.652 82.8923C136.016 82.6872 136.319 82.4051 136.56 82.0462V79.9615H135.391C134.534 79.9615 133.914 80.1077 133.529 80.4C133.144 80.6923 132.952 81.1128 132.952 81.6615C132.952 82.6821 133.473 83.1923 134.514 83.1923ZM151.809 81.6385C151.809 82.1667 151.917 82.5513 152.132 82.7923C152.353 83.0282 152.699 83.1462 153.171 83.1462C153.596 83.1462 154.009 83.0231 154.409 82.7769C154.814 82.5308 155.132 82.2256 155.363 81.8615V75.9H156.655V84H155.555L155.448 82.9077C155.135 83.3077 154.745 83.6205 154.278 83.8462C153.817 84.0667 153.342 84.1769 152.855 84.1769C152.081 84.1769 151.496 83.9718 151.101 83.5615C150.712 83.1462 150.517 82.5564 150.517 81.7923V75.9H151.809V81.6385ZM159.745 84V75.9H160.845L160.945 77.0231C161.268 76.6179 161.674 76.3026 162.161 76.0769C162.653 75.8462 163.14 75.7308 163.622 75.7308C164.397 75.7308 164.968 75.9359 165.338 76.3462C165.712 76.7564 165.899 77.3462 165.899 78.1154V84H164.607V79.0692C164.607 78.4641 164.574 78.0026 164.507 77.6846C164.445 77.3667 164.315 77.1308 164.115 76.9769C163.92 76.8231 163.622 76.7462 163.222 76.7462C162.786 76.7462 162.374 76.8821 161.984 77.1538C161.599 77.4205 161.284 77.7359 161.038 78.1V84H159.745ZM172.043 72.1077C172.325 72.1077 172.553 72.1949 172.728 72.3692C172.902 72.5385 172.989 72.7513 172.989 73.0077C172.989 73.2744 172.902 73.4949 172.728 73.6692C172.553 73.8436 172.325 73.9308 172.043 73.9308C171.771 73.9308 171.548 73.8436 171.374 73.6692C171.2 73.4897 171.112 73.2692 171.112 73.0077C171.112 72.7513 171.2 72.5385 171.374 72.3692C171.548 72.1949 171.771 72.1077 172.043 72.1077ZM169.359 75.9H173.074V82.9769H175.359V84H169.282V82.9769H171.782V76.9231H169.359V75.9ZM180.872 75.7308C181.82 75.7308 182.574 76.0821 183.133 76.7846L183.241 75.9H184.341V87.2615L183.049 87.1V82.9769C182.761 83.3821 182.423 83.6846 182.033 83.8846C181.643 84.0795 181.223 84.1769 180.772 84.1769C179.725 84.1769 178.967 83.8103 178.495 83.0769C178.023 82.3436 177.787 81.3051 177.787 79.9615C177.787 79.141 177.905 78.4128 178.141 77.7769C178.382 77.1359 178.733 76.6359 179.195 76.2769C179.661 75.9128 180.22 75.7308 180.872 75.7308ZM181.195 76.7692C179.846 76.7692 179.172 77.8333 179.172 79.9615C179.172 81.0128 179.325 81.8 179.633 82.3231C179.946 82.841 180.415 83.1 181.041 83.1C181.461 83.1 181.838 82.9846 182.172 82.7538C182.51 82.5231 182.802 82.2231 183.049 81.8538V77.8077C182.838 77.4795 182.572 77.2256 182.249 77.0462C181.925 76.8615 181.574 76.7692 181.195 76.7692ZM188.723 81.6385C188.723 82.1667 188.831 82.5513 189.046 82.7923C189.267 83.0282 189.613 83.1462 190.085 83.1462C190.51 83.1462 190.923 83.0231 191.323 82.7769C191.728 82.5308 192.046 82.2256 192.277 81.8615V75.9H193.569V84H192.469L192.362 82.9077C192.049 83.3077 191.659 83.6205 191.192 83.8462C190.731 84.0667 190.257 84.1769 189.769 84.1769C188.995 84.1769 188.41 83.9718 188.016 83.5615C187.626 83.1462 187.431 82.5564 187.431 81.7923V75.9H188.723V81.6385ZM197.675 80.4077C197.695 81.0128 197.813 81.5179 198.029 81.9231C198.244 82.3231 198.526 82.6205 198.875 82.8154C199.224 83.0051 199.613 83.1 200.044 83.1C200.444 83.1 200.811 83.041 201.144 82.9231C201.483 82.8051 201.836 82.6205 202.206 82.3692L202.813 83.2231C202.434 83.5205 201.998 83.7538 201.506 83.9231C201.018 84.0923 200.526 84.1769 200.029 84.1769C199.254 84.1769 198.588 84.0026 198.029 83.6538C197.47 83.3051 197.044 82.8128 196.752 82.1769C196.465 81.541 196.321 80.8026 196.321 79.9615C196.321 79.1462 196.467 78.4179 196.759 77.7769C197.052 77.1359 197.465 76.6359 197.998 76.2769C198.531 75.9128 199.152 75.7308 199.859 75.7308C200.536 75.7308 201.121 75.8897 201.613 76.2077C202.111 76.5256 202.49 76.9846 202.752 77.5846C203.018 78.1795 203.152 78.8846 203.152 79.7C203.152 79.9359 203.141 80.1718 203.121 80.4077H197.675ZM199.875 76.7923C199.249 76.7923 198.739 77.0128 198.344 77.4538C197.954 77.8897 197.734 78.541 197.683 79.4077H201.906C201.89 78.5564 201.703 77.9077 201.344 77.4615C200.985 77.0154 200.495 76.7923 199.875 76.7923ZM218.393 84.1769C217.547 84.1769 216.816 83.9744 216.201 83.5692C215.586 83.159 215.109 82.5462 214.77 81.7308C214.437 80.9103 214.27 79.9 214.27 78.7C214.27 77.5359 214.475 76.5436 214.886 75.7231C215.296 74.8974 215.837 74.2769 216.509 73.8615C217.186 73.4462 217.916 73.2385 218.701 73.2385C219.363 73.2385 219.924 73.3333 220.386 73.5231C220.847 73.7077 221.296 74 221.732 74.4L220.924 75.2385C220.601 74.9359 220.26 74.7128 219.901 74.5692C219.542 74.4256 219.145 74.3538 218.709 74.3538C218.16 74.3538 217.66 74.4974 217.209 74.7846C216.757 75.0667 216.393 75.5308 216.116 76.1769C215.84 76.8231 215.701 77.6641 215.701 78.7C215.701 80.2128 215.934 81.3179 216.401 82.0154C216.868 82.7077 217.573 83.0538 218.516 83.0538C219.229 83.0538 219.901 82.8846 220.532 82.5462V79.3154H218.447L218.286 78.2077H221.855V83.2538C221.311 83.5513 220.77 83.7795 220.232 83.9385C219.699 84.0974 219.086 84.1769 218.393 84.1769ZM227.43 75.7308C228.178 75.7308 228.812 75.9026 229.33 76.2462C229.848 76.5846 230.237 77.0718 230.499 77.7077C230.765 78.3385 230.899 79.0846 230.899 79.9462C230.899 80.7821 230.763 81.5179 230.491 82.1538C230.224 82.7897 229.83 83.2872 229.307 83.6462C228.783 84 228.153 84.1769 227.414 84.1769C226.665 84.1769 226.03 84.0051 225.507 83.6615C224.989 83.3128 224.596 82.8231 224.33 82.1923C224.063 81.5615 223.93 80.8179 223.93 79.9615C223.93 79.1205 224.063 78.3821 224.33 77.7462C224.601 77.1103 224.999 76.6154 225.522 76.2615C226.05 75.9077 226.686 75.7308 227.43 75.7308ZM227.43 76.7846C226.727 76.7846 226.199 77.0462 225.845 77.5692C225.491 78.0872 225.314 78.8846 225.314 79.9615C225.314 81.0231 225.489 81.8154 225.837 82.3385C226.186 82.8564 226.712 83.1154 227.414 83.1154C228.117 83.1154 228.642 82.8564 228.991 82.3385C229.34 81.8154 229.514 81.0179 229.514 79.9462C229.514 78.8795 229.34 78.0872 228.991 77.5692C228.642 77.0462 228.122 76.7846 227.43 76.7846ZM236.658 75.7308C237.407 75.7308 238.04 75.9026 238.558 76.2462C239.076 76.5846 239.466 77.0718 239.727 77.7077C239.994 78.3385 240.127 79.0846 240.127 79.9462C240.127 80.7821 239.991 81.5179 239.72 82.1538C239.453 82.7897 239.058 83.2872 238.535 83.6462C238.012 84 237.381 84.1769 236.643 84.1769C235.894 84.1769 235.258 84.0051 234.735 83.6615C234.217 83.3128 233.825 82.8231 233.558 82.1923C233.291 81.5615 233.158 80.8179 233.158 79.9615C233.158 79.1205 233.291 78.3821 233.558 77.7462C233.83 77.1103 234.227 76.6154 234.75 76.2615C235.279 75.9077 235.915 75.7308 236.658 75.7308ZM236.658 76.7846C235.956 76.7846 235.427 77.0462 235.073 77.5692C234.72 78.0872 234.543 78.8846 234.543 79.9615C234.543 81.0231 234.717 81.8154 235.066 82.3385C235.415 82.8564 235.94 83.1154 236.643 83.1154C237.345 83.1154 237.871 82.8564 238.22 82.3385C238.568 81.8154 238.743 81.0179 238.743 79.9462C238.743 78.8795 238.568 78.0872 238.22 77.5692C237.871 77.0462 237.35 76.7846 236.658 76.7846ZM249.787 76.2538C249.469 76.3513 249.128 76.4154 248.764 76.4462C248.405 76.4769 247.956 76.4923 247.417 76.4923C248.356 76.9231 248.825 77.6026 248.825 78.5308C248.825 79.0641 248.702 79.541 248.456 79.9615C248.215 80.3769 247.864 80.7026 247.402 80.9385C246.946 81.1692 246.405 81.2846 245.779 81.2846C245.512 81.2846 245.287 81.2744 245.102 81.2538C244.923 81.2282 244.746 81.1872 244.571 81.1308C244.448 81.2179 244.346 81.3333 244.264 81.4769C244.187 81.6154 244.148 81.7615 244.148 81.9154C244.148 82.1256 244.23 82.2923 244.394 82.4154C244.558 82.5333 244.838 82.5923 245.233 82.5923H246.694C247.228 82.5923 247.712 82.6897 248.148 82.8846C248.589 83.0744 248.933 83.3385 249.179 83.6769C249.43 84.0103 249.556 84.3821 249.556 84.7923C249.556 85.5872 249.22 86.1974 248.548 86.6231C247.876 87.0487 246.923 87.2615 245.687 87.2615C244.835 87.2615 244.158 87.1744 243.656 87C243.158 86.8256 242.802 86.559 242.587 86.2C242.371 85.8462 242.264 85.3872 242.264 84.8231H243.433C243.433 85.1564 243.494 85.4205 243.617 85.6154C243.746 85.8154 243.971 85.9641 244.294 86.0615C244.623 86.159 245.084 86.2077 245.679 86.2077C246.561 86.2077 247.21 86.0974 247.625 85.8769C248.04 85.6564 248.248 85.3231 248.248 84.8769C248.248 84.5026 248.079 84.2154 247.74 84.0154C247.402 83.8154 246.961 83.7154 246.417 83.7154H244.971C244.525 83.7154 244.148 83.6462 243.84 83.5077C243.533 83.3692 243.305 83.1846 243.156 82.9538C243.007 82.7231 242.933 82.4692 242.933 82.1923C242.933 81.9308 243.01 81.6769 243.164 81.4308C243.317 81.1846 243.538 80.9667 243.825 80.7769C243.358 80.5308 243.015 80.2256 242.794 79.8615C242.574 79.4974 242.464 79.0564 242.464 78.5385C242.464 78 242.599 77.5179 242.871 77.0923C243.148 76.6615 243.53 76.3256 244.017 76.0846C244.51 75.8436 245.069 75.7231 245.694 75.7231C246.346 75.7231 246.884 75.6974 247.31 75.6462C247.735 75.5897 248.092 75.5154 248.379 75.4231C248.671 75.3308 249.007 75.2026 249.387 75.0385L249.787 76.2538ZM245.694 76.6692C245.064 76.6692 244.587 76.8385 244.264 77.1769C243.946 77.5154 243.787 77.9692 243.787 78.5385C243.787 79.1128 243.948 79.5718 244.271 79.9154C244.599 80.2538 245.084 80.4231 245.725 80.4231C246.289 80.4231 246.723 80.259 247.025 79.9308C247.333 79.5974 247.487 79.1308 247.487 78.5308C247.487 77.9205 247.335 77.459 247.033 77.1462C246.73 76.8282 246.284 76.6692 245.694 76.6692ZM255.184 82C255.184 82.3795 255.302 82.659 255.538 82.8385C255.779 83.0128 256.107 83.1 256.523 83.1C256.959 83.1 257.413 83.0051 257.884 82.8154L258.231 83.7615C257.984 83.8846 257.697 83.9846 257.369 84.0615C257.041 84.1385 256.687 84.1769 256.307 84.1769C255.831 84.1769 255.407 84.0872 255.038 83.9077C254.674 83.7282 254.392 83.4692 254.192 83.1308C253.992 82.7923 253.892 82.3923 253.892 81.9308V73.6615H251.407V72.6385H255.184V82ZM262.274 80.4077C262.295 81.0128 262.413 81.5179 262.628 81.9231C262.844 82.3231 263.126 82.6205 263.474 82.8154C263.823 83.0051 264.213 83.1 264.644 83.1C265.044 83.1 265.41 83.041 265.744 82.9231C266.082 82.8051 266.436 82.6205 266.805 82.3692L267.413 83.2231C267.033 83.5205 266.598 83.7538 266.105 83.9231C265.618 84.0923 265.126 84.1769 264.628 84.1769C263.854 84.1769 263.187 84.0026 262.628 83.6538C262.069 83.3051 261.644 82.8128 261.351 82.1769C261.064 81.541 260.921 80.8026 260.921 79.9615C260.921 79.1462 261.067 78.4179 261.359 77.7769C261.651 77.1359 262.064 76.6359 262.598 76.2769C263.131 75.9128 263.751 75.7308 264.459 75.7308C265.136 75.7308 265.721 75.8897 266.213 76.2077C266.71 76.5256 267.09 76.9846 267.351 77.5846C267.618 78.1795 267.751 78.8846 267.751 79.7C267.751 79.9359 267.741 80.1718 267.721 80.4077H262.274ZM264.474 76.7923C263.849 76.7923 263.339 77.0128 262.944 77.4538C262.554 77.8897 262.333 78.541 262.282 79.4077H266.505C266.49 78.5564 266.303 77.9077 265.944 77.4615C265.585 77.0154 265.095 76.7923 264.474 76.7923ZM285.516 82.2308C285.516 82.5487 285.567 82.7846 285.67 82.9385C285.772 83.0872 285.942 83.1974 286.178 83.2692L285.862 84.1769C285.083 84.0744 284.588 83.6949 284.378 83.0385C284.09 83.4128 283.726 83.6974 283.285 83.8923C282.849 84.0821 282.367 84.1769 281.839 84.1769C281.306 84.1769 280.842 84.0744 280.447 83.8692C280.052 83.6641 279.749 83.3744 279.539 83C279.329 82.6205 279.224 82.1795 279.224 81.6769C279.224 80.841 279.549 80.2 280.201 79.7538C280.852 79.3077 281.793 79.0846 283.024 79.0846H284.216V78.4077C284.216 77.8436 284.052 77.4359 283.724 77.1846C283.396 76.9282 282.916 76.8 282.285 76.8C281.675 76.8 280.972 76.9385 280.178 77.2154L279.839 76.2385C280.742 75.9 281.624 75.7308 282.485 75.7308C283.475 75.7308 284.226 75.9641 284.739 76.4308C285.257 76.8923 285.516 77.5308 285.516 78.3462V82.2308ZM282.17 83.1923C282.57 83.1923 282.949 83.0923 283.308 82.8923C283.672 82.6872 283.975 82.4051 284.216 82.0462V79.9615H283.047C282.19 79.9615 281.57 80.1077 281.185 80.4C280.801 80.6923 280.608 81.1128 280.608 81.6615C280.608 82.6821 281.129 83.1923 282.17 83.1923ZM290.237 81.6385C290.237 82.1667 290.345 82.5513 290.56 82.7923C290.78 83.0282 291.127 83.1462 291.598 83.1462C292.024 83.1462 292.437 83.0231 292.837 82.7769C293.242 82.5308 293.56 82.2256 293.791 81.8615V75.9H295.083V84H293.983L293.875 82.9077C293.563 83.3077 293.173 83.6205 292.706 83.8462C292.245 84.0667 291.77 84.1769 291.283 84.1769C290.509 84.1769 289.924 83.9718 289.529 83.5615C289.139 83.1462 288.945 82.5564 288.945 81.7923V75.9H290.237V81.6385ZM304.604 83.5923C304.332 83.7718 303.996 83.9128 303.596 84.0154C303.201 84.1231 302.814 84.1769 302.435 84.1769C301.865 84.1769 301.376 84.0744 300.965 83.8692C300.56 83.659 300.25 83.3692 300.035 83C299.819 82.6308 299.712 82.2077 299.712 81.7308V76.9H297.85V75.9H299.712V74.0615L301.004 73.9077V75.9H303.804L303.65 76.9H301.004V81.7154C301.004 82.1769 301.124 82.5231 301.365 82.7538C301.612 82.9846 302.006 83.1 302.55 83.1C303.099 83.1 303.617 82.9718 304.104 82.7154L304.604 83.5923ZM308.694 77.0077C309.007 76.5974 309.391 76.2821 309.848 76.0615C310.309 75.841 310.786 75.7308 311.279 75.7308C312.053 75.7308 312.625 75.9359 312.994 76.3462C313.368 76.7564 313.555 77.3462 313.555 78.1154V84H312.263V78.1462C312.263 77.6641 312.15 77.3103 311.925 77.0846C311.699 76.859 311.345 76.7462 310.863 76.7462C310.438 76.7462 310.03 76.8821 309.64 77.1538C309.25 77.4205 308.935 77.7359 308.694 78.1V84H307.402V72.6538L308.694 72.5154V77.0077ZM332.428 80.5692C332.428 81.2821 332.284 81.9103 331.997 82.4538C331.71 82.9974 331.3 83.4205 330.766 83.7231C330.238 84.0256 329.62 84.1769 328.912 84.1769C328.2 84.1769 327.579 84.0256 327.051 83.7231C326.528 83.4205 326.125 82.9974 325.843 82.4538C325.566 81.9103 325.428 81.2821 325.428 80.5692V73.4077H326.751V80.6154C326.751 81.4103 326.936 82.0103 327.305 82.4154C327.679 82.8205 328.215 83.0231 328.912 83.0231C329.615 83.0231 330.151 82.8205 330.52 82.4154C330.895 82.0103 331.082 81.4103 331.082 80.6154V73.4077H332.428V80.5692ZM341.81 76.3769C341.81 77.1359 341.572 77.7667 341.095 78.2692C340.618 78.7667 339.995 79.1103 339.226 79.3L342.364 84H340.764L337.872 79.4538H336.441V84H335.103V73.4077H337.826C339.133 73.4077 340.123 73.659 340.795 74.1615C341.472 74.6641 341.81 75.4026 341.81 76.3769ZM340.379 76.3769C340.379 75.7051 340.185 75.2205 339.795 74.9231C339.41 74.6205 338.805 74.4692 337.979 74.4692H336.441V78.4077H337.979C338.769 78.4077 339.367 78.2487 339.772 77.9308C340.177 77.6077 340.379 77.0897 340.379 76.3769ZM344.354 73.4077H350.416V74.4769H348.062V82.9308H350.416V84H344.354V82.9308H346.708V74.4769H344.354V73.4077ZM122.908 95.2H128.893V96.3154H122.908V95.2ZM122.908 98.1154H128.893V99.2385H122.908V98.1154ZM253.754 96.6154C253.754 97.6615 253.872 98.5744 254.107 99.3538C254.348 100.128 254.702 100.831 255.169 101.462C255.641 102.092 256.266 102.754 257.046 103.446L256.369 104.154C255.472 103.426 254.738 102.708 254.169 102C253.6 101.297 253.161 100.508 252.854 99.6308C252.551 98.7538 252.4 97.7487 252.4 96.6154C252.4 95.4821 252.551 94.4769 252.854 93.6C253.161 92.7231 253.6 91.9333 254.169 91.2308C254.738 90.5231 255.472 89.8051 256.369 89.0769L257.046 89.7846C256.256 90.4872 255.628 91.1513 255.161 91.7769C254.695 92.4026 254.343 93.1026 254.107 93.8769C253.872 94.6513 253.754 95.5641 253.754 96.6154ZM144.358 117.469C144.593 117.469 144.806 117.526 144.996 117.638C145.186 117.746 145.334 117.895 145.442 118.085C145.55 118.269 145.604 118.474 145.604 118.7C145.604 118.89 145.581 119.079 145.534 119.269C145.488 119.459 145.411 119.672 145.304 119.908L144.058 122.762H142.888L143.627 119.723C143.473 119.61 143.35 119.464 143.258 119.285C143.17 119.1 143.127 118.905 143.127 118.7C143.127 118.474 143.181 118.269 143.288 118.085C143.396 117.895 143.542 117.746 143.727 117.638C143.917 117.526 144.127 117.469 144.358 117.469ZM34.9615 132.615C34.9615 131.564 34.8436 130.651 34.6077 129.877C34.3718 129.103 34.0205 128.403 33.5538 127.777C33.0872 127.151 32.459 126.487 31.6692 125.785L32.3462 125.077C33.2436 125.805 33.9769 126.523 34.5462 127.231C35.1154 127.933 35.5513 128.723 35.8538 129.6C36.1615 130.477 36.3154 131.482 36.3154 132.615C36.3154 133.749 36.1615 134.754 35.8538 135.631C35.5513 136.508 35.1154 137.297 34.5462 138C33.9769 138.708 33.2436 139.426 32.3462 140.154L31.6692 139.446C32.4487 138.754 33.0718 138.092 33.5385 137.462C34.0103 136.831 34.3641 136.128 34.6 135.354C34.841 134.574 34.9615 133.662 34.9615 132.615ZM42.8285 130.138C43.0644 130.138 43.2772 130.195 43.467 130.308C43.6567 130.415 43.8054 130.564 43.9131 130.754C44.026 130.944 44.0824 131.151 44.0824 131.377C44.0824 131.603 44.026 131.813 43.9131 132.008C43.8054 132.197 43.6567 132.349 43.467 132.462C43.2772 132.574 43.0644 132.631 42.8285 132.631C42.5977 132.631 42.3875 132.574 42.1977 132.462C42.0131 132.349 41.8644 132.197 41.7516 132.008C41.6439 131.813 41.5901 131.603 41.5901 131.377C41.5901 131.151 41.6439 130.944 41.7516 130.754C41.8644 130.564 42.0131 130.415 42.1977 130.308C42.3875 130.195 42.5977 130.138 42.8285 130.138ZM42.8285 135.454C43.0644 135.454 43.2772 135.51 43.467 135.623C43.6567 135.731 43.8054 135.879 43.9131 136.069C44.026 136.254 44.0824 136.459 44.0824 136.685C44.0824 136.885 44.0593 137.079 44.0131 137.269C43.967 137.459 43.8875 137.672 43.7747 137.908L42.5285 140.769H41.3593L42.0977 137.715C41.9388 137.608 41.8131 137.464 41.7208 137.285C41.6336 137.1 41.5901 136.903 41.5901 136.692C41.5901 136.467 41.6439 136.259 41.7516 136.069C41.8644 135.879 42.0131 135.731 42.1977 135.623C42.3875 135.51 42.5977 135.454 42.8285 135.454Z" fill="#999999"/>
</svg>
